Fanwood Italic.ufo
<glyph name="exclam" format="1">
  <advance width="220"/>
  <unicode hex="0021"/>
  <outline>
    <contour>
      <point x="65" y="23"/>
      <point x="87" y="-8"/>
      <point x="115" y="-8" type="curve" smooth="yes"/>
      <point x="125" y="-8"/>
      <point x="155" y="8"/>
      <point x="155" y="43" type="curve" smooth="yes"/>
      <point x="155" y="63"/>
      <point x="129" y="90"/>
      <point x="111" y="90" type="curve" smooth="yes"/>
      <point x="92" y="90"/>
      <point x="65" y="64"/>
      <point x="65" y="38" type="curve" smooth="yes"/>
    </contour>
    <contour>
      <point x="102" y="146"/>
      <point x="107" y="146"/>
      <point x="115" y="146" type="curve" smooth="yes"/>
      <point x="119" y="146"/>
      <point x="126" y="146"/>
      <point x="127" y="151" type="curve"/>
      <point x="173" y="438"/>
      <point x="204" y="588"/>
      <point x="213" y="628" type="curve" smooth="yes"/>
      <point x="214" y="633"/>
      <point x="215" y="636"/>
      <point x="215" y="640" type="curve" smooth="yes"/>
      <point x="215" y="651"/>
      <point x="209" y="657"/>
      <point x="190" y="657" type="curve" smooth="yes"/>
      <point x="185" y="657" type="line" smooth="yes"/>
      <point x="172" y="657"/>
      <point x="157" y="653"/>
      <point x="156" y="635" type="curve" smooth="yes"/>
      <point x="151" y="574"/>
      <point x="144" y="508"/>
      <point x="122" y="333" type="curve" smooth="yes"/>
      <point x="110" y="237"/>
      <point x="102" y="154"/>
      <point x="102" y="150" type="curve" smooth="yes"/>
    </contour>
  </outline>
</glyph>
<glyph name="dollar" format="1">
  <advance width="500"/>
  <unicode hex="0024"/>
  <outline>
    <contour>
      <point x="50" y="94"/>
      <point x="96" y="26"/>
      <point x="181" y="8" type="curve"/>
      <point x="193" y="5"/>
      <point x="197" y="5"/>
      <point x="197" y="-4" type="curve" smooth="yes"/>
      <point x="197" y="-7"/>
      <point x="197" y="-10"/>
      <point x="196" y="-14" type="curve"/>
      <point x="178" y="-135" type="line"/>
      <point x="177" y="-140"/>
      <point x="178" y="-142"/>
      <point x="182" y="-142" type="curve" smooth="yes"/>
      <point x="199" y="-142" type="line" smooth="yes"/>
      <point x="203" y="-142"/>
      <point x="204" y="-141"/>
      <point x="205" y="-136" type="curve"/>
      <point x="219" y="-14" type="line" smooth="yes"/>
      <point x="221" y="2"/>
      <point x="220" y="1"/>
      <point x="231" y="1" type="curve" smooth="yes"/>
      <point x="337" y="1"/>
      <point x="416" y="55"/>
      <point x="416" y="145" type="curve" smooth="yes"/>
      <point x="416" y="249"/>
      <point x="339" y="291"/>
      <point x="271" y="335" type="curve" smooth="yes"/>
      <point x="265" y="339"/>
      <point x="266" y="345"/>
      <point x="267" y="355" type="curve" smooth="yes"/>
      <point x="299" y="602" type="line"/>
      <point x="300" y="607"/>
      <point x="304" y="606"/>
      <point x="311" y="605" type="curve" smooth="yes"/>
      <point x="342" y="600"/>
      <point x="362" y="580"/>
      <point x="374" y="564" type="curve"/>
      <point x="383" y="551"/>
      <point x="385" y="522"/>
      <point x="390" y="500" type="curve" smooth="yes"/>
      <point x="393" y="485"/>
      <point x="408" y="471"/>
      <point x="420" y="471" type="curve" smooth="yes"/>
      <point x="429" y="471"/>
      <point x="438" y="479"/>
      <point x="438" y="496" type="curve" smooth="yes"/>
      <point x="438" y="527"/>
      <point x="400" y="609"/>
      <point x="310" y="624" type="curve"/>
      <point x="302" y="625"/>
      <point x="303" y="628"/>
      <point x="304" y="637" type="curve" smooth="yes"/>
      <point x="309" y="673" type="line" smooth="yes"/>
      <point x="310" y="681"/>
      <point x="309" y="682"/>
      <point x="303" y="682" type="curve" smooth="yes"/>
      <point x="294" y="682" type="line" smooth="yes"/>
      <point x="289" y="682"/>
      <point x="287" y="681"/>
      <point x="286" y="673" type="curve" smooth="yes"/>
      <point x="281" y="637" type="line" smooth="yes"/>
      <point x="280" y="629"/>
      <point x="274" y="627"/>
      <point x="268" y="627" type="curve" smooth="yes"/>
      <point x="180" y="627"/>
      <point x="88" y="574"/>
      <point x="88" y="470" type="curve" smooth="yes"/>
      <point x="88" y="380"/>
      <point x="160" y="336"/>
      <point x="228" y="294" type="curve" smooth="yes"/>
      <point x="238" y="288"/>
      <point x="237" y="285"/>
      <point x="235" y="270" type="curve" smooth="yes"/>
      <point x="203" y="36" type="line"/>
      <point x="202" y="26"/>
      <point x="199" y="25"/>
      <point x="196" y="25" type="curve" smooth="yes"/>
      <point x="186" y="25"/>
      <point x="175" y="29"/>
      <point x="167" y="33" type="curve" smooth="yes"/>
      <point x="146" y="44"/>
      <point x="128" y="68"/>
      <point x="115" y="91" type="curve" smooth="yes"/>
      <point x="98" y="122"/>
      <point x="88" y="154"/>
      <point x="83" y="154" type="curve" smooth="yes"/>
      <point x="73" y="154"/>
      <point x="50" y="140"/>
      <point x="50" y="128" type="curve" smooth="yes"/>
    </contour>
    <contour>
      <point x="141" y="560"/>
      <point x="211" y="608"/>
      <point x="272" y="608" type="curve" smooth="yes"/>
      <point x="275" y="608"/>
      <point x="277" y="607"/>
      <point x="276" y="602" type="curve"/>
      <point x="245" y="368" type="line" smooth="yes"/>
      <point x="244" y="358"/>
      <point x="241" y="354"/>
      <point x="238" y="354" type="curve" smooth="yes"/>
      <point x="236" y="354"/>
      <point x="233" y="356"/>
      <point x="230" y="358" type="curve"/>
      <point x="186" y="382"/>
      <point x="141" y="434"/>
      <point x="141" y="485" type="curve" smooth="yes"/>
    </contour>
    <contour>
      <point x="227" y="28"/>
      <point x="227" y="32"/>
      <point x="228" y="38" type="curve"/>
      <point x="257" y="266" type="line"/>
      <point x="258" y="271"/>
      <point x="259" y="275"/>
      <point x="260" y="275" type="curve" smooth="yes"/>
      <point x="262" y="275"/>
      <point x="264" y="273"/>
      <point x="266" y="272" type="curve" smooth="yes"/>
      <point x="316" y="248"/>
      <point x="360" y="198"/>
      <point x="360" y="145" type="curve" smooth="yes"/>
      <point x="360" y="67"/>
      <point x="309" y="21"/>
      <point x="245" y="19" type="curve" smooth="yes"/>
      <point x="230" y="19"/>
      <point x="227" y="19"/>
      <point x="227" y="25" type="curve" smooth="yes"/>
    </contour>
  </outline>
</glyph>
<glyph name="percent" format="1">
  <advance width="657"/>
  <unicode hex="0025"/>
  <outline>
    <contour>
      <point x="50" y="300"/>
      <point x="85" y="250"/>
      <point x="150" y="250" type="curve" smooth="yes"/>
      <point x="233" y="250"/>
      <point x="312" y="344"/>
      <point x="320" y="439" type="curve"/>
      <point x="321" y="447"/>
      <point x="321" y="456"/>
      <point x="321" y="464" type="curve" smooth="yes"/>
      <point x="321" y="478" type="line" smooth="yes"/>
      <point x="321" y="481"/>
      <point x="319" y="494"/>
      <point x="321" y="494" type="curve"/>
      <point x="334" y="492"/>
      <point x="346" y="491"/>
      <point x="356" y="491" type="curve" smooth="yes"/>
      <point x="409" y="491"/>
      <point x="456" y="516"/>
      <point x="461" y="519" type="curve"/>
      <point x="477" y="527"/>
      <point x="465" y="512"/>
      <point x="461" y="505" type="curve" smooth="yes"/>
      <point x="410" y="416"/>
      <point x="101" y="-21"/>
      <point x="99" y="-25" type="curve" smooth="yes"/>
      <point x="98" y="-27"/>
      <point x="97" y="-29"/>
      <point x="97" y="-31" type="curve" smooth="yes"/>
      <point x="97" y="-38"/>
      <point x="105" y="-41"/>
      <point x="113" y="-41" type="curve" smooth="yes"/>
      <point x="120" y="-41"/>
      <point x="129" y="-40"/>
      <point x="132" y="-35" type="curve" smooth="yes"/>
      <point x="155" y="1"/>
      <point x="510" y="526"/>
      <point x="566" y="608" type="curve" smooth="yes"/>
      <point x="570" y="614"/>
      <point x="571" y="617"/>
      <point x="571" y="619" type="curve" smooth="yes"/>
      <point x="571" y="625"/>
      <point x="561" y="631"/>
      <point x="553" y="631" type="curve" smooth="yes"/>
      <point x="552" y="631"/>
      <point x="540" y="616"/>
      <point x="538" y="614" type="curve" smooth="yes"/>
      <point x="514" y="591"/>
      <point x="486" y="558"/>
      <point x="449" y="536" type="curve" smooth="yes"/>
      <point x="427" y="523"/>
      <point x="390" y="508"/>
      <point x="356" y="508" type="curve" smooth="yes"/>
      <point x="331" y="508"/>
      <point x="312" y="518"/>
      <point x="298" y="532" type="curve" smooth="yes"/>
      <point x="279" y="551"/>
      <point x="261" y="563"/>
      <point x="227" y="563" type="curve" smooth="yes"/>
      <point x="122" y="563"/>
      <point x="50" y="434"/>
      <point x="50" y="362" type="curve" smooth="yes"/>
    </contour>
    <contour>
      <point x="99" y="427"/>
      <point x="180" y="531"/>
      <point x="240" y="531" type="curve" smooth="yes"/>
      <point x="277" y="531"/>
      <point x="292" y="502"/>
      <point x="292" y="461" type="curve" smooth="yes"/>
      <point x="292" y="352"/>
      <point x="218" y="265"/>
      <point x="153" y="265" type="curve" smooth="yes"/>
      <point x="114" y="265"/>
      <point x="99" y="301"/>
      <point x="99" y="336" type="curve" smooth="yes"/>
    </contour>
    <contour>
      <point x="336" y="41"/>
      <point x="371" y="-9"/>
      <point x="436" y="-9" type="curve" smooth="yes"/>
      <point x="522" y="-9"/>
      <point x="607" y="92"/>
      <point x="607" y="197" type="curve" smooth="yes"/>
      <point x="607" y="264"/>
      <point x="573" y="306"/>
      <point x="517" y="306" type="curve" smooth="yes"/>
      <point x="422" y="306"/>
      <point x="336" y="195"/>
      <point x="336" y="103" type="curve" smooth="yes"/>
    </contour>
    <contour>
      <point x="385" y="169"/>
      <point x="466" y="273"/>
      <point x="525" y="273" type="curve" smooth="yes"/>
      <point x="562" y="273"/>
      <point x="578" y="243"/>
      <point x="578" y="202" type="curve" smooth="yes"/>
      <point x="578" y="94"/>
      <point x="504" y="7"/>
      <point x="439" y="7" type="curve" smooth="yes"/>
      <point x="399" y="7"/>
      <point x="385" y="42"/>
      <point x="385" y="78" type="curve" smooth="yes"/>
    </contour>
  </outline>
</glyph>
<glyph name="ampersand" format="1">
  <advance width="693"/>
  <unicode hex="0026"/>
  <outline>
    <contour>
      <point x="35" y="84"/>
      <point x="115" y="-8"/>
      <point x="256" y="-8" type="curve" smooth="yes"/>
      <point x="459" y="-8"/>
      <point x="531" y="176"/>
      <point x="531" y="277" type="curve" smooth="yes"/>
      <point x="531" y="286"/>
      <point x="530" y="301"/>
      <point x="530" y="308" type="curve" smooth="yes"/>
      <point x="530" y="319"/>
      <point x="536" y="316"/>
      <point x="543" y="315" type="curve"/>
      <point x="551" y="313"/>
      <point x="570" y="312"/>
      <point x="580" y="312" type="curve" smooth="yes"/>
      <point x="607" y="312"/>
      <point x="655" y="331"/>
      <point x="676" y="366" type="curve" smooth="yes"/>
      <point x="686" y="382"/>
      <point x="693" y="406"/>
      <point x="693" y="431" type="curve" smooth="yes"/>
      <point x="693" y="466"/>
      <point x="673" y="520"/>
      <point x="615" y="520" type="curve" smooth="yes"/>
      <point x="599" y="520"/>
      <point x="578" y="507"/>
      <point x="578" y="485" type="curve" smooth="yes"/>
      <point x="578" y="481"/>
      <point x="579" y="478"/>
      <point x="589" y="478" type="curve" smooth="yes"/>
      <point x="628" y="478"/>
      <point x="673" y="469"/>
      <point x="673" y="415" type="curve" smooth="yes"/>
      <point x="673" y="382"/>
      <point x="651" y="359"/>
      <point x="617" y="359" type="curve" smooth="yes"/>
      <point x="543" y="359"/>
      <point x="470" y="406"/>
      <point x="422" y="406" type="curve" smooth="yes"/>
      <point x="353" y="406"/>
      <point x="288" y="364"/>
      <point x="288" y="283" type="curve" smooth="yes"/>
      <point x="288" y="266"/>
      <point x="301" y="227"/>
      <point x="343" y="214" type="curve" smooth="yes"/>
      <point x="350" y="212"/>
      <point x="359" y="210"/>
      <point x="368" y="210" type="curve" smooth="yes"/>
      <point x="382" y="210"/>
      <point x="399" y="223"/>
      <point x="399" y="233" type="curve" smooth="yes"/>
      <point x="399" y="237"/>
      <point x="395" y="240"/>
      <point x="383" y="242" type="curve" smooth="yes"/>
      <point x="352" y="248"/>
      <point x="310" y="252"/>
      <point x="310" y="300" type="curve" smooth="yes"/>
      <point x="310" y="337"/>
      <point x="337" y="357"/>
      <point x="375" y="357" type="curve" smooth="yes"/>
      <point x="411" y="357"/>
      <point x="462" y="339"/>
      <point x="489" y="329" type="curve" smooth="yes"/>
      <point x="497" y="326"/>
      <point x="501" y="286"/>
      <point x="501" y="265" type="curve" smooth="yes"/>
      <point x="501" y="102"/>
      <point x="378" y="53"/>
      <point x="294" y="53" type="curve" smooth="yes"/>
      <point x="181" y="53"/>
      <point x="89" y="125"/>
      <point x="89" y="242" type="curve" smooth="yes"/>
      <point x="89" y="326"/>
      <point x="141" y="348"/>
      <point x="146" y="348" type="curve" smooth="yes"/>
      <point x="150" y="348"/>
      <point x="170" y="334"/>
      <point x="186" y="334" type="curve" smooth="yes"/>
      <point x="203" y="334"/>
      <point x="247" y="354"/>
      <point x="247" y="377" type="curve" smooth="yes"/>
      <point x="247" y="384"/>
      <point x="241" y="389"/>
      <point x="228" y="389" type="curve" smooth="yes"/>
      <point x="210" y="389"/>
      <point x="198" y="384"/>
      <point x="173" y="384" type="curve" smooth="yes"/>
      <point x="141" y="384"/>
      <point x="114" y="426"/>
      <point x="114" y="474" type="curve" smooth="yes"/>
      <point x="114" y="533"/>
      <point x="164" y="586"/>
      <point x="222" y="586" type="curve" smooth="yes"/>
      <point x="261" y="586"/>
      <point x="289" y="575"/>
      <point x="319" y="543" type="curve"/>
      <point x="325" y="536"/>
      <point x="331" y="525"/>
      <point x="340" y="534" type="curve" smooth="yes"/>
      <point x="350" y="544"/>
      <point x="361" y="564"/>
      <point x="361" y="586" type="curve" smooth="yes"/>
      <point x="361" y="608"/>
      <point x="343" y="619"/>
      <point x="324" y="627" type="curve" smooth="yes"/>
      <point x="298" y="638"/>
      <point x="276" y="643"/>
      <point x="246" y="643" type="curve" smooth="yes"/>
      <point x="141" y="643"/>
      <point x="83" y="563"/>
      <point x="83" y="476" type="curve" smooth="yes"/>
      <point x="83" y="400"/>
      <point x="128" y="376"/>
      <point x="128" y="368" type="curve" smooth="yes"/>
      <point x="128" y="359"/>
      <point x="35" y="315"/>
      <point x="35" y="201" type="curve" smooth="yes"/>
    </contour>
  </outline>
</glyph>
<glyph name="parenleft" format="1">
  <advance width="319"/>
  <unicode hex="0028"/>
  <outline>
    <contour>
      <point x="60" y="55"/>
      <point x="228" y="-140"/>
      <point x="239" y="-140" type="curve" smooth="yes"/>
      <point x="250" y="-140"/>
      <point x="255" y="-133"/>
      <point x="255" y="-126" type="curve" smooth="yes"/>
      <point x="255" y="-111"/>
      <point x="117" y="14"/>
      <point x="117" y="297" type="curve" smooth="yes"/>
      <point x="117" y="546"/>
      <point x="259" y="672"/>
      <point x="259" y="676" type="curve" smooth="yes"/>
      <point x="259" y="683"/>
      <point x="250" y="689"/>
      <point x="243" y="689" type="curve" smooth="yes"/>
      <point x="241" y="689"/>
      <point x="60" y="547"/>
      <point x="60" y="285" type="curve" smooth="yes"/>
    </contour>
  </outline>
</glyph>
<glyph name="parenright" format="1">
  <advance width="319"/>
  <unicode hex="0029"/>
  <outline>
    <contour>
      <point x="60" y="-134"/>
      <point x="69" y="-140"/>
      <point x="76" y="-140" type="curve" smooth="yes"/>
      <point x="78" y="-140"/>
      <point x="259" y="2"/>
      <point x="259" y="264" type="curve" smooth="yes"/>
      <point x="259" y="494"/>
      <point x="91" y="689"/>
      <point x="80" y="689" type="curve" smooth="yes"/>
      <point x="69" y="689"/>
      <point x="64" y="682"/>
      <point x="64" y="675" type="curve" smooth="yes"/>
      <point x="64" y="660"/>
      <point x="202" y="535"/>
      <point x="202" y="252" type="curve" smooth="yes"/>
      <point x="202" y="3"/>
      <point x="60" y="-123"/>
      <point x="60" y="-127" type="curve" smooth="yes"/>
    </contour>
  </outline>
</glyph>
<glyph name="comma" format="1">
  <advance width="195"/>
  <unicode hex="002C"/>
  <outline>
    <contour>
      <point x="7" y="-134"/>
      <point x="18" y="-148"/>
      <point x="24" y="-148" type="curve" smooth="yes"/>
      <point x="29" y="-148"/>
      <point x="155" y="-47"/>
      <point x="155" y="16" type="curve" smooth="yes"/>
      <point x="155" y="65"/>
      <point x="110" y="96"/>
      <point x="98" y="96" type="curve" smooth="yes"/>
      <point x="81" y="96"/>
      <point x="45" y="76"/>
      <point x="45" y="68" type="curve" smooth="yes"/>
      <point x="45" y="62"/>
      <point x="67" y="44"/>
      <point x="83" y="24" type="curve" smooth="yes"/>
      <point x="93" y="11"/>
      <point x="98" y="0"/>
      <point x="98" y="-11" type="curve" smooth="yes"/>
      <point x="98" y="-42"/>
      <point x="67" y="-73"/>
      <point x="50" y="-90" type="curve" smooth="yes"/>
      <point x="28" y="-111"/>
      <point x="7" y="-125"/>
      <point x="7" y="-127" type="curve" smooth="yes"/>
    </contour>
  </outline>
</glyph>
<glyph name="period" format="1">
  <advance width="210"/>
  <unicode hex="002E"/>
  <outline>
    <contour>
      <point x="60" y="23"/>
      <point x="82" y="-8"/>
      <point x="110" y="-8" type="curve" smooth="yes"/>
      <point x="120" y="-8"/>
      <point x="150" y="8"/>
      <point x="150" y="43" type="curve" smooth="yes"/>
      <point x="150" y="63"/>
      <point x="124" y="90"/>
      <point x="106" y="90" type="curve" smooth="yes"/>
      <point x="87" y="90"/>
      <point x="60" y="64"/>
      <point x="60" y="38" type="curve" smooth="yes"/>
    </contour>
  </outline>
</glyph>
<glyph name="slash" format="1">
  <advance width="406"/>
  <unicode hex="002F"/>
  <outline>
    <contour>
      <point x="10" y="-233"/>
      <point x="24" y="-233"/>
      <point x="36" y="-233" type="curve" smooth="yes"/>
      <point x="51" y="-233"/>
      <point x="57" y="-233"/>
      <point x="68" y="-202" type="curve" smooth="yes"/>
      <point x="382" y="649" type="line" smooth="yes"/>
      <point x="387" y="662"/>
      <point x="396" y="684"/>
      <point x="396" y="693" type="curve" smooth="yes"/>
      <point x="396" y="703"/>
      <point x="384" y="705"/>
      <point x="375" y="705" type="curve" smooth="yes"/>
      <point x="357" y="705"/>
      <point x="351" y="702"/>
      <point x="346" y="687" type="curve"/>
      <point x="344" y="680"/>
      <point x="29" y="-163"/>
      <point x="29" y="-163" type="curve"/>
      <point x="21" y="-186"/>
      <point x="10" y="-211"/>
      <point x="10" y="-220" type="curve" smooth="yes"/>
    </contour>
  </outline>
</glyph>
<glyph name="zero" format="1">
  <advance width="500"/>
  <unicode hex="0030"/>
  <outline>
    <contour>
      <point x="62" y="60"/>
      <point x="141" y="-5"/>
      <point x="240" y="-5" type="curve" smooth="yes"/>
      <point x="350" y="-5"/>
      <point x="439" y="85"/>
      <point x="439" y="198" type="curve" smooth="yes"/>
      <point x="439" y="290"/>
      <point x="372" y="366"/>
      <point x="264" y="366" type="curve" smooth="yes"/>
      <point x="148" y="366"/>
      <point x="62" y="279"/>
      <point x="62" y="164" type="curve" smooth="yes"/>
    </contour>
    <contour>
      <point x="107" y="239"/>
      <point x="177" y="336"/>
      <point x="264" y="336" type="curve" smooth="yes"/>
      <point x="335" y="336"/>
      <point x="391" y="288"/>
      <point x="391" y="207" type="curve" smooth="yes"/>
      <point x="391" y="100"/>
      <point x="310" y="27"/>
      <point x="231" y="27" type="curve" smooth="yes"/>
      <point x="160" y="27"/>
      <point x="107" y="71"/>
      <point x="107" y="156" type="curve" smooth="yes"/>
    </contour>
  </outline>
</glyph>
<glyph name="one" format="1">
  <advance width="500"/>
  <unicode hex="0031"/>
  <outline>
    <contour>
      <point x="130" y="1"/>
      <point x="130" y="-2"/>
      <point x="141" y="-2" type="curve" smooth="yes"/>
      <point x="160" y="-2"/>
      <point x="209" y="0"/>
      <point x="234" y="0" type="curve" smooth="yes"/>
      <point x="259" y="0"/>
      <point x="311" y="-2"/>
      <point x="330" y="-2" type="curve" smooth="yes"/>
      <point x="341" y="-2"/>
      <point x="341" y="3"/>
      <point x="341" y="12" type="curve" smooth="yes"/>
      <point x="341" y="21"/>
      <point x="340" y="25"/>
      <point x="330" y="25" type="curve" smooth="yes"/>
      <point x="280" y="25" type="line" smooth="yes"/>
      <point x="270" y="25"/>
      <point x="266" y="28"/>
      <point x="267" y="37" type="curve" smooth="yes"/>
      <point x="281" y="141"/>
      <point x="300" y="267"/>
      <point x="312" y="346" type="curve"/>
      <point x="314" y="356"/>
      <point x="314" y="358"/>
      <point x="325" y="358" type="curve" smooth="yes"/>
      <point x="364" y="358" type="line" smooth="yes"/>
      <point x="377" y="358"/>
      <point x="378" y="362"/>
      <point x="378" y="371" type="curve" smooth="yes"/>
      <point x="378" y="382"/>
      <point x="378" y="385"/>
      <point x="367" y="385" type="curve" smooth="yes"/>
      <point x="348" y="385"/>
      <point x="302" y="383"/>
      <point x="277" y="383" type="curve" smooth="yes"/>
      <point x="252" y="383"/>
      <point x="203" y="385"/>
      <point x="184" y="385" type="curve" smooth="yes"/>
      <point x="173" y="385"/>
      <point x="173" y="380"/>
      <point x="173" y="371" type="curve" smooth="yes"/>
      <point x="173" y="362"/>
      <point x="174" y="358"/>
      <point x="184" y="358" type="curve" smooth="yes"/>
      <point x="237" y="358" type="line" smooth="yes"/>
      <point x="247" y="358"/>
      <point x="245" y="355"/>
      <point x="245" y="346" type="curve" smooth="yes"/>
      <point x="245" y="339"/>
      <point x="215" y="140"/>
      <point x="195" y="37" type="curve" smooth="yes"/>
      <point x="193" y="27"/>
      <point x="195" y="25"/>
      <point x="184" y="25" type="curve" smooth="yes"/>
      <point x="144" y="25" type="line" smooth="yes"/>
      <point x="131" y="25"/>
      <point x="130" y="21"/>
      <point x="130" y="12" type="curve" smooth="yes"/>
    </contour>
  </outline>
</glyph>
<glyph name="two" format="1">
  <advance width="500"/>
  <unicode hex="0032"/>
  <outline>
    <contour>
      <point x="54" y="5"/>
      <point x="58" y="0"/>
      <point x="69" y="0" type="curve" smooth="yes"/>
      <point x="393" y="0" type="line" smooth="yes"/>
      <point x="400" y="0"/>
      <point x="402" y="1"/>
      <point x="404" y="6" type="curve" smooth="yes"/>
      <point x="420" y="45"/>
      <point x="447" y="91"/>
      <point x="447" y="98" type="curve" smooth="yes"/>
      <point x="447" y="101"/>
      <point x="434" y="106"/>
      <point x="429" y="106" type="curve" smooth="yes"/>
      <point x="425" y="106"/>
      <point x="404" y="58"/>
      <point x="394" y="58" type="curve" smooth="yes"/>
      <point x="146" y="58" type="line" smooth="yes"/>
      <point x="141" y="58"/>
      <point x="139" y="58"/>
      <point x="139" y="59" type="curve" smooth="yes"/>
      <point x="139" y="61"/>
      <point x="148" y="68"/>
      <point x="167" y="79" type="curve" smooth="yes"/>
      <point x="227" y="114"/>
      <point x="364" y="195"/>
      <point x="364" y="280" type="curve" smooth="yes"/>
      <point x="364" y="351"/>
      <point x="322" y="394"/>
      <point x="239" y="394" type="curve" smooth="yes"/>
      <point x="152" y="394"/>
      <point x="72" y="304"/>
      <point x="72" y="294" type="curve" smooth="yes"/>
      <point x="72" y="287"/>
      <point x="84" y="278"/>
      <point x="90" y="278" type="curve" smooth="yes"/>
      <point x="95" y="278"/>
      <point x="145" y="359"/>
      <point x="211" y="359" type="curve" smooth="yes"/>
      <point x="265" y="359"/>
      <point x="295" y="317"/>
      <point x="295" y="266" type="curve" smooth="yes"/>
      <point x="295" y="218"/>
      <point x="258" y="176"/>
      <point x="222" y="144" type="curve" smooth="yes"/>
      <point x="167" y="95"/>
      <point x="96" y="56"/>
      <point x="66" y="28" type="curve"/>
      <point x="61" y="24"/>
      <point x="54" y="17"/>
      <point x="54" y="11" type="curve" smooth="yes"/>
    </contour>
  </outline>
</glyph>
<glyph name="three" format="1">
  <advance width="500"/>
  <unicode hex="0033"/>
  <outline>
    <contour>
      <point x="56" y="-162"/>
      <point x="97" y="-214"/>
      <point x="195" y="-214" type="curve" smooth="yes"/>
      <point x="304" y="-214"/>
      <point x="415" y="-128"/>
      <point x="415" y="-21" type="curve" smooth="yes"/>
      <point x="415" y="121"/>
      <point x="262" y="124"/>
      <point x="262" y="130" type="curve" smooth="yes"/>
      <point x="262" y="134"/>
      <point x="385" y="184"/>
      <point x="385" y="281" type="curve" smooth="yes"/>
      <point x="385" y="351"/>
      <point x="334" y="387"/>
      <point x="263" y="387" type="curve" smooth="yes"/>
      <point x="198" y="387"/>
      <point x="122" y="348"/>
      <point x="122" y="341" type="curve" smooth="yes"/>
      <point x="122" y="335"/>
      <point x="128" y="324"/>
      <point x="133" y="324" type="curve" smooth="yes"/>
      <point x="139" y="324"/>
      <point x="178" y="359"/>
      <point x="244" y="359" type="curve" smooth="yes"/>
      <point x="295" y="359"/>
      <point x="327" y="323"/>
      <point x="327" y="272" type="curve" smooth="yes"/>
      <point x="327" y="182"/>
      <point x="254" y="133"/>
      <point x="155" y="105" type="curve" smooth="yes"/>
      <point x="139" y="100"/>
      <point x="136" y="100"/>
      <point x="136" y="84" type="curve" smooth="yes"/>
      <point x="136" y="75"/>
      <point x="142" y="73"/>
      <point x="153" y="73" type="curve" smooth="yes"/>
      <point x="158" y="73"/>
      <point x="187" y="76"/>
      <point x="208" y="76" type="curve" smooth="yes"/>
      <point x="292" y="76"/>
      <point x="349" y="43"/>
      <point x="349" y="-35" type="curve" smooth="yes"/>
      <point x="349" y="-113"/>
      <point x="278" y="-189"/>
      <point x="205" y="-189" type="curve" smooth="yes"/>
      <point x="164" y="-189"/>
      <point x="136" y="-158"/>
      <point x="125" y="-145" type="curve" smooth="yes"/>
      <point x="116" y="-135"/>
      <point x="101" y="-134"/>
      <point x="91" y="-134" type="curve" smooth="yes"/>
      <point x="81" y="-134"/>
      <point x="56" y="-135"/>
      <point x="56" y="-146" type="curve" smooth="yes"/>
    </contour>
  </outline>
</glyph>
<glyph name="four" format="1">
  <advance width="500"/>
  <unicode hex="0034"/>
  <outline>
    <contour>
      <point x="46" y="1"/>
      <point x="56" y="0"/>
      <point x="64" y="0" type="curve" smooth="yes"/>
      <point x="253" y="0" type="line" smooth="yes"/>
      <point x="268" y="0"/>
      <point x="276" y="4"/>
      <point x="273" y="-11" type="curve" smooth="yes"/>
      <point x="239" y="-191" type="line" smooth="yes"/>
      <point x="236" y="-209"/>
      <point x="247" y="-213"/>
      <point x="253" y="-212" type="curve" smooth="yes"/>
      <point x="295" y="-204" type="line" smooth="yes"/>
      <point x="309" y="-201"/>
      <point x="310" y="-200"/>
      <point x="310" y="-193" type="curve" smooth="yes"/>
      <point x="310" y="-188"/>
      <point x="326" y="-76"/>
      <point x="333" y="-14" type="curve" smooth="yes"/>
      <point x="335" y="0"/>
      <point x="332" y="0"/>
      <point x="346" y="0" type="curve" smooth="yes"/>
      <point x="443" y="0" type="line" smooth="yes"/>
      <point x="455" y="0"/>
      <point x="455" y="0"/>
      <point x="455" y="10" type="curve" smooth="yes"/>
      <point x="455" y="44" type="line" smooth="yes"/>
      <point x="455" y="54"/>
      <point x="454" y="54"/>
      <point x="448" y="54" type="curve" smooth="yes"/>
      <point x="365" y="54" type="line" smooth="yes"/>
      <point x="351" y="54"/>
      <point x="347" y="54"/>
      <point x="350" y="72" type="curve" smooth="yes"/>
      <point x="400" y="368" type="line" smooth="yes"/>
      <point x="403" y="387"/>
      <point x="398" y="392"/>
      <point x="390" y="392" type="curve" smooth="yes"/>
      <point x="377" y="392"/>
      <point x="295" y="307"/>
      <point x="287" y="298" type="curve"/>
      <point x="230" y="239"/>
      <point x="177" y="187"/>
      <point x="124" y="124" type="curve" smooth="yes"/>
      <point x="114" y="112"/>
      <point x="100" y="99"/>
      <point x="90" y="86" type="curve" smooth="yes"/>
      <point x="67" y="56"/>
      <point x="46" y="23"/>
      <point x="46" y="8" type="curve" smooth="yes"/>
    </contour>
    <contour>
      <point x="102" y="66"/>
      <point x="109" y="75"/>
      <point x="119" y="85" type="curve" smooth="yes"/>
      <point x="316" y="295" type="line" smooth="yes"/>
      <point x="323" y="302"/>
      <point x="330" y="301"/>
      <point x="328" y="290" type="curve" smooth="yes"/>
      <point x="293" y="74" type="line" smooth="yes"/>
      <point x="290" y="56"/>
      <point x="292" y="54"/>
      <point x="274" y="54" type="curve" smooth="yes"/>
      <point x="127" y="54" type="line" smooth="yes"/>
      <point x="108" y="54"/>
      <point x="102" y="56"/>
      <point x="102" y="60" type="curve" smooth="yes"/>
    </contour>
  </outline>
</glyph>
<glyph name="five" format="1">
  <advance width="500"/>
  <unicode hex="0035"/>
  <outline>
    <contour>
      <point x="58" y="-208"/>
      <point x="61" y="-212"/>
      <point x="66" y="-212" type="curve" smooth="yes"/>
      <point x="185" y="-212"/>
      <point x="355" y="-130"/>
      <point x="355" y="9" type="curve" smooth="yes"/>
      <point x="355" y="149"/>
      <point x="162" y="207"/>
      <point x="162" y="222" type="curve" smooth="yes"/>
      <point x="162" y="229"/>
      <point x="179" y="280"/>
      <point x="196" y="315" type="curve" smooth="yes"/>
      <point x="200" y="323"/>
      <point x="214" y="323"/>
      <point x="224" y="322" type="curve" smooth="yes"/>
      <point x="303" y="312"/>
      <point x="373" y="300"/>
      <point x="386" y="300" type="curve" smooth="yes"/>
      <point x="401" y="300"/>
      <point x="401" y="305"/>
      <point x="406" y="319" type="curve" smooth="yes"/>
      <point x="415" y="343"/>
      <point x="431" y="381"/>
      <point x="431" y="387" type="curve" smooth="yes"/>
      <point x="431" y="391"/>
      <point x="418" y="395"/>
      <point x="411" y="395" type="curve" smooth="yes"/>
      <point x="408" y="395"/>
      <point x="405" y="383"/>
      <point x="399" y="371" type="curve" smooth="yes"/>
      <point x="394" y="361"/>
      <point x="389" y="363"/>
      <point x="373" y="363" type="curve" smooth="yes"/>
      <point x="362" y="363"/>
      <point x="213" y="378"/>
      <point x="205" y="378" type="curve" smooth="yes"/>
      <point x="199" y="378"/>
      <point x="192" y="378"/>
      <point x="190" y="372" type="curve" smooth="yes"/>
      <point x="165" y="292"/>
      <point x="123" y="194"/>
      <point x="123" y="180" type="curve" smooth="yes"/>
      <point x="123" y="153"/>
      <point x="293" y="106"/>
      <point x="293" y="-5" type="curve" smooth="yes"/>
      <point x="293" y="-136"/>
      <point x="168" y="-181"/>
      <point x="65" y="-189" type="curve"/>
      <point x="60" y="-189"/>
      <point x="58" y="-192"/>
      <point x="58" y="-199" type="curve" smooth="yes"/>
    </contour>
  </outline>
</glyph>
<glyph name="seven" format="1">
  <advance width="500"/>
  <unicode hex="0037"/>
  <outline>
    <contour>
      <point x="65" y="280"/>
      <point x="75" y="277"/>
      <point x="82" y="277" type="curve" smooth="yes"/>
      <point x="90" y="277"/>
      <point x="90" y="281"/>
      <point x="92" y="286" type="curve"/>
      <point x="105" y="326" type="line"/>
      <point x="107" y="333"/>
      <point x="160" y="335"/>
      <point x="190" y="335" type="curve" smooth="yes"/>
      <point x="383" y="335" type="line" smooth="yes"/>
      <point x="393" y="335"/>
      <point x="397" y="332"/>
      <point x="397" y="327" type="curve" smooth="yes"/>
      <point x="397" y="324"/>
      <point x="395" y="319"/>
      <point x="392" y="314" type="curve" smooth="yes"/>
      <point x="323" y="202"/>
      <point x="90" y="-128"/>
      <point x="90" y="-190" type="curve" smooth="yes"/>
      <point x="90" y="-201"/>
      <point x="107" y="-210"/>
      <point x="121" y="-210" type="curve" smooth="yes"/>
      <point x="127" y="-210"/>
      <point x="129" y="-206"/>
      <point x="133" y="-195" type="curve" smooth="yes"/>
      <point x="160" y="-122"/>
      <point x="204" y="-45"/>
      <point x="242" y="20" type="curve" smooth="yes"/>
      <point x="290" y="102"/>
      <point x="457" y="370"/>
      <point x="457" y="384" type="curve" smooth="yes"/>
      <point x="457" y="392"/>
      <point x="451" y="393"/>
      <point x="444" y="393" type="curve" smooth="yes"/>
      <point x="176" y="393" type="line" smooth="yes"/>
      <point x="147" y="393"/>
      <point x="125" y="393"/>
      <point x="125" y="395" type="curve" smooth="yes"/>
      <point x="125" y="402"/>
      <point x="127" y="409"/>
      <point x="127" y="415" type="curve" smooth="yes"/>
      <point x="127" y="423"/>
      <point x="119" y="424"/>
      <point x="110" y="424" type="curve" smooth="yes"/>
      <point x="103" y="424"/>
      <point x="100" y="418"/>
      <point x="98" y="404" type="curve" smooth="yes"/>
      <point x="87" y="342"/>
      <point x="65" y="296"/>
      <point x="65" y="286" type="curve" smooth="yes"/>
    </contour>
  </outline>
</glyph>
<glyph name="eight" format="1">
  <advance width="500"/>
  <unicode hex="0038"/>
  <outline>
    <contour>
      <point x="70" y="39"/>
      <point x="131" y="-3"/>
      <point x="218" y="-3" type="curve" smooth="yes"/>
      <point x="319" y="-3"/>
      <point x="400" y="60"/>
      <point x="400" y="150" type="curve" smooth="yes"/>
      <point x="400" y="259"/>
      <point x="289" y="338"/>
      <point x="289" y="344" type="curve" smooth="yes"/>
      <point x="289" y="352"/>
      <point x="420" y="423"/>
      <point x="420" y="527" type="curve" smooth="yes"/>
      <point x="420" y="613"/>
      <point x="364" y="661"/>
      <point x="283" y="661" type="curve" smooth="yes"/>
      <point x="181" y="661"/>
      <point x="111" y="594"/>
      <point x="111" y="500" type="curve" smooth="yes"/>
      <point x="111" y="406"/>
      <point x="211" y="334"/>
      <point x="211" y="329" type="curve" smooth="yes"/>
      <point x="211" y="321"/>
      <point x="70" y="251"/>
      <point x="70" y="130" type="curve" smooth="yes"/>
    </contour>
    <contour>
      <point x="124" y="245"/>
      <point x="216" y="315"/>
      <point x="225" y="315" type="curve" smooth="yes"/>
      <point x="231" y="315"/>
      <point x="341" y="220"/>
      <point x="341" y="140" type="curve" smooth="yes"/>
      <point x="341" y="79"/>
      <point x="293" y="22"/>
      <point x="227" y="22" type="curve" smooth="yes"/>
      <point x="174" y="22"/>
      <point x="124" y="69"/>
      <point x="124" y="145" type="curve" smooth="yes"/>
    </contour>
    <contour>
      <point x="164" y="582"/>
      <point x="200" y="638"/>
      <point x="269" y="638" type="curve" smooth="yes"/>
      <point x="332" y="638"/>
      <point x="371" y="588"/>
      <point x="371" y="525" type="curve" smooth="yes"/>
      <point x="371" y="434"/>
      <point x="282" y="359"/>
      <point x="271" y="359" type="curve" smooth="yes"/>
      <point x="264" y="359"/>
      <point x="164" y="454"/>
      <point x="164" y="534" type="curve" smooth="yes"/>
    </contour>
  </outline>
</glyph>
<glyph name="nine" format="1">
  <advance width="500"/>
  <unicode hex="0039"/>
  <outline>
    <contour>
      <point x="42" y="-193"/>
      <point x="45" y="-205"/>
      <point x="51" y="-205" type="curve" smooth="yes"/>
      <point x="58" y="-205"/>
      <point x="196" y="-165"/>
      <point x="305" y="-73" type="curve" smooth="yes"/>
      <point x="383" y="-7"/>
      <point x="445" y="95"/>
      <point x="445" y="203" type="curve" smooth="yes"/>
      <point x="445" y="315"/>
      <point x="391" y="394"/>
      <point x="296" y="394" type="curve" smooth="yes"/>
      <point x="188" y="394"/>
      <point x="88" y="314"/>
      <point x="88" y="192" type="curve" smooth="yes"/>
      <point x="88" y="91"/>
      <point x="143" y="25"/>
      <point x="226" y="25" type="curve" smooth="yes"/>
      <point x="251" y="25"/>
      <point x="278" y="31"/>
      <point x="300" y="38" type="curve" smooth="yes"/>
      <point x="310" y="41"/>
      <point x="329" y="50"/>
      <point x="329" y="46" type="curve" smooth="yes"/>
      <point x="329" y="42"/>
      <point x="322" y="29"/>
      <point x="309" y="14" type="curve" smooth="yes"/>
      <point x="246" y="-62"/>
      <point x="163" y="-141"/>
      <point x="74" y="-172" type="curve" smooth="yes"/>
      <point x="54" y="-179"/>
      <point x="42" y="-182"/>
      <point x="42" y="-185" type="curve" smooth="yes"/>
    </contour>
    <contour>
      <point x="147" y="263"/>
      <point x="201" y="368"/>
      <point x="295" y="368" type="curve" smooth="yes"/>
      <point x="348" y="368"/>
      <point x="387" y="323"/>
      <point x="387" y="240" type="curve" smooth="yes"/>
      <point x="387" y="165"/>
      <point x="362" y="80"/>
      <point x="327" y="65" type="curve" smooth="yes"/>
      <point x="306" y="56"/>
      <point x="284" y="52"/>
      <point x="253" y="52" type="curve" smooth="yes"/>
      <point x="179" y="52"/>
      <point x="147" y="104"/>
      <point x="147" y="173" type="curve" smooth="yes"/>
    </contour>
  </outline>
</glyph>
<glyph name="colon" format="1">
  <advance width="209"/>
  <unicode hex="003A"/>
  <outline>
    <contour>
      <point x="60" y="23"/>
      <point x="82" y="-8"/>
      <point x="110" y="-8" type="curve" smooth="yes"/>
      <point x="120" y="-8"/>
      <point x="150" y="8"/>
      <point x="150" y="43" type="curve" smooth="yes"/>
      <point x="150" y="63"/>
      <point x="124" y="90"/>
      <point x="106" y="90" type="curve" smooth="yes"/>
      <point x="87" y="90"/>
      <point x="60" y="64"/>
      <point x="60" y="38" type="curve" smooth="yes"/>
    </contour>
    <contour>
      <point x="89" y="298"/>
      <point x="111" y="267"/>
      <point x="139" y="267" type="curve" smooth="yes"/>
      <point x="149" y="267"/>
      <point x="179" y="283"/>
      <point x="179" y="318" type="curve" smooth="yes"/>
      <point x="179" y="338"/>
      <point x="153" y="365"/>
      <point x="135" y="365" type="curve" smooth="yes"/>
      <point x="116" y="365"/>
      <point x="89" y="339"/>
      <point x="89" y="313" type="curve" smooth="yes"/>
    </contour>
  </outline>
</glyph>
<glyph name="semicolon" format="1">
  <advance width="195"/>
  <unicode hex="003B"/>
  <outline>
    <contour>
      <point x="7" y="-134"/>
      <point x="18" y="-148"/>
      <point x="24" y="-148" type="curve" smooth="yes"/>
      <point x="29" y="-148"/>
      <point x="155" y="-47"/>
      <point x="155" y="16" type="curve" smooth="yes"/>
      <point x="155" y="65"/>
      <point x="110" y="96"/>
      <point x="98" y="96" type="curve" smooth="yes"/>
      <point x="81" y="96"/>
      <point x="45" y="76"/>
      <point x="45" y="68" type="curve" smooth="yes"/>
      <point x="45" y="62"/>
      <point x="67" y="44"/>
      <point x="83" y="24" type="curve" smooth="yes"/>
      <point x="93" y="11"/>
      <point x="98" y="0"/>
      <point x="98" y="-11" type="curve" smooth="yes"/>
      <point x="98" y="-42"/>
      <point x="67" y="-73"/>
      <point x="50" y="-90" type="curve" smooth="yes"/>
      <point x="28" y="-111"/>
      <point x="7" y="-125"/>
      <point x="7" y="-127" type="curve" smooth="yes"/>
    </contour>
    <contour>
      <point x="80" y="298"/>
      <point x="102" y="267"/>
      <point x="130" y="267" type="curve" smooth="yes"/>
      <point x="140" y="267"/>
      <point x="170" y="283"/>
      <point x="170" y="318" type="curve" smooth="yes"/>
      <point x="170" y="338"/>
      <point x="144" y="365"/>
      <point x="126" y="365" type="curve" smooth="yes"/>
      <point x="107" y="365"/>
      <point x="80" y="339"/>
      <point x="80" y="313" type="curve" smooth="yes"/>
    </contour>
  </outline>
</glyph>
<glyph name="less" format="1">
  <advance width="527"/>
  <unicode hex="003C"/>
  <outline>
    <contour>
      <point x="41" y="197"/>
      <point x="41" y="193"/>
      <point x="55" y="188" type="curve" smooth="yes"/>
      <point x="460" y="41"/>
      <point x="457" y="41"/>
      <point x="463" y="41" type="curve" smooth="yes"/>
      <point x="481" y="41"/>
      <point x="487" y="57"/>
      <point x="487" y="65" type="curve" smooth="yes"/>
      <point x="487" y="72"/>
      <point x="482" y="76"/>
      <point x="476" y="78" type="curve" smooth="yes"/>
      <point x="156" y="190" type="line" smooth="yes"/>
      <point x="136" y="197"/>
      <point x="114" y="203"/>
      <point x="114" y="208" type="curve" smooth="yes"/>
      <point x="114" y="213"/>
      <point x="137" y="222"/>
      <point x="156" y="229" type="curve" smooth="yes"/>
      <point x="471" y="340" type="line" smooth="yes"/>
      <point x="479" y="343"/>
      <point x="487" y="347"/>
      <point x="487" y="356" type="curve" smooth="yes"/>
      <point x="487" y="377"/>
      <point x="477" y="381"/>
      <point x="468" y="381" type="curve" smooth="yes"/>
      <point x="462" y="381"/>
      <point x="463" y="379"/>
      <point x="56" y="231" type="curve" smooth="yes"/>
      <point x="41" y="225"/>
      <point x="41" y="221"/>
      <point x="41" y="211" type="curve" smooth="yes"/>
    </contour>
  </outline>
</glyph>
<glyph name="equal" format="1">
  <advance width="527"/>
  <unicode hex="003D"/>
  <outline>
    <contour>
      <point x="31" y="117"/>
      <point x="30" y="110"/>
      <point x="48" y="110" type="curve" smooth="yes"/>
      <point x="475" y="110" type="line" smooth="yes"/>
      <point x="496" y="110"/>
      <point x="496" y="117"/>
      <point x="496" y="134" type="curve" smooth="yes"/>
      <point x="496" y="148"/>
      <point x="496" y="155"/>
      <point x="480" y="155" type="curve" smooth="yes"/>
      <point x="49" y="155" type="line" smooth="yes"/>
      <point x="31" y="155"/>
      <point x="31" y="147"/>
      <point x="31" y="134" type="curve" smooth="yes"/>
    </contour>
    <contour>
      <point x="31" y="273"/>
      <point x="30" y="266"/>
      <point x="48" y="266" type="curve" smooth="yes"/>
      <point x="475" y="266" type="line" smooth="yes"/>
      <point x="496" y="266"/>
      <point x="496" y="272"/>
      <point x="496" y="289" type="curve" smooth="yes"/>
      <point x="496" y="303"/>
      <point x="496" y="310"/>
      <point x="480" y="310" type="curve" smooth="yes"/>
      <point x="49" y="310" type="line" smooth="yes"/>
      <point x="31" y="310"/>
      <point x="31" y="303"/>
      <point x="31" y="290" type="curve" smooth="yes"/>
    </contour>
  </outline>
</glyph>
<glyph name="greater" format="1">
  <advance width="527"/>
  <unicode hex="003E"/>
  <outline>
    <contour>
      <point x="41" y="57"/>
      <point x="46" y="41"/>
      <point x="64" y="41" type="curve" smooth="yes"/>
      <point x="70" y="41"/>
      <point x="67" y="41"/>
      <point x="472" y="188" type="curve" smooth="yes"/>
      <point x="486" y="193"/>
      <point x="487" y="197"/>
      <point x="487" y="211" type="curve" smooth="yes"/>
      <point x="487" y="221"/>
      <point x="486" y="225"/>
      <point x="471" y="231" type="curve" smooth="yes"/>
      <point x="64" y="379"/>
      <point x="65" y="381"/>
      <point x="59" y="381" type="curve" smooth="yes"/>
      <point x="50" y="381"/>
      <point x="41" y="377"/>
      <point x="41" y="356" type="curve" smooth="yes"/>
      <point x="41" y="347"/>
      <point x="48" y="343"/>
      <point x="56" y="340" type="curve" smooth="yes"/>
      <point x="372" y="229" type="line" smooth="yes"/>
      <point x="391" y="222"/>
      <point x="414" y="213"/>
      <point x="414" y="208" type="curve" smooth="yes"/>
      <point x="414" y="203"/>
      <point x="392" y="197"/>
      <point x="372" y="190" type="curve" smooth="yes"/>
      <point x="51" y="78" type="line" smooth="yes"/>
      <point x="45" y="76"/>
      <point x="41" y="72"/>
      <point x="41" y="65" type="curve" smooth="yes"/>
    </contour>
  </outline>
</glyph>
<glyph name="question" format="1">
  <advance width="374"/>
  <unicode hex="003F"/>
  <outline>
    <contour>
      <point x="80" y="23"/>
      <point x="102" y="-8"/>
      <point x="130" y="-8" type="curve" smooth="yes"/>
      <point x="140" y="-8"/>
      <point x="170" y="8"/>
      <point x="170" y="43" type="curve" smooth="yes"/>
      <point x="170" y="63"/>
      <point x="144" y="90"/>
      <point x="126" y="90" type="curve" smooth="yes"/>
      <point x="107" y="90"/>
      <point x="80" y="64"/>
      <point x="80" y="38" type="curve" smooth="yes"/>
    </contour>
    <contour>
      <point x="84" y="166"/>
      <point x="127" y="126"/>
      <point x="132" y="126" type="curve" smooth="yes"/>
      <point x="137" y="126"/>
      <point x="146" y="136"/>
      <point x="146" y="139" type="curve" smooth="yes"/>
      <point x="146" y="143"/>
      <point x="118" y="166"/>
      <point x="118" y="192" type="curve" smooth="yes"/>
      <point x="118" y="220"/>
      <point x="166" y="259"/>
      <point x="185" y="278" type="curve" smooth="yes"/>
      <point x="221" y="314"/>
      <point x="249" y="339"/>
      <point x="290" y="385" type="curve" smooth="yes"/>
      <point x="320" y="419"/>
      <point x="339" y="435"/>
      <point x="339" y="501" type="curve" smooth="yes"/>
      <point x="339" y="553"/>
      <point x="311" y="609"/>
      <point x="267" y="638" type="curve" smooth="yes"/>
      <point x="253" y="647"/>
      <point x="232" y="657"/>
      <point x="177" y="657" type="curve" smooth="yes"/>
      <point x="160" y="657"/>
      <point x="131" y="655"/>
      <point x="113" y="652" type="curve" smooth="yes"/>
      <point x="99" y="650"/>
      <point x="94" y="648"/>
      <point x="95" y="636" type="curve" smooth="yes"/>
      <point x="96" y="617"/>
      <point x="94" y="597"/>
      <point x="107" y="597" type="curve" smooth="yes"/>
      <point x="116" y="597"/>
      <point x="165" y="600"/>
      <point x="187" y="600" type="curve" smooth="yes"/>
      <point x="223" y="600"/>
      <point x="254" y="600"/>
      <point x="276" y="586" type="curve" smooth="yes"/>
      <point x="295" y="574"/>
      <point x="313" y="544"/>
      <point x="313" y="515" type="curve" smooth="yes"/>
      <point x="313" y="460"/>
      <point x="217" y="383"/>
      <point x="149" y="315" type="curve" smooth="yes"/>
      <point x="112" y="278"/>
      <point x="84" y="244"/>
      <point x="84" y="206" type="curve" smooth="yes"/>
    </contour>
  </outline>
</glyph>
<glyph name="at" format="1">
  <advance width="795"/>
  <unicode hex="0040"/>
  <outline>
    <contour>
      <point x="50" y="-8"/>
      <point x="196" y="-113"/>
      <point x="353" y="-113" type="curve" smooth="yes"/>
      <point x="483" y="-113"/>
      <point x="606" y="-63"/>
      <point x="689" y="27" type="curve"/>
      <point x="692" y="30"/>
      <point x="693" y="34"/>
      <point x="693" y="38" type="curve" smooth="yes"/>
      <point x="693" y="41"/>
      <point x="688" y="52"/>
      <point x="679" y="52" type="curve" smooth="yes"/>
      <point x="676" y="52"/>
      <point x="667" y="45"/>
      <point x="666" y="44" type="curve"/>
      <point x="582" y="-34"/>
      <point x="493" y="-84"/>
      <point x="356" y="-84" type="curve" smooth="yes"/>
      <point x="214" y="-84"/>
      <point x="84" y="17"/>
      <point x="84" y="181" type="curve" smooth="yes"/>
      <point x="84" y="401"/>
      <point x="266" y="560"/>
      <point x="471" y="560" type="curve" smooth="yes"/>
      <point x="611" y="560"/>
      <point x="715" y="492"/>
      <point x="715" y="337" type="curve" smooth="yes"/>
      <point x="715" y="278"/>
      <point x="689" y="220"/>
      <point x="647" y="178" type="curve" smooth="yes"/>
      <point x="587" y="118"/>
      <point x="514" y="84"/>
      <point x="459" y="84" type="curve" smooth="yes"/>
      <point x="439" y="84"/>
      <point x="439" y="99"/>
      <point x="439" y="115" type="curve" smooth="yes"/>
      <point x="439" y="149"/>
      <point x="523" y="337"/>
      <point x="549" y="393" type="curve" smooth="yes"/>
      <point x="551" y="397"/>
      <point x="552" y="403"/>
      <point x="552" y="407" type="curve" smooth="yes"/>
      <point x="552" y="417"/>
      <point x="540" y="420"/>
      <point x="527" y="420" type="curve" smooth="yes"/>
      <point x="513" y="420"/>
      <point x="509" y="416"/>
      <point x="499" y="404" type="curve" smooth="yes"/>
      <point x="489" y="392"/>
      <point x="487" y="389"/>
      <point x="485" y="389" type="curve" smooth="yes"/>
      <point x="482" y="389"/>
      <point x="468" y="395"/>
      <point x="454" y="395" type="curve" smooth="yes"/>
      <point x="311" y="395"/>
      <point x="204" y="205"/>
      <point x="204" y="139" type="curve" smooth="yes"/>
      <point x="204" y="96"/>
      <point x="223" y="56"/>
      <point x="262" y="56" type="curve" smooth="yes"/>
      <point x="319" y="56"/>
      <point x="380" y="123"/>
      <point x="380" y="123" type="curve" smooth="yes"/>
      <point x="380" y="123"/>
      <point x="374" y="90"/>
      <point x="374" y="76" type="curve" smooth="yes"/>
      <point x="374" y="60"/>
      <point x="391" y="54"/>
      <point x="409" y="54" type="curve" smooth="yes"/>
      <point x="556" y="54"/>
      <point x="745" y="152"/>
      <point x="745" y="344" type="curve" smooth="yes"/>
      <point x="745" y="524"/>
      <point x="610" y="588"/>
      <point x="468" y="588" type="curve" smooth="yes"/>
      <point x="260" y="588"/>
      <point x="50" y="415"/>
      <point x="50" y="187" type="curve" smooth="yes"/>
    </contour>
    <contour>
      <point x="271" y="256"/>
      <point x="378" y="374"/>
      <point x="428" y="374" type="curve" smooth="yes"/>
      <point x="443" y="374"/>
      <point x="460" y="365"/>
      <point x="460" y="350" type="curve" smooth="yes"/>
      <point x="460" y="323"/>
      <point x="382" y="101"/>
      <point x="313" y="101" type="curve" smooth="yes"/>
      <point x="287" y="101"/>
      <point x="271" y="124"/>
      <point x="271" y="147" type="curve" smooth="yes"/>
    </contour>
  </outline>
</glyph>
<glyph name="B" format="1">
  <advance width="571"/>
  <unicode hex="0042"/>
  <outline>
    <contour>
      <point x="20" y="-2"/>
      <point x="21" y="-3"/>
      <point x="34" y="-3" type="curve" smooth="yes"/>
      <point x="57" y="-3"/>
      <point x="107" y="0"/>
      <point x="137" y="0" type="curve" smooth="yes"/>
      <point x="167" y="0"/>
      <point x="214" y="-3"/>
      <point x="237" y="-3" type="curve" smooth="yes"/>
      <point x="348" y="-3"/>
      <point x="526" y="14"/>
      <point x="526" y="165" type="curve" smooth="yes"/>
      <point x="526" y="330"/>
      <point x="328" y="334"/>
      <point x="328" y="337" type="curve" smooth="yes"/>
      <point x="328" y="339"/>
      <point x="521" y="374"/>
      <point x="521" y="516" type="curve" smooth="yes"/>
      <point x="521" y="632"/>
      <point x="428" y="665"/>
      <point x="323" y="665" type="curve" smooth="yes"/>
      <point x="310" y="665"/>
      <point x="241" y="662"/>
      <point x="213" y="662" type="curve" smooth="yes"/>
      <point x="178" y="662"/>
      <point x="98" y="665"/>
      <point x="91" y="665" type="curve" smooth="yes"/>
      <point x="83" y="665"/>
      <point x="79" y="663"/>
      <point x="79" y="651" type="curve" smooth="yes"/>
      <point x="79" y="636"/>
      <point x="86" y="636"/>
      <point x="98" y="636" type="curve" smooth="yes"/>
      <point x="153" y="636" type="line" smooth="yes"/>
      <point x="163" y="636"/>
      <point x="164" y="634"/>
      <point x="163" y="622" type="curve" smooth="yes"/>
      <point x="159" y="541"/>
      <point x="81" y="27"/>
      <point x="81" y="27" type="curve" smooth="yes"/>
      <point x="38" y="27" type="line" smooth="yes"/>
      <point x="22" y="27"/>
      <point x="20" y="27"/>
      <point x="20" y="15" type="curve" smooth="yes"/>
    </contour>
    <contour>
      <point x="166" y="51"/>
      <point x="166" y="55"/>
      <point x="167" y="60" type="curve"/>
      <point x="176" y="131"/>
      <point x="199" y="297"/>
      <point x="202" y="311" type="curve" smooth="yes"/>
      <point x="204" y="322"/>
      <point x="206" y="323"/>
      <point x="231" y="323" type="curve" smooth="yes"/>
      <point x="262" y="323" type="line" smooth="yes"/>
      <point x="363" y="323"/>
      <point x="444" y="281"/>
      <point x="444" y="181" type="curve" smooth="yes"/>
      <point x="444" y="76"/>
      <point x="362" y="30"/>
      <point x="245" y="30" type="curve" smooth="yes"/>
      <point x="230" y="30"/>
      <point x="214" y="30"/>
      <point x="200" y="31" type="curve" smooth="yes"/>
      <point x="174" y="33"/>
      <point x="166" y="33"/>
      <point x="166" y="48" type="curve" smooth="yes"/>
    </contour>
    <contour>
      <point x="212" y="393"/>
      <point x="232" y="540"/>
      <point x="243" y="606" type="curve" smooth="yes"/>
      <point x="248" y="634"/>
      <point x="255" y="637"/>
      <point x="275" y="637" type="curve" smooth="yes"/>
      <point x="291" y="637" type="line" smooth="yes"/>
      <point x="383" y="637"/>
      <point x="442" y="583"/>
      <point x="442" y="501" type="curve" smooth="yes"/>
      <point x="442" y="427"/>
      <point x="393" y="386"/>
      <point x="342" y="360" type="curve" smooth="yes"/>
      <point x="324" y="351"/>
      <point x="309" y="343"/>
      <point x="287" y="343" type="curve" smooth="yes"/>
      <point x="283" y="343"/>
      <point x="257" y="344"/>
      <point x="236" y="344" type="curve" smooth="yes"/>
      <point x="220" y="344" type="line" smooth="yes"/>
      <point x="204" y="344"/>
      <point x="206" y="348"/>
      <point x="208" y="364" type="curve" smooth="yes"/>
    </contour>
  </outline>
</glyph>
<glyph name="C" format="1">
  <advance width="686"/>
  <unicode hex="0043"/>
  <outline>
    <contour>
      <point x="35" y="64"/>
      <point x="198" y="-14"/>
      <point x="360" y="-14" type="curve" smooth="yes"/>
      <point x="455" y="-14"/>
      <point x="577" y="42"/>
      <point x="583" y="62" type="curve" smooth="yes"/>
      <point x="604" y="132"/>
      <point x="616" y="173"/>
      <point x="616" y="178" type="curve" smooth="yes"/>
      <point x="616" y="183"/>
      <point x="608" y="187"/>
      <point x="599" y="189" type="curve" smooth="yes"/>
      <point x="586" y="192"/>
      <point x="580" y="193"/>
      <point x="576" y="180" type="curve" smooth="yes"/>
      <point x="570" y="158"/>
      <point x="562" y="128"/>
      <point x="551" y="96" type="curve" smooth="yes"/>
      <point x="546" y="81"/>
      <point x="470" y="20"/>
      <point x="367" y="20" type="curve" smooth="yes"/>
      <point x="234" y="20"/>
      <point x="125" y="119"/>
      <point x="125" y="288" type="curve" smooth="yes"/>
      <point x="125" y="447"/>
      <point x="240" y="643"/>
      <point x="397" y="643" type="curve" smooth="yes"/>
      <point x="504" y="643"/>
      <point x="603" y="544"/>
      <point x="603" y="538" type="curve" smooth="yes"/>
      <point x="603" y="529"/>
      <point x="580" y="445"/>
      <point x="580" y="441" type="curve" smooth="yes"/>
      <point x="580" y="437"/>
      <point x="590" y="430"/>
      <point x="603" y="430" type="curve" smooth="yes"/>
      <point x="608" y="430"/>
      <point x="615" y="429"/>
      <point x="616" y="435" type="curve" smooth="yes"/>
      <point x="621" y="461"/>
      <point x="651" y="608"/>
      <point x="651" y="614" type="curve" smooth="yes"/>
      <point x="651" y="620"/>
      <point x="631" y="625"/>
      <point x="622" y="625" type="curve" smooth="yes"/>
      <point x="620" y="625"/>
      <point x="612" y="591"/>
      <point x="610" y="584" type="curve"/>
      <point x="566" y="632"/>
      <point x="484" y="671"/>
      <point x="398" y="671" type="curve" smooth="yes"/>
      <point x="206" y="671"/>
      <point x="35" y="508"/>
      <point x="35" y="291" type="curve" smooth="yes"/>
    </contour>
  </outline>
</glyph>
<glyph name="E" format="1">
  <advance width="579"/>
  <unicode hex="0045"/>
  <outline>
    <contour>
      <point x="20" y="-2"/>
      <point x="21" y="-3"/>
      <point x="34" y="-3" type="curve" smooth="yes"/>
      <point x="57" y="-3"/>
      <point x="107" y="0"/>
      <point x="137" y="0" type="curve" smooth="yes"/>
      <point x="167" y="0"/>
      <point x="477" y="-3"/>
      <point x="500" y="-3" type="curve" smooth="yes"/>
      <point x="510" y="-3"/>
      <point x="514" y="-1"/>
      <point x="517" y="8" type="curve" smooth="yes"/>
      <point x="538" y="71"/>
      <point x="559" y="121"/>
      <point x="559" y="132" type="curve" smooth="yes"/>
      <point x="559" y="138"/>
      <point x="550" y="143"/>
      <point x="542" y="143" type="curve" smooth="yes"/>
      <point x="534" y="143"/>
      <point x="530" y="139"/>
      <point x="528" y="134" type="curve" smooth="yes"/>
      <point x="515" y="103"/>
      <point x="498" y="37"/>
      <point x="490" y="37" type="curve" smooth="yes"/>
      <point x="490" y="37"/>
      <point x="197" y="30"/>
      <point x="171" y="30" type="curve" smooth="yes"/>
      <point x="166" y="30"/>
      <point x="164" y="32"/>
      <point x="164" y="39" type="curve"/>
      <point x="169" y="83"/>
      <point x="200" y="299"/>
      <point x="203" y="315" type="curve" smooth="yes"/>
      <point x="205" y="325"/>
      <point x="208" y="325"/>
      <point x="223" y="325" type="curve" smooth="yes"/>
      <point x="374" y="325" type="line" smooth="yes"/>
      <point x="416" y="325"/>
      <point x="424" y="321"/>
      <point x="424" y="311" type="curve" smooth="yes"/>
      <point x="424" y="307"/>
      <point x="415" y="262"/>
      <point x="412" y="244" type="curve"/>
      <point x="412" y="238"/>
      <point x="421" y="236"/>
      <point x="429" y="236" type="curve" smooth="yes"/>
      <point x="436" y="236"/>
      <point x="441" y="238"/>
      <point x="442" y="243" type="curve"/>
      <point x="444" y="256"/>
      <point x="451" y="300"/>
      <point x="457" y="332" type="curve" smooth="yes"/>
      <point x="464" y="370"/>
      <point x="474" y="410"/>
      <point x="474" y="419" type="curve" smooth="yes"/>
      <point x="474" y="424"/>
      <point x="468" y="425"/>
      <point x="461" y="425" type="curve" smooth="yes"/>
      <point x="453" y="425"/>
      <point x="446" y="424"/>
      <point x="445" y="418" type="curve"/>
      <point x="434" y="365" type="line"/>
      <point x="432" y="352"/>
      <point x="406" y="352"/>
      <point x="387" y="352" type="curve" smooth="yes"/>
      <point x="223" y="352" type="line" smooth="yes"/>
      <point x="205" y="352"/>
      <point x="207" y="354"/>
      <point x="209" y="369" type="curve" smooth="yes"/>
      <point x="218" y="436"/>
      <point x="245" y="638"/>
      <point x="250" y="638" type="curve" smooth="yes"/>
      <point x="361" y="638"/>
      <point x="513" y="635"/>
      <point x="513" y="631" type="curve" smooth="yes"/>
      <point x="513" y="625"/>
      <point x="507" y="563"/>
      <point x="507" y="558" type="curve" smooth="yes"/>
      <point x="507" y="548"/>
      <point x="510" y="544"/>
      <point x="522" y="544" type="curve" smooth="yes"/>
      <point x="536" y="544"/>
      <point x="538" y="546"/>
      <point x="538" y="554" type="curve" smooth="yes"/>
      <point x="540" y="634"/>
      <point x="547" y="660"/>
      <point x="547" y="679" type="curve" smooth="yes"/>
      <point x="547" y="689"/>
      <point x="544" y="690"/>
      <point x="530" y="690" type="curve" smooth="yes"/>
      <point x="522" y="690"/>
      <point x="518" y="688"/>
      <point x="517" y="678" type="curve"/>
      <point x="515" y="666"/>
      <point x="489" y="665"/>
      <point x="422" y="665" type="curve" smooth="yes"/>
      <point x="379" y="665"/>
      <point x="266" y="662"/>
      <point x="213" y="662" type="curve" smooth="yes"/>
      <point x="178" y="662"/>
      <point x="106" y="665"/>
      <point x="99" y="665" type="curve" smooth="yes"/>
      <point x="91" y="665"/>
      <point x="87" y="663"/>
      <point x="87" y="651" type="curve" smooth="yes"/>
      <point x="87" y="636"/>
      <point x="94" y="636"/>
      <point x="106" y="636" type="curve" smooth="yes"/>
      <point x="161" y="636" type="line" smooth="yes"/>
      <point x="162" y="636"/>
      <point x="164" y="633"/>
      <point x="164" y="626" type="curve" smooth="yes"/>
      <point x="164" y="546"/>
      <point x="81" y="27"/>
      <point x="81" y="27" type="curve" smooth="yes"/>
      <point x="38" y="27" type="line" smooth="yes"/>
      <point x="22" y="27"/>
      <point x="20" y="27"/>
      <point x="20" y="15" type="curve" smooth="yes"/>
    </contour>
  </outline>
</glyph>
<glyph name="F" format="1">
  <advance width="541"/>
  <unicode hex="0046"/>
  <outline>
    <contour>
      <point x="20" y="-2"/>
      <point x="21" y="-3"/>
      <point x="34" y="-3" type="curve" smooth="yes"/>
      <point x="57" y="-3"/>
      <point x="107" y="0"/>
      <point x="137" y="0" type="curve" smooth="yes"/>
      <point x="167" y="0"/>
      <point x="214" y="-3"/>
      <point x="237" y="-3" type="curve" smooth="yes"/>
      <point x="247" y="-3"/>
      <point x="248" y="-1"/>
      <point x="248" y="14" type="curve" smooth="yes"/>
      <point x="248" y="26"/>
      <point x="248" y="27"/>
      <point x="237" y="27" type="curve" smooth="yes"/>
      <point x="172" y="27" type="line" smooth="yes"/>
      <point x="166" y="27"/>
      <point x="163" y="30"/>
      <point x="164" y="36" type="curve"/>
      <point x="169" y="80"/>
      <point x="200" y="299"/>
      <point x="203" y="315" type="curve" smooth="yes"/>
      <point x="205" y="325"/>
      <point x="208" y="325"/>
      <point x="223" y="325" type="curve" smooth="yes"/>
      <point x="366" y="325" type="line" smooth="yes"/>
      <point x="408" y="325"/>
      <point x="416" y="321"/>
      <point x="416" y="311" type="curve" smooth="yes"/>
      <point x="416" y="307"/>
      <point x="410" y="272"/>
      <point x="407" y="254" type="curve"/>
      <point x="407" y="248"/>
      <point x="416" y="246"/>
      <point x="424" y="246" type="curve" smooth="yes"/>
      <point x="431" y="246"/>
      <point x="436" y="248"/>
      <point x="437" y="253" type="curve"/>
      <point x="439" y="266"/>
      <point x="443" y="300"/>
      <point x="449" y="332" type="curve" smooth="yes"/>
      <point x="456" y="370"/>
      <point x="463" y="400"/>
      <point x="463" y="409" type="curve" smooth="yes"/>
      <point x="463" y="414"/>
      <point x="457" y="415"/>
      <point x="450" y="415" type="curve" smooth="yes"/>
      <point x="442" y="415"/>
      <point x="435" y="414"/>
      <point x="434" y="408" type="curve" smooth="yes"/>
      <point x="426" y="365" type="line" smooth="yes"/>
      <point x="424" y="352"/>
      <point x="398" y="352"/>
      <point x="379" y="352" type="curve" smooth="yes"/>
      <point x="223" y="352" type="line" smooth="yes"/>
      <point x="207" y="352"/>
      <point x="207" y="352"/>
      <point x="209" y="368" type="curve" smooth="yes"/>
      <point x="214" y="405"/>
      <point x="245" y="638"/>
      <point x="250" y="638" type="curve" smooth="yes"/>
      <point x="361" y="638"/>
      <point x="487" y="635"/>
      <point x="487" y="631" type="curve" smooth="yes"/>
      <point x="487" y="625"/>
      <point x="481" y="563"/>
      <point x="481" y="558" type="curve" smooth="yes"/>
      <point x="481" y="548"/>
      <point x="484" y="544"/>
      <point x="496" y="544" type="curve" smooth="yes"/>
      <point x="510" y="544"/>
      <point x="512" y="546"/>
      <point x="512" y="554" type="curve" smooth="yes"/>
      <point x="514" y="634"/>
      <point x="521" y="660"/>
      <point x="521" y="679" type="curve" smooth="yes"/>
      <point x="521" y="689"/>
      <point x="518" y="690"/>
      <point x="504" y="690" type="curve" smooth="yes"/>
      <point x="496" y="690"/>
      <point x="492" y="688"/>
      <point x="491" y="678" type="curve"/>
      <point x="489" y="666"/>
      <point x="489" y="665"/>
      <point x="422" y="665" type="curve" smooth="yes"/>
      <point x="379" y="665"/>
      <point x="266" y="662"/>
      <point x="213" y="662" type="curve" smooth="yes"/>
      <point x="178" y="662"/>
      <point x="106" y="665"/>
      <point x="99" y="665" type="curve" smooth="yes"/>
      <point x="91" y="665"/>
      <point x="87" y="663"/>
      <point x="87" y="651" type="curve" smooth="yes"/>
      <point x="87" y="636"/>
      <point x="94" y="636"/>
      <point x="106" y="636" type="curve" smooth="yes"/>
      <point x="161" y="636" type="line" smooth="yes"/>
      <point x="162" y="636"/>
      <point x="164" y="633"/>
      <point x="164" y="626" type="curve" smooth="yes"/>
      <point x="164" y="546"/>
      <point x="81" y="27"/>
      <point x="81" y="27" type="curve" smooth="yes"/>
      <point x="38" y="27" type="line" smooth="yes"/>
      <point x="22" y="27"/>
      <point x="20" y="27"/>
      <point x="20" y="15" type="curve" smooth="yes"/>
    </contour>
  </outline>
</glyph>
<glyph name="J" format="1">
  <advance width="365"/>
  <unicode hex="004A"/>
  <outline>
    <contour>
      <point x="-58" y="-202"/>
      <point x="-28" y="-212"/>
      <point x="-5" y="-212" type="curve" smooth="yes"/>
      <point x="41" y="-212"/>
      <point x="75" y="-179"/>
      <point x="104" y="-148" type="curve" smooth="yes"/>
      <point x="182" y="-65"/>
      <point x="192" y="45"/>
      <point x="203" y="130" type="curve" smooth="yes"/>
      <point x="214" y="210"/>
      <point x="265" y="639"/>
      <point x="277" y="639" type="curve" smooth="yes"/>
      <point x="327" y="639" type="line" smooth="yes"/>
      <point x="343" y="639"/>
      <point x="345" y="639"/>
      <point x="345" y="651" type="curve" smooth="yes"/>
      <point x="345" y="668"/>
      <point x="344" y="669"/>
      <point x="331" y="669" type="curve" smooth="yes"/>
      <point x="308" y="669"/>
      <point x="262" y="666"/>
      <point x="232" y="666" type="curve" smooth="yes"/>
      <point x="202" y="666"/>
      <point x="125" y="669"/>
      <point x="109" y="669" type="curve" smooth="yes"/>
      <point x="96" y="669"/>
      <point x="89" y="669"/>
      <point x="89" y="654" type="curve" smooth="yes"/>
      <point x="89" y="639"/>
      <point x="97" y="639"/>
      <point x="109" y="639" type="curve" smooth="yes"/>
      <point x="177" y="639" type="line" smooth="yes"/>
      <point x="187" y="639"/>
      <point x="187" y="631"/>
      <point x="187" y="621" type="curve" smooth="yes"/>
      <point x="187" y="604"/>
      <point x="134" y="239"/>
      <point x="109" y="-5" type="curve" smooth="yes"/>
      <point x="103" y="-62"/>
      <point x="99" y="-145"/>
      <point x="61" y="-145" type="curve" smooth="yes"/>
      <point x="40" y="-145"/>
      <point x="25" y="-124"/>
      <point x="9" y="-124" type="curve" smooth="yes"/>
      <point x="2" y="-124"/>
      <point x="-58" y="-153"/>
      <point x="-58" y="-188" type="curve" smooth="yes"/>
    </contour>
  </outline>
</glyph>
<glyph name="K" format="1">
  <advance width="656"/>
  <unicode hex="004B"/>
  <outline>
    <contour>
      <point x="20" y="0"/>
      <point x="21" y="-3"/>
      <point x="34" y="-3" type="curve" smooth="yes"/>
      <point x="57" y="-3"/>
      <point x="86" y="0"/>
      <point x="116" y="0" type="curve" smooth="yes"/>
      <point x="146" y="0"/>
      <point x="206" y="-3"/>
      <point x="229" y="-3" type="curve" smooth="yes"/>
      <point x="239" y="-3"/>
      <point x="240" y="-1"/>
      <point x="240" y="14" type="curve" smooth="yes"/>
      <point x="240" y="26"/>
      <point x="240" y="27"/>
      <point x="229" y="27" type="curve" smooth="yes"/>
      <point x="160" y="27" type="line" smooth="yes"/>
      <point x="159" y="27"/>
      <point x="158" y="32"/>
      <point x="158" y="38" type="curve" smooth="yes"/>
      <point x="158" y="70"/>
      <point x="182" y="214"/>
      <point x="195" y="310" type="curve"/>
      <point x="197" y="321"/>
      <point x="202" y="320"/>
      <point x="211" y="320" type="curve" smooth="yes"/>
      <point x="257" y="320" type="line" smooth="yes"/>
      <point x="266" y="320"/>
      <point x="413" y="111"/>
      <point x="453" y="54" type="curve" smooth="yes"/>
      <point x="459" y="46"/>
      <point x="465" y="39"/>
      <point x="465" y="34" type="curve" smooth="yes"/>
      <point x="465" y="30"/>
      <point x="460" y="27"/>
      <point x="445" y="27" type="curve" smooth="yes"/>
      <point x="437" y="27" type="line" smooth="yes"/>
      <point x="421" y="27"/>
      <point x="419" y="27"/>
      <point x="419" y="15" type="curve" smooth="yes"/>
      <point x="419" y="-2"/>
      <point x="420" y="-3"/>
      <point x="433" y="-3" type="curve" smooth="yes"/>
      <point x="456" y="-3"/>
      <point x="481" y="0"/>
      <point x="511" y="0" type="curve" smooth="yes"/>
      <point x="541" y="0"/>
      <point x="602" y="-3"/>
      <point x="625" y="-3" type="curve" smooth="yes"/>
      <point x="635" y="-3"/>
      <point x="636" y="-1"/>
      <point x="636" y="14" type="curve" smooth="yes"/>
      <point x="636" y="26"/>
      <point x="636" y="27"/>
      <point x="625" y="27" type="curve" smooth="yes"/>
      <point x="597" y="27" type="line" smooth="yes"/>
      <point x="583" y="27"/>
      <point x="570" y="33"/>
      <point x="562" y="44" type="curve" smooth="yes"/>
      <point x="479" y="155"/>
      <point x="391" y="285"/>
      <point x="323" y="347" type="curve"/>
      <point x="318" y="352"/>
      <point x="314" y="356"/>
      <point x="314" y="359" type="curve" smooth="yes"/>
      <point x="314" y="362"/>
      <point x="323" y="369"/>
      <point x="331" y="378" type="curve" smooth="yes"/>
      <point x="377" y="429"/>
      <point x="485" y="553"/>
      <point x="549" y="639" type="curve"/>
      <point x="607" y="639" type="line" smooth="yes"/>
      <point x="623" y="639"/>
      <point x="625" y="639"/>
      <point x="625" y="651" type="curve" smooth="yes"/>
      <point x="625" y="668"/>
      <point x="624" y="669"/>
      <point x="611" y="669" type="curve" smooth="yes"/>
      <point x="588" y="669"/>
      <point x="561" y="666"/>
      <point x="531" y="666" type="curve" smooth="yes"/>
      <point x="501" y="666"/>
      <point x="478" y="669"/>
      <point x="462" y="669" type="curve" smooth="yes"/>
      <point x="449" y="669"/>
      <point x="443" y="669"/>
      <point x="443" y="654" type="curve" smooth="yes"/>
      <point x="443" y="639"/>
      <point x="450" y="639"/>
      <point x="462" y="639" type="curve" smooth="yes"/>
      <point x="483" y="639" type="line" smooth="yes"/>
      <point x="494" y="639"/>
      <point x="498" y="637"/>
      <point x="498" y="634" type="curve" smooth="yes"/>
      <point x="498" y="630"/>
      <point x="492" y="624"/>
      <point x="488" y="618" type="curve"/>
      <point x="444" y="557"/>
      <point x="277" y="338"/>
      <point x="265" y="338" type="curve" smooth="yes"/>
      <point x="215" y="338" type="line" smooth="yes"/>
      <point x="206" y="338"/>
      <point x="201" y="346"/>
      <point x="202" y="358" type="curve" smooth="yes"/>
      <point x="203" y="374"/>
      <point x="244" y="639"/>
      <point x="260" y="639" type="curve" smooth="yes"/>
      <point x="295" y="639" type="line" smooth="yes"/>
      <point x="311" y="639"/>
      <point x="313" y="639"/>
      <point x="313" y="651" type="curve" smooth="yes"/>
      <point x="313" y="668"/>
      <point x="312" y="669"/>
      <point x="299" y="669" type="curve" smooth="yes"/>
      <point x="276" y="669"/>
      <point x="238" y="666"/>
      <point x="208" y="666" type="curve" smooth="yes"/>
      <point x="178" y="666"/>
      <point x="122" y="669"/>
      <point x="106" y="669" type="curve" smooth="yes"/>
      <point x="93" y="669"/>
      <point x="87" y="669"/>
      <point x="87" y="654" type="curve" smooth="yes"/>
      <point x="87" y="640"/>
      <point x="92" y="639"/>
      <point x="99" y="639" type="curve" smooth="yes"/>
      <point x="156" y="639" type="line" smooth="yes"/>
      <point x="163" y="639"/>
      <point x="165" y="633"/>
      <point x="165" y="623" type="curve" smooth="yes"/>
      <point x="165" y="585"/>
      <point x="81" y="27"/>
      <point x="71" y="27" type="curve" smooth="yes"/>
      <point x="38" y="27" type="line" smooth="yes"/>
      <point x="22" y="27"/>
      <point x="20" y="25"/>
      <point x="20" y="13" type="curve" smooth="yes"/>
    </contour>
  </outline>
</glyph>
<glyph name="L" format="1">
  <advance width="586"/>
  <unicode hex="004C"/>
  <outline>
    <contour>
      <point x="20" y="-2"/>
      <point x="20" y="-3"/>
      <point x="33" y="-3" type="curve" smooth="yes"/>
      <point x="56" y="-3"/>
      <point x="103" y="0"/>
      <point x="133" y="0" type="curve" smooth="yes"/>
      <point x="163" y="0"/>
      <point x="486" y="-3"/>
      <point x="509" y="-3" type="curve" smooth="yes"/>
      <point x="519" y="-3"/>
      <point x="527" y="-1"/>
      <point x="529" y="8" type="curve" smooth="yes"/>
      <point x="547" y="78"/>
      <point x="566" y="127"/>
      <point x="566" y="135" type="curve" smooth="yes"/>
      <point x="566" y="141"/>
      <point x="555" y="145"/>
      <point x="545" y="145" type="curve" smooth="yes"/>
      <point x="539" y="145"/>
      <point x="536" y="142"/>
      <point x="534" y="137" type="curve"/>
      <point x="509" y="60" type="line"/>
      <point x="503" y="39"/>
      <point x="502" y="38"/>
      <point x="486" y="37" type="curve"/>
      <point x="476" y="36"/>
      <point x="304" y="31"/>
      <point x="195" y="31" type="curve" smooth="yes"/>
      <point x="182" y="31"/>
      <point x="178" y="40"/>
      <point x="178" y="53" type="curve" smooth="yes"/>
      <point x="178" y="66"/>
      <point x="255" y="638"/>
      <point x="255" y="639" type="curve"/>
      <point x="317" y="639" type="line" smooth="yes"/>
      <point x="333" y="639"/>
      <point x="335" y="642"/>
      <point x="335" y="654" type="curve" smooth="yes"/>
      <point x="335" y="668"/>
      <point x="334" y="669"/>
      <point x="318" y="669" type="curve" smooth="yes"/>
      <point x="295" y="669"/>
      <point x="238" y="666"/>
      <point x="208" y="666" type="curve" smooth="yes"/>
      <point x="178" y="666"/>
      <point x="126" y="669"/>
      <point x="110" y="669" type="curve" smooth="yes"/>
      <point x="94" y="669"/>
      <point x="90" y="668"/>
      <point x="90" y="654" type="curve" smooth="yes"/>
      <point x="90" y="640"/>
      <point x="93" y="639"/>
      <point x="106" y="639" type="curve" smooth="yes"/>
      <point x="164" y="639" type="line" smooth="yes"/>
      <point x="166" y="639"/>
      <point x="166" y="635"/>
      <point x="166" y="626" type="curve" smooth="yes"/>
      <point x="166" y="594"/>
      <point x="91" y="27"/>
      <point x="89" y="27" type="curve" smooth="yes"/>
      <point x="37" y="27" type="line" smooth="yes"/>
      <point x="21" y="27"/>
      <point x="20" y="27"/>
      <point x="20" y="15" type="curve" smooth="yes"/>
    </contour>
  </outline>
</glyph>
<glyph name="M" format="1">
  <advance width="883"/>
  <unicode hex="004D"/>
  <outline>
    <contour>
      <point x="20" y="-2"/>
      <point x="21" y="-3"/>
      <point x="34" y="-3" type="curve" smooth="yes"/>
      <point x="48" y="-3"/>
      <point x="76" y="0"/>
      <point x="106" y="0" type="curve" smooth="yes"/>
      <point x="136" y="0"/>
      <point x="184" y="-3"/>
      <point x="194" y="-3" type="curve" smooth="yes"/>
      <point x="204" y="-3"/>
      <point x="205" y="-1"/>
      <point x="205" y="14" type="curve" smooth="yes"/>
      <point x="205" y="26"/>
      <point x="205" y="27"/>
      <point x="194" y="27" type="curve" smooth="yes"/>
      <point x="129" y="27" type="line"/>
      <point x="129" y="49"/>
      <point x="161" y="228"/>
      <point x="192" y="377" type="curve" smooth="yes"/>
      <point x="208" y="455"/>
      <point x="224" y="525"/>
      <point x="248" y="617" type="curve"/>
      <point x="248" y="617"/>
      <point x="333" y="198"/>
      <point x="359" y="36" type="curve" smooth="yes"/>
      <point x="362" y="18"/>
      <point x="370" y="15"/>
      <point x="375" y="15" type="curve" smooth="yes"/>
      <point x="379" y="15"/>
      <point x="382" y="16"/>
      <point x="391" y="27" type="curve" smooth="yes"/>
      <point x="427" y="74"/>
      <point x="445" y="79"/>
      <point x="466" y="124" type="curve" smooth="yes"/>
      <point x="566" y="336"/>
      <point x="630" y="451"/>
      <point x="719" y="621" type="curve"/>
      <point x="719" y="621"/>
      <point x="660" y="27"/>
      <point x="639" y="27" type="curve" smooth="yes"/>
      <point x="600" y="27" type="line" smooth="yes"/>
      <point x="584" y="27"/>
      <point x="582" y="27"/>
      <point x="582" y="15" type="curve" smooth="yes"/>
      <point x="582" y="-2"/>
      <point x="583" y="-3"/>
      <point x="596" y="-3" type="curve" smooth="yes"/>
      <point x="605" y="-3"/>
      <point x="662" y="0"/>
      <point x="692" y="0" type="curve" smooth="yes"/>
      <point x="722" y="0"/>
      <point x="791" y="-3"/>
      <point x="814" y="-3" type="curve" smooth="yes"/>
      <point x="824" y="-3"/>
      <point x="825" y="-1"/>
      <point x="825" y="14" type="curve" smooth="yes"/>
      <point x="825" y="26"/>
      <point x="823" y="27"/>
      <point x="812" y="27" type="curve" smooth="yes"/>
      <point x="735" y="27" type="line"/>
      <point x="735" y="78"/>
      <point x="799" y="637"/>
      <point x="799" y="639" type="curve"/>
      <point x="845" y="639" type="line" smooth="yes"/>
      <point x="861" y="639"/>
      <point x="863" y="639"/>
      <point x="863" y="651" type="curve" smooth="yes"/>
      <point x="863" y="668"/>
      <point x="862" y="669"/>
      <point x="849" y="669" type="curve" smooth="yes"/>
      <point x="826" y="669"/>
      <point x="794" y="666"/>
      <point x="764" y="666" type="curve" smooth="yes"/>
      <point x="720" y="666" type="line" smooth="yes"/>
      <point x="708" y="666"/>
      <point x="705" y="663"/>
      <point x="699" y="652" type="curve" smooth="yes"/>
      <point x="605" y="479"/>
      <point x="529" y="318"/>
      <point x="447" y="147" type="curve" smooth="yes"/>
      <point x="441" y="134"/>
      <point x="435" y="123"/>
      <point x="431" y="123" type="curve" smooth="yes"/>
      <point x="427" y="123"/>
      <point x="424" y="132"/>
      <point x="421" y="147" type="curve" smooth="yes"/>
      <point x="320" y="656" type="line" smooth="yes"/>
      <point x="317" y="669"/>
      <point x="310" y="669"/>
      <point x="300" y="669" type="curve" smooth="yes"/>
      <point x="294" y="669"/>
      <point x="275" y="666"/>
      <point x="253" y="666" type="curve" smooth="yes"/>
      <point x="232" y="666"/>
      <point x="162" y="669"/>
      <point x="148" y="669" type="curve" smooth="yes"/>
      <point x="138" y="669"/>
      <point x="137" y="667"/>
      <point x="137" y="652" type="curve" smooth="yes"/>
      <point x="137" y="640"/>
      <point x="137" y="639"/>
      <point x="148" y="639" type="curve" smooth="yes"/>
      <point x="194" y="639" type="line" smooth="yes"/>
      <point x="213" y="639"/>
      <point x="219" y="638"/>
      <point x="219" y="631" type="curve" smooth="yes"/>
      <point x="219" y="618"/>
      <point x="116" y="166"/>
      <point x="86" y="27" type="curve"/>
      <point x="38" y="27" type="line" smooth="yes"/>
      <point x="22" y="27"/>
      <point x="20" y="27"/>
      <point x="20" y="15" type="curve" smooth="yes"/>
    </contour>
  </outline>
</glyph>
<glyph name="O" format="1">
  <advance width="734"/>
  <unicode hex="004F"/>
  <outline>
    <contour>
      <point x="35" y="66"/>
      <point x="174" y="-22"/>
      <point x="334" y="-22" type="curve" smooth="yes"/>
      <point x="537" y="-22"/>
      <point x="699" y="148"/>
      <point x="699" y="348" type="curve" smooth="yes"/>
      <point x="699" y="542"/>
      <point x="588" y="673"/>
      <point x="407" y="673" type="curve" smooth="yes"/>
      <point x="226" y="673"/>
      <point x="35" y="519"/>
      <point x="35" y="280" type="curve" smooth="yes"/>
    </contour>
    <contour>
      <point x="127" y="463"/>
      <point x="265" y="645"/>
      <point x="410" y="645" type="curve" smooth="yes"/>
      <point x="554" y="645"/>
      <point x="608" y="484"/>
      <point x="608" y="373" type="curve" smooth="yes"/>
      <point x="608" y="213"/>
      <point x="509" y="2"/>
      <point x="351" y="2" type="curve" smooth="yes"/>
      <point x="193" y="2"/>
      <point x="127" y="147"/>
      <point x="127" y="286" type="curve" smooth="yes"/>
    </contour>
  </outline>
</glyph>
<glyph name="P" format="1">
  <advance width="570"/>
  <unicode hex="0050"/>
  <outline>
    <contour>
      <point x="20" y="-2"/>
      <point x="21" y="-3"/>
      <point x="34" y="-3" type="curve" smooth="yes"/>
      <point x="57" y="-3"/>
      <point x="107" y="0"/>
      <point x="137" y="0" type="curve" smooth="yes"/>
      <point x="167" y="0"/>
      <point x="214" y="-3"/>
      <point x="237" y="-3" type="curve" smooth="yes"/>
      <point x="247" y="-3"/>
      <point x="248" y="-1"/>
      <point x="248" y="14" type="curve" smooth="yes"/>
      <point x="248" y="26"/>
      <point x="248" y="27"/>
      <point x="237" y="27" type="curve" smooth="yes"/>
      <point x="172" y="27" type="line" smooth="yes"/>
      <point x="166" y="27"/>
      <point x="163" y="30"/>
      <point x="164" y="36" type="curve"/>
      <point x="169" y="80"/>
      <point x="194" y="279"/>
      <point x="197" y="295" type="curve"/>
      <point x="199" y="303"/>
      <point x="203" y="304"/>
      <point x="215" y="304" type="curve" smooth="yes"/>
      <point x="225" y="304"/>
      <point x="264" y="302"/>
      <point x="291" y="302" type="curve" smooth="yes"/>
      <point x="407" y="302"/>
      <point x="535" y="344"/>
      <point x="535" y="496" type="curve" smooth="yes"/>
      <point x="535" y="594"/>
      <point x="461" y="667"/>
      <point x="325" y="667" type="curve" smooth="yes"/>
      <point x="307" y="667"/>
      <point x="238" y="662"/>
      <point x="208" y="662" type="curve" smooth="yes"/>
      <point x="173" y="662"/>
      <point x="106" y="665"/>
      <point x="99" y="665" type="curve" smooth="yes"/>
      <point x="91" y="665"/>
      <point x="87" y="663"/>
      <point x="87" y="651" type="curve" smooth="yes"/>
      <point x="87" y="636"/>
      <point x="94" y="636"/>
      <point x="106" y="636" type="curve" smooth="yes"/>
      <point x="161" y="636" type="line" smooth="yes"/>
      <point x="162" y="636"/>
      <point x="164" y="633"/>
      <point x="164" y="626" type="curve" smooth="yes"/>
      <point x="164" y="596"/>
      <point x="81" y="27"/>
      <point x="81" y="27" type="curve" smooth="yes"/>
      <point x="38" y="27" type="line" smooth="yes"/>
      <point x="22" y="27"/>
      <point x="20" y="27"/>
      <point x="20" y="15" type="curve" smooth="yes"/>
    </contour>
    <contour>
      <point x="202" y="339"/>
      <point x="203" y="345"/>
      <point x="204" y="354" type="curve" smooth="yes"/>
      <point x="213" y="420"/>
      <point x="242" y="613"/>
      <point x="246" y="638" type="curve"/>
      <point x="247" y="642"/>
      <point x="280" y="643"/>
      <point x="291" y="643" type="curve" smooth="yes"/>
      <point x="400" y="643"/>
      <point x="458" y="589"/>
      <point x="458" y="490" type="curve" smooth="yes"/>
      <point x="458" y="368"/>
      <point x="342" y="323"/>
      <point x="233" y="323" type="curve" smooth="yes"/>
      <point x="212" y="323"/>
      <point x="202" y="324"/>
      <point x="202" y="335" type="curve" smooth="yes"/>
    </contour>
  </outline>
</glyph>
<glyph name="Q" format="1">
  <advance width="717"/>
  <unicode hex="0051"/>
  <outline>
    <contour>
      <point x="16" y="-124"/>
      <point x="30" y="-133"/>
      <point x="49" y="-133" type="curve" smooth="yes"/>
      <point x="63" y="-133"/>
      <point x="82" y="-126"/>
      <point x="98" y="-120" type="curve" smooth="yes"/>
      <point x="113" y="-114"/>
      <point x="131" y="-111"/>
      <point x="135" y="-111" type="curve" smooth="yes"/>
      <point x="164" y="-111"/>
      <point x="368" y="-198"/>
      <point x="560" y="-198" type="curve" smooth="yes"/>
      <point x="623" y="-198"/>
      <point x="728" y="-158"/>
      <point x="728" y="-157" type="curve" smooth="yes"/>
      <point x="728" y="-149"/>
      <point x="726" y="-146"/>
      <point x="723" y="-146" type="curve" smooth="yes"/>
      <point x="717" y="-146"/>
      <point x="693" y="-157"/>
      <point x="625" y="-157" type="curve" smooth="yes"/>
      <point x="528" y="-157"/>
      <point x="330" y="-101"/>
      <point x="271" y="-85" type="curve" smooth="yes"/>
      <point x="255" y="-81"/>
      <point x="238" y="-79"/>
      <point x="238" y="-76" type="curve" smooth="yes"/>
      <point x="238" y="-73"/>
      <point x="253" y="-67"/>
      <point x="266" y="-60" type="curve" smooth="yes"/>
      <point x="294" y="-45"/>
      <point x="328" y="-28"/>
      <point x="357" y="-14" type="curve" smooth="yes"/>
      <point x="395" y="5"/>
      <point x="403" y="3"/>
      <point x="438" y="16" type="curve" smooth="yes"/>
      <point x="567" y="63"/>
      <point x="682" y="187"/>
      <point x="682" y="375" type="curve" smooth="yes"/>
      <point x="682" y="544"/>
      <point x="572" y="675"/>
      <point x="398" y="675" type="curve" smooth="yes"/>
      <point x="191" y="675"/>
      <point x="35" y="484"/>
      <point x="35" y="305" type="curve" smooth="yes"/>
      <point x="35" y="-5"/>
      <point x="332" y="-2"/>
      <point x="332" y="-7" type="curve" smooth="yes"/>
      <point x="332" y="-8"/>
      <point x="327" y="-10"/>
      <point x="319" y="-14" type="curve" smooth="yes"/>
      <point x="281" y="-32"/>
      <point x="223" y="-62"/>
      <point x="211" y="-67" type="curve" smooth="yes"/>
      <point x="206" y="-69"/>
      <point x="198" y="-71"/>
      <point x="188" y="-71" type="curve" smooth="yes"/>
      <point x="169" y="-71"/>
      <point x="143" y="-66"/>
      <point x="117" y="-66" type="curve" smooth="yes"/>
      <point x="67" y="-66"/>
      <point x="16" y="-75"/>
      <point x="16" y="-107" type="curve" smooth="yes"/>
    </contour>
    <contour>
      <point x="121" y="492"/>
      <point x="275" y="646"/>
      <point x="385" y="646" type="curve" smooth="yes"/>
      <point x="511" y="646"/>
      <point x="595" y="553"/>
      <point x="595" y="400" type="curve" smooth="yes"/>
      <point x="595" y="166"/>
      <point x="418" y="17"/>
      <point x="368" y="17" type="curve" smooth="yes"/>
      <point x="247" y="17"/>
      <point x="121" y="98"/>
      <point x="121" y="290" type="curve" smooth="yes"/>
    </contour>
  </outline>
</glyph>
<glyph name="R" format="1">
  <advance width="625"/>
  <unicode hex="0052"/>
  <outline>
    <contour>
      <point x="20" y="-3"/>
      <point x="21" y="-3"/>
      <point x="34" y="-3" type="curve" smooth="yes"/>
      <point x="57" y="-3"/>
      <point x="107" y="0"/>
      <point x="137" y="0" type="curve" smooth="yes"/>
      <point x="167" y="0"/>
      <point x="204" y="-3"/>
      <point x="227" y="-3" type="curve" smooth="yes"/>
      <point x="237" y="-3"/>
      <point x="238" y="-1"/>
      <point x="238" y="14" type="curve" smooth="yes"/>
      <point x="238" y="26"/>
      <point x="236" y="27"/>
      <point x="225" y="27" type="curve" smooth="yes"/>
      <point x="172" y="27" type="line" smooth="yes"/>
      <point x="166" y="27"/>
      <point x="164" y="30"/>
      <point x="164" y="36" type="curve"/>
      <point x="166" y="77"/>
      <point x="185" y="231"/>
      <point x="193" y="288" type="curve" smooth="yes"/>
      <point x="196" y="312"/>
      <point x="215" y="312"/>
      <point x="221" y="312" type="curve" smooth="yes"/>
      <point x="248" y="312" type="line" smooth="yes"/>
      <point x="273" y="312"/>
      <point x="300" y="311"/>
      <point x="319" y="307" type="curve" smooth="yes"/>
      <point x="398" y="291"/>
      <point x="454" y="234"/>
      <point x="454" y="170" type="curve" smooth="yes"/>
      <point x="454" y="120"/>
      <point x="446" y="60"/>
      <point x="438" y="13" type="curve"/>
      <point x="437" y="5"/>
      <point x="436" y="0"/>
      <point x="443" y="0" type="curve" smooth="yes"/>
      <point x="487" y="0"/>
      <point x="579" y="-3"/>
      <point x="587" y="-3" type="curve" smooth="yes"/>
      <point x="593" y="-3"/>
      <point x="595" y="3"/>
      <point x="595" y="12" type="curve" smooth="yes"/>
      <point x="595" y="25"/>
      <point x="591" y="27"/>
      <point x="575" y="27" type="curve" smooth="yes"/>
      <point x="532" y="27" type="line" smooth="yes"/>
      <point x="530" y="27"/>
      <point x="529" y="31"/>
      <point x="529" y="38" type="curve" smooth="yes"/>
      <point x="529" y="66"/>
      <point x="532" y="120"/>
      <point x="532" y="136" type="curve" smooth="yes"/>
      <point x="532" y="238"/>
      <point x="469" y="280"/>
      <point x="419" y="300" type="curve" smooth="yes"/>
      <point x="380" y="316"/>
      <point x="353" y="322"/>
      <point x="353" y="324" type="curve" smooth="yes"/>
      <point x="353" y="329"/>
      <point x="547" y="350"/>
      <point x="547" y="507" type="curve" smooth="yes"/>
      <point x="547" y="603"/>
      <point x="459" y="669"/>
      <point x="345" y="669" type="curve" smooth="yes"/>
      <point x="310" y="669"/>
      <point x="234" y="662"/>
      <point x="203" y="662" type="curve" smooth="yes"/>
      <point x="138" y="662"/>
      <point x="103" y="665"/>
      <point x="96" y="665" type="curve" smooth="yes"/>
      <point x="88" y="665"/>
      <point x="79" y="663"/>
      <point x="79" y="651" type="curve" smooth="yes"/>
      <point x="79" y="636"/>
      <point x="86" y="636"/>
      <point x="98" y="636" type="curve" smooth="yes"/>
      <point x="159" y="636" type="line" smooth="yes"/>
      <point x="165" y="636"/>
      <point x="162" y="626"/>
      <point x="162" y="621" type="curve"/>
      <point x="153" y="520"/>
      <point x="104" y="169"/>
      <point x="79" y="27" type="curve"/>
      <point x="38" y="27" type="line" smooth="yes"/>
      <point x="22" y="27"/>
      <point x="20" y="25"/>
      <point x="20" y="13" type="curve" smooth="yes"/>
    </contour>
    <contour>
      <point x="204" y="354"/>
      <point x="204" y="358"/>
      <point x="205" y="363" type="curve"/>
      <point x="210" y="403"/>
      <point x="236" y="595"/>
      <point x="241" y="638" type="curve"/>
      <point x="241" y="642"/>
      <point x="280" y="643"/>
      <point x="291" y="643" type="curve" smooth="yes"/>
      <point x="405" y="643"/>
      <point x="462" y="593"/>
      <point x="462" y="498" type="curve" smooth="yes"/>
      <point x="462" y="406"/>
      <point x="364" y="333"/>
      <point x="299" y="333" type="curve" smooth="yes"/>
      <point x="288" y="333"/>
      <point x="263" y="336"/>
      <point x="229" y="336" type="curve" smooth="yes"/>
      <point x="222" y="336" type="line" smooth="yes"/>
      <point x="212" y="336"/>
      <point x="204" y="338"/>
      <point x="204" y="350" type="curve" smooth="yes"/>
    </contour>
  </outline>
</glyph>
<glyph name="U" format="1">
  <advance width="759"/>
  <unicode hex="0055"/>
  <outline>
    <contour>
      <point x="60" y="634"/>
      <point x="66" y="634"/>
      <point x="78" y="634" type="curve" smooth="yes"/>
      <point x="141" y="634" type="line" smooth="yes"/>
      <point x="142" y="634"/>
      <point x="142" y="632"/>
      <point x="142" y="629" type="curve" smooth="yes"/>
      <point x="142" y="569"/>
      <point x="76" y="237"/>
      <point x="76" y="151" type="curve" smooth="yes"/>
      <point x="76" y="51"/>
      <point x="163" y="-7"/>
      <point x="268" y="-7" type="curve" smooth="yes"/>
      <point x="355" y="-7"/>
      <point x="437" y="32"/>
      <point x="479" y="55" type="curve" smooth="yes"/>
      <point x="502" y="68"/>
      <point x="519" y="79"/>
      <point x="524" y="79" type="curve" smooth="yes"/>
      <point x="533" y="79"/>
      <point x="532" y="55"/>
      <point x="537" y="12" type="curve" smooth="yes"/>
      <point x="538" y="5"/>
      <point x="540" y="1"/>
      <point x="548" y="1" type="curve" smooth="yes"/>
      <point x="553" y="1" type="line" smooth="yes"/>
      <point x="560" y="1"/>
      <point x="566" y="4"/>
      <point x="572" y="26" type="curve" smooth="yes"/>
      <point x="606" y="141"/>
      <point x="638" y="339"/>
      <point x="667" y="516" type="curve" smooth="yes"/>
      <point x="674" y="556"/>
      <point x="681" y="596"/>
      <point x="689" y="634" type="curve"/>
      <point x="721" y="634" type="line" smooth="yes"/>
      <point x="737" y="634"/>
      <point x="739" y="634"/>
      <point x="739" y="646" type="curve" smooth="yes"/>
      <point x="739" y="663"/>
      <point x="738" y="664"/>
      <point x="725" y="664" type="curve" smooth="yes"/>
      <point x="715" y="664"/>
      <point x="673" y="661"/>
      <point x="643" y="661" type="curve" smooth="yes"/>
      <point x="613" y="661"/>
      <point x="555" y="664"/>
      <point x="539" y="664" type="curve" smooth="yes"/>
      <point x="526" y="664"/>
      <point x="519" y="664"/>
      <point x="519" y="649" type="curve" smooth="yes"/>
      <point x="519" y="634"/>
      <point x="527" y="634"/>
      <point x="539" y="634" type="curve" smooth="yes"/>
      <point x="606" y="634" type="line"/>
      <point x="598" y="546"/>
      <point x="579" y="438"/>
      <point x="558" y="314" type="curve" smooth="yes"/>
      <point x="547" y="251"/>
      <point x="536" y="191"/>
      <point x="526" y="151" type="curve" smooth="yes"/>
      <point x="518" y="121"/>
      <point x="502" y="101"/>
      <point x="487" y="91" type="curve" smooth="yes"/>
      <point x="453" y="69"/>
      <point x="383" y="40"/>
      <point x="322" y="40" type="curve" smooth="yes"/>
      <point x="297" y="40"/>
      <point x="159" y="44"/>
      <point x="159" y="176" type="curve" smooth="yes"/>
      <point x="159" y="250"/>
      <point x="224" y="634"/>
      <point x="234" y="634" type="curve" smooth="yes"/>
      <point x="266" y="634" type="line" smooth="yes"/>
      <point x="282" y="634"/>
      <point x="284" y="634"/>
      <point x="284" y="646" type="curve" smooth="yes"/>
      <point x="284" y="663"/>
      <point x="283" y="664"/>
      <point x="270" y="664" type="curve" smooth="yes"/>
      <point x="247" y="664"/>
      <point x="200" y="661"/>
      <point x="170" y="661" type="curve" smooth="yes"/>
      <point x="140" y="661"/>
      <point x="94" y="664"/>
      <point x="78" y="664" type="curve" smooth="yes"/>
      <point x="65" y="664"/>
      <point x="60" y="664"/>
      <point x="60" y="649" type="curve" smooth="yes"/>
    </contour>
  </outline>
</glyph>
<glyph name="V" format="1">
  <advance width="666"/>
  <unicode hex="0056"/>
  <outline>
    <contour>
      <point x="20" y="634"/>
      <point x="26" y="634"/>
      <point x="38" y="634" type="curve" smooth="yes"/>
      <point x="78" y="634" type="line" smooth="yes"/>
      <point x="88" y="634"/>
      <point x="156" y="204"/>
      <point x="178" y="44" type="curve" smooth="yes"/>
      <point x="185" y="-8"/>
      <point x="187" y="-17"/>
      <point x="198" y="-17" type="curve" smooth="yes"/>
      <point x="211" y="-17"/>
      <point x="229" y="7"/>
      <point x="235" y="16" type="curve" smooth="yes"/>
      <point x="261" y="56"/>
      <point x="280" y="73"/>
      <point x="289" y="88" type="curve" smooth="yes"/>
      <point x="603" y="627" type="line"/>
      <point x="607" y="633"/>
      <point x="606" y="634"/>
      <point x="627" y="634" type="curve" smooth="yes"/>
      <point x="643" y="634"/>
      <point x="646" y="634"/>
      <point x="646" y="646" type="curve" smooth="yes"/>
      <point x="646" y="663"/>
      <point x="644" y="664"/>
      <point x="631" y="664" type="curve" smooth="yes"/>
      <point x="621" y="664"/>
      <point x="588" y="661"/>
      <point x="573" y="661" type="curve" smooth="yes"/>
      <point x="519" y="661"/>
      <point x="486" y="664"/>
      <point x="474" y="664" type="curve" smooth="yes"/>
      <point x="461" y="664"/>
      <point x="457" y="664"/>
      <point x="457" y="649" type="curve" smooth="yes"/>
      <point x="457" y="634"/>
      <point x="463" y="634"/>
      <point x="475" y="634" type="curve" smooth="yes"/>
      <point x="542" y="634" type="line" smooth="yes"/>
      <point x="550" y="634"/>
      <point x="556" y="634"/>
      <point x="548" y="618" type="curve" smooth="yes"/>
      <point x="430" y="393" type="line" smooth="yes"/>
      <point x="352" y="244"/>
      <point x="257" y="81"/>
      <point x="252" y="81" type="curve" smooth="yes"/>
      <point x="245" y="81"/>
      <point x="172" y="597"/>
      <point x="172" y="629" type="curve" smooth="yes"/>
      <point x="172" y="632"/>
      <point x="175" y="634"/>
      <point x="176" y="634" type="curve" smooth="yes"/>
      <point x="231" y="634" type="line" smooth="yes"/>
      <point x="247" y="634"/>
      <point x="249" y="634"/>
      <point x="249" y="646" type="curve" smooth="yes"/>
      <point x="249" y="663"/>
      <point x="248" y="664"/>
      <point x="235" y="664" type="curve" smooth="yes"/>
      <point x="212" y="664"/>
      <point x="160" y="661"/>
      <point x="130" y="661" type="curve" smooth="yes"/>
      <point x="100" y="661"/>
      <point x="54" y="664"/>
      <point x="38" y="664" type="curve" smooth="yes"/>
      <point x="25" y="664"/>
      <point x="20" y="664"/>
      <point x="20" y="649" type="curve" smooth="yes"/>
    </contour>
  </outline>
</glyph>
<glyph name="X" format="1">
  <advance width="661"/>
  <unicode hex="0058"/>
  <outline>
    <contour>
      <point x="20" y="-3"/>
      <point x="23" y="-3"/>
      <point x="36" y="-3" type="curve" smooth="yes"/>
      <point x="47" y="-3"/>
      <point x="69" y="0"/>
      <point x="99" y="0" type="curve" smooth="yes"/>
      <point x="129" y="0"/>
      <point x="172" y="-3"/>
      <point x="184" y="-3" type="curve" smooth="yes"/>
      <point x="197" y="-3"/>
      <point x="198" y="-2"/>
      <point x="198" y="15" type="curve" smooth="yes"/>
      <point x="198" y="27"/>
      <point x="196" y="27"/>
      <point x="180" y="27" type="curve" smooth="yes"/>
      <point x="139" y="27" type="line" smooth="yes"/>
      <point x="129" y="27"/>
      <point x="126" y="28"/>
      <point x="126" y="31" type="curve" smooth="yes"/>
      <point x="126" y="52"/>
      <point x="279" y="257"/>
      <point x="312" y="299" type="curve" smooth="yes"/>
      <point x="321" y="310"/>
      <point x="322" y="314"/>
      <point x="327" y="304" type="curve" smooth="yes"/>
      <point x="360" y="234"/>
      <point x="428" y="99"/>
      <point x="452" y="42" type="curve" smooth="yes"/>
      <point x="458" y="28"/>
      <point x="458" y="27"/>
      <point x="443" y="27" type="curve" smooth="yes"/>
      <point x="396" y="27" type="line" smooth="yes"/>
      <point x="380" y="27"/>
      <point x="378" y="27"/>
      <point x="378" y="15" type="curve" smooth="yes"/>
      <point x="378" y="-2"/>
      <point x="379" y="-3"/>
      <point x="392" y="-3" type="curve" smooth="yes"/>
      <point x="415" y="-3"/>
      <point x="478" y="0"/>
      <point x="508" y="0" type="curve" smooth="yes"/>
      <point x="538" y="0"/>
      <point x="592" y="-3"/>
      <point x="608" y="-3" type="curve" smooth="yes"/>
      <point x="621" y="-3"/>
      <point x="626" y="-3"/>
      <point x="626" y="12" type="curve" smooth="yes"/>
      <point x="626" y="27"/>
      <point x="620" y="27"/>
      <point x="608" y="27" type="curve" smooth="yes"/>
      <point x="561" y="27" type="line" smooth="yes"/>
      <point x="549" y="27"/>
      <point x="422" y="277"/>
      <point x="381" y="351" type="curve"/>
      <point x="376" y="359"/>
      <point x="377" y="360"/>
      <point x="382" y="367" type="curve"/>
      <point x="382" y="367"/>
      <point x="588" y="634"/>
      <point x="596" y="634" type="curve" smooth="yes"/>
      <point x="625" y="634" type="line" smooth="yes"/>
      <point x="637" y="634"/>
      <point x="641" y="634"/>
      <point x="641" y="649" type="curve" smooth="yes"/>
      <point x="641" y="664"/>
      <point x="638" y="664"/>
      <point x="625" y="664" type="curve" smooth="yes"/>
      <point x="609" y="664"/>
      <point x="579" y="661"/>
      <point x="549" y="661" type="curve" smooth="yes"/>
      <point x="519" y="661"/>
      <point x="504" y="664"/>
      <point x="481" y="664" type="curve" smooth="yes"/>
      <point x="468" y="664"/>
      <point x="467" y="663"/>
      <point x="467" y="646" type="curve" smooth="yes"/>
      <point x="467" y="634"/>
      <point x="469" y="634"/>
      <point x="485" y="634" type="curve" smooth="yes"/>
      <point x="531" y="634" type="line" smooth="yes"/>
      <point x="533" y="634"/>
      <point x="534" y="633"/>
      <point x="534" y="630" type="curve" smooth="yes"/>
      <point x="534" y="617"/>
      <point x="447" y="500"/>
      <point x="394" y="426" type="curve" smooth="yes"/>
      <point x="377" y="402"/>
      <point x="366" y="387"/>
      <point x="364" y="387" type="curve" smooth="yes"/>
      <point x="362" y="387"/>
      <point x="354" y="405"/>
      <point x="344" y="426" type="curve" smooth="yes"/>
      <point x="303" y="512"/>
      <point x="264" y="603"/>
      <point x="259" y="619" type="curve" smooth="yes"/>
      <point x="254" y="634"/>
      <point x="252" y="634"/>
      <point x="267" y="634" type="curve" smooth="yes"/>
      <point x="308" y="634" type="line" smooth="yes"/>
      <point x="324" y="634"/>
      <point x="326" y="634"/>
      <point x="326" y="646" type="curve" smooth="yes"/>
      <point x="326" y="663"/>
      <point x="325" y="664"/>
      <point x="312" y="664" type="curve" smooth="yes"/>
      <point x="289" y="664"/>
      <point x="240" y="661"/>
      <point x="210" y="661" type="curve" smooth="yes"/>
      <point x="180" y="661"/>
      <point x="131" y="664"/>
      <point x="115" y="664" type="curve" smooth="yes"/>
      <point x="102" y="664"/>
      <point x="97" y="664"/>
      <point x="97" y="649" type="curve" smooth="yes"/>
      <point x="97" y="634"/>
      <point x="103" y="634"/>
      <point x="115" y="634" type="curve" smooth="yes"/>
      <point x="158" y="634" type="line" smooth="yes"/>
      <point x="162" y="634"/>
      <point x="169" y="622"/>
      <point x="180" y="600" type="curve" smooth="yes"/>
      <point x="305" y="346" type="line" smooth="yes"/>
      <point x="311" y="333"/>
      <point x="311" y="337"/>
      <point x="301" y="325" type="curve" smooth="yes"/>
      <point x="192" y="193"/>
      <point x="74" y="27"/>
      <point x="62" y="27" type="curve" smooth="yes"/>
      <point x="36" y="27" type="line" smooth="yes"/>
      <point x="24" y="27"/>
      <point x="20" y="27"/>
      <point x="20" y="12" type="curve" smooth="yes"/>
    </contour>
  </outline>
</glyph>
<glyph name="bracketleft" format="1">
  <advance width="296"/>
  <unicode hex="005B"/>
  <outline>
    <contour>
      <point x="80" y="-126" type="line" smooth="yes"/>
      <point x="80" y="-140"/>
      <point x="81" y="-141"/>
      <point x="93" y="-141" type="curve" smooth="yes"/>
      <point x="243" y="-141" type="line" smooth="yes"/>
      <point x="255" y="-141"/>
      <point x="256" y="-138"/>
      <point x="256" y="-130" type="curve" smooth="yes"/>
      <point x="256" y="-118" type="line" smooth="yes"/>
      <point x="256" y="-105"/>
      <point x="254" y="-105"/>
      <point x="243" y="-105" type="curve" smooth="yes"/>
      <point x="138" y="-105" type="line" smooth="yes"/>
      <point x="125" y="-105"/>
      <point x="125" y="-103"/>
      <point x="125" y="-93" type="curve" smooth="yes"/>
      <point x="125" y="642" type="line" smooth="yes"/>
      <point x="125" y="652"/>
      <point x="125" y="654"/>
      <point x="138" y="654" type="curve" smooth="yes"/>
      <point x="243" y="654" type="line" smooth="yes"/>
      <point x="254" y="654"/>
      <point x="256" y="654"/>
      <point x="256" y="667" type="curve" smooth="yes"/>
      <point x="256" y="681" type="line" smooth="yes"/>
      <point x="256" y="689"/>
      <point x="255" y="690"/>
      <point x="243" y="690" type="curve" smooth="yes"/>
      <point x="92" y="690" type="line" smooth="yes"/>
      <point x="81" y="690"/>
      <point x="80" y="686"/>
      <point x="80" y="675" type="curve" smooth="yes"/>
    </contour>
  </outline>
</glyph>
<glyph name="backslash" format="1">
  <advance width="406"/>
  <unicode hex="005C"/>
  <outline>
    <contour>
      <point x="10" y="684"/>
      <point x="19" y="662"/>
      <point x="24" y="649" type="curve" smooth="yes"/>
      <point x="338" y="-202" type="line" smooth="yes"/>
      <point x="349" y="-233"/>
      <point x="355" y="-233"/>
      <point x="370" y="-233" type="curve" smooth="yes"/>
      <point x="382" y="-233"/>
      <point x="396" y="-233"/>
      <point x="396" y="-220" type="curve" smooth="yes"/>
      <point x="396" y="-211"/>
      <point x="385" y="-186"/>
      <point x="377" y="-163" type="curve"/>
      <point x="377" y="-163"/>
      <point x="62" y="680"/>
      <point x="60" y="687" type="curve"/>
      <point x="55" y="702"/>
      <point x="49" y="705"/>
      <point x="31" y="705" type="curve" smooth="yes"/>
      <point x="22" y="705"/>
      <point x="10" y="703"/>
      <point x="10" y="693" type="curve" smooth="yes"/>
    </contour>
  </outline>
</glyph>
<glyph name="asciicircum" format="1">
  <advance width="402"/>
  <unicode hex="005E"/>
  <outline>
    <contour>
      <point x="51" y="311" type="line"/>
      <point x="60" y="309"/>
      <point x="64" y="308"/>
      <point x="75" y="308" type="curve" smooth="yes"/>
      <point x="89" y="308"/>
      <point x="91" y="309"/>
      <point x="103" y="311" type="curve"/>
      <point x="201" y="543" type="line"/>
      <point x="303" y="311" type="line"/>
      <point x="314" y="309"/>
      <point x="319" y="308"/>
      <point x="329" y="308" type="curve" smooth="yes"/>
      <point x="340" y="308"/>
      <point x="345" y="309"/>
      <point x="355" y="311" type="curve"/>
      <point x="209" y="631" type="line"/>
      <point x="207" y="632"/>
      <point x="205" y="632"/>
      <point x="203" y="632" type="curve" smooth="yes"/>
      <point x="201" y="632"/>
      <point x="199" y="632"/>
      <point x="197" y="631" type="curve"/>
    </contour>
  </outline>
</glyph>
<glyph name="underscore" format="1">
  <advance width="410"/>
  <unicode hex="005F"/>
  <outline>
    <contour>
      <point x="25" y="-51" type="line" smooth="yes"/>
      <point x="25" y="-65"/>
      <point x="27" y="-70"/>
      <point x="38" y="-70" type="curve" smooth="yes"/>
      <point x="372" y="-70" type="line" smooth="yes"/>
      <point x="383" y="-70"/>
      <point x="385" y="-55"/>
      <point x="385" y="-47" type="curve" smooth="yes"/>
      <point x="385" y="-42" type="line" smooth="yes"/>
      <point x="385" y="-33"/>
      <point x="385" y="-25"/>
      <point x="372" y="-25" type="curve" smooth="yes"/>
      <point x="41" y="-25" type="line" smooth="yes"/>
      <point x="30" y="-25"/>
      <point x="25" y="-30"/>
      <point x="25" y="-43" type="curve" smooth="yes"/>
    </contour>
  </outline>
</glyph>
<glyph name="grave" format="1">
  <advance width="400"/>
  <unicode hex="0060"/>
  <outline>
    <contour>
      <point x="128" y="571"/>
      <point x="129" y="567"/>
      <point x="132" y="562" type="curve"/>
      <point x="189" y="455" type="line" smooth="yes"/>
      <point x="191" y="451"/>
      <point x="193" y="449"/>
      <point x="196" y="449" type="curve" smooth="yes"/>
      <point x="211" y="449" type="line" smooth="yes"/>
      <point x="214" y="449"/>
      <point x="215" y="450"/>
      <point x="215" y="451" type="curve" smooth="yes"/>
      <point x="215" y="452"/>
      <point x="214" y="455"/>
      <point x="214" y="457" type="curve"/>
      <point x="188" y="582" type="line" smooth="yes"/>
      <point x="185" y="597"/>
      <point x="175" y="606"/>
      <point x="162" y="606" type="curve" smooth="yes"/>
      <point x="138" y="606"/>
      <point x="128" y="594"/>
      <point x="128" y="575" type="curve" smooth="yes"/>
    </contour>
  </outline>
</glyph>
<glyph name="c" format="1">
  <advance width="402"/>
  <unicode hex="0063"/>
  <outline>
    <contour>
      <point x="25" y="63"/>
      <point x="55" y="-9"/>
      <point x="162" y="-9" type="curve" smooth="yes"/>
      <point x="261" y="-9"/>
      <point x="370" y="98"/>
      <point x="370" y="104" type="curve" smooth="yes"/>
      <point x="370" y="110"/>
      <point x="362" y="118"/>
      <point x="358" y="118" type="curve" smooth="yes"/>
      <point x="351" y="118"/>
      <point x="283" y="40"/>
      <point x="196" y="40" type="curve" smooth="yes"/>
      <point x="91" y="40"/>
      <point x="90" y="118"/>
      <point x="90" y="144" type="curve" smooth="yes"/>
      <point x="90" y="192"/>
      <point x="107" y="252"/>
      <point x="137" y="297" type="curve" smooth="yes"/>
      <point x="163" y="337"/>
      <point x="205" y="364"/>
      <point x="243" y="364" type="curve" smooth="yes"/>
      <point x="277" y="364"/>
      <point x="290" y="339"/>
      <point x="290" y="316" type="curve" smooth="yes"/>
      <point x="290" y="308"/>
      <point x="289" y="300"/>
      <point x="289" y="292" type="curve" smooth="yes"/>
      <point x="289" y="273"/>
      <point x="295" y="255"/>
      <point x="311" y="255" type="curve" smooth="yes"/>
      <point x="337" y="255"/>
      <point x="354" y="277"/>
      <point x="354" y="304" type="curve" smooth="yes"/>
      <point x="354" y="328"/>
      <point x="345" y="346"/>
      <point x="332" y="360" type="curve" smooth="yes"/>
      <point x="313" y="381"/>
      <point x="283" y="391"/>
      <point x="246" y="391" type="curve" smooth="yes"/>
      <point x="151" y="391"/>
      <point x="25" y="291"/>
      <point x="25" y="128" type="curve" smooth="yes"/>
    </contour>
  </outline>
</glyph>
<glyph name="f" format="1">
  <advance width="284"/>
  <unicode hex="0066"/>
  <outline>
    <contour>
      <point x="-125" y="-254"/>
      <point x="-90" y="-276"/>
      <point x="-57" y="-276" type="curve" smooth="yes"/>
      <point x="-19" y="-276"/>
      <point x="12" y="-250"/>
      <point x="34" y="-234" type="curve" smooth="yes"/>
      <point x="99" y="-185"/>
      <point x="125" y="-73"/>
      <point x="128" y="-54" type="curve" smooth="yes"/>
      <point x="147" y="59"/>
      <point x="178" y="289"/>
      <point x="185" y="336" type="curve" smooth="yes"/>
      <point x="187" y="347"/>
      <point x="186" y="347"/>
      <point x="195" y="347" type="curve" smooth="yes"/>
      <point x="275" y="347" type="line" smooth="yes"/>
      <point x="280" y="347"/>
      <point x="281" y="350"/>
      <point x="282" y="356" type="curve"/>
      <point x="283" y="359"/>
      <point x="284" y="366"/>
      <point x="284" y="370" type="curve" smooth="yes"/>
      <point x="284" y="371"/>
      <point x="283" y="372"/>
      <point x="279" y="372" type="curve" smooth="yes"/>
      <point x="197" y="372" type="line" smooth="yes"/>
      <point x="193" y="372"/>
      <point x="188" y="374"/>
      <point x="189" y="378" type="curve"/>
      <point x="196" y="429"/>
      <point x="220" y="641"/>
      <point x="299" y="641" type="curve" smooth="yes"/>
      <point x="333" y="641"/>
      <point x="354" y="604"/>
      <point x="380" y="604" type="curve" smooth="yes"/>
      <point x="400" y="604"/>
      <point x="434" y="627"/>
      <point x="434" y="645" type="curve" smooth="yes"/>
      <point x="434" y="659"/>
      <point x="394" y="681"/>
      <point x="361" y="681" type="curve" smooth="yes"/>
      <point x="329" y="681"/>
      <point x="294" y="667"/>
      <point x="270" y="653" type="curve" smooth="yes"/>
      <point x="211" y="619"/>
      <point x="181" y="562"/>
      <point x="169" y="541" type="curve" smooth="yes"/>
      <point x="140" y="489"/>
      <point x="129" y="406"/>
      <point x="127" y="384" type="curve" smooth="yes"/>
      <point x="126" y="372"/>
      <point x="126" y="372"/>
      <point x="117" y="372" type="curve" smooth="yes"/>
      <point x="44" y="372" type="line" smooth="yes"/>
      <point x="39" y="372"/>
      <point x="38" y="371"/>
      <point x="37" y="366" type="curve"/>
      <point x="36" y="362"/>
      <point x="35" y="357"/>
      <point x="35" y="353" type="curve" smooth="yes"/>
      <point x="35" y="347"/>
      <point x="36" y="347"/>
      <point x="42" y="347" type="curve" smooth="yes"/>
      <point x="118" y="347" type="line" smooth="yes"/>
      <point x="123" y="347"/>
      <point x="122" y="340"/>
      <point x="122" y="336" type="curve" smooth="yes"/>
      <point x="122" y="330"/>
      <point x="92" y="91"/>
      <point x="69" y="-54" type="curve" smooth="yes"/>
      <point x="61" y="-104"/>
      <point x="51" y="-223"/>
      <point x="5" y="-223" type="curve" smooth="yes"/>
      <point x="-29" y="-223"/>
      <point x="-50" y="-199"/>
      <point x="-76" y="-199" type="curve" smooth="yes"/>
      <point x="-96" y="-199"/>
      <point x="-125" y="-222"/>
      <point x="-125" y="-240" type="curve" smooth="yes"/>
    </contour>
  </outline>
</glyph>
<glyph name="g" format="1">
  <advance width="426"/>
  <unicode hex="0067"/>
  <outline>
    <contour>
      <point x="-6" y="-233"/>
      <point x="87" y="-251"/>
      <point x="165" y="-251" type="curve" smooth="yes"/>
      <point x="294" y="-251"/>
      <point x="405" y="-212"/>
      <point x="405" y="-106" type="curve" smooth="yes"/>
      <point x="405" y="-40"/>
      <point x="347" y="-23"/>
      <point x="274" y="-11" type="curve" smooth="yes"/>
      <point x="196" y="1"/>
      <point x="104" y="11"/>
      <point x="104" y="40" type="curve" smooth="yes"/>
      <point x="104" y="59"/>
      <point x="155" y="75"/>
      <point x="197" y="87" type="curve" smooth="yes"/>
      <point x="253" y="102"/>
      <point x="285" y="111"/>
      <point x="323" y="146" type="curve" smooth="yes"/>
      <point x="354" y="174"/>
      <point x="376" y="221"/>
      <point x="376" y="267" type="curve" smooth="yes"/>
      <point x="376" y="280"/>
      <point x="374" y="294"/>
      <point x="369" y="307" type="curve" smooth="yes"/>
      <point x="367" y="312"/>
      <point x="366" y="317"/>
      <point x="366" y="320" type="curve" smooth="yes"/>
      <point x="366" y="325"/>
      <point x="412" y="382"/>
      <point x="412" y="409" type="curve" smooth="yes"/>
      <point x="412" y="416"/>
      <point x="396" y="420"/>
      <point x="385" y="420" type="curve" smooth="yes"/>
      <point x="372" y="420"/>
      <point x="368" y="418"/>
      <point x="364" y="411" type="curve" smooth="yes"/>
      <point x="358" y="400"/>
      <point x="340" y="354"/>
      <point x="336" y="354" type="curve" smooth="yes"/>
      <point x="333" y="354"/>
      <point x="303" y="399"/>
      <point x="237" y="399" type="curve" smooth="yes"/>
      <point x="139" y="399"/>
      <point x="60" y="324"/>
      <point x="60" y="230" type="curve" smooth="yes"/>
      <point x="60" y="138"/>
      <point x="129" y="108"/>
      <point x="158" y="99" type="curve" smooth="yes"/>
      <point x="171" y="95"/>
      <point x="164" y="94"/>
      <point x="159" y="92" type="curve" smooth="yes"/>
      <point x="99" y="70" type="line" smooth="yes"/>
      <point x="86" y="65"/>
      <point x="54" y="11"/>
      <point x="54" y="3" type="curve" smooth="yes"/>
      <point x="54" y="-11"/>
      <point x="65" y="-20"/>
      <point x="79" y="-30" type="curve" smooth="yes"/>
      <point x="86" y="-35"/>
      <point x="97" y="-37"/>
      <point x="97" y="-40" type="curve" smooth="yes"/>
      <point x="97" y="-42"/>
      <point x="93" y="-44"/>
      <point x="85" y="-48" type="curve"/>
      <point x="58" y="-60"/>
      <point x="-6" y="-97"/>
      <point x="-6" y="-157" type="curve" smooth="yes"/>
    </contour>
    <contour>
      <point x="36" y="-108"/>
      <point x="65" y="-76"/>
      <point x="101" y="-58" type="curve"/>
      <point x="112" y="-53"/>
      <point x="122" y="-47"/>
      <point x="133" y="-47" type="curve" smooth="yes"/>
      <point x="139" y="-47"/>
      <point x="194" y="-56"/>
      <point x="240" y="-64" type="curve" smooth="yes"/>
      <point x="296" y="-74"/>
      <point x="344" y="-86"/>
      <point x="344" y="-133" type="curve" smooth="yes"/>
      <point x="344" y="-195"/>
      <point x="282" y="-222"/>
      <point x="204" y="-222" type="curve" smooth="yes"/>
      <point x="150" y="-222"/>
      <point x="36" y="-212"/>
      <point x="36" y="-151" type="curve" smooth="yes"/>
    </contour>
    <contour>
      <point x="123" y="286"/>
      <point x="163" y="376"/>
      <point x="236" y="376" type="curve" smooth="yes"/>
      <point x="283" y="376"/>
      <point x="314" y="325"/>
      <point x="314" y="279" type="curve" smooth="yes"/>
      <point x="314" y="183"/>
      <point x="245" y="115"/>
      <point x="197" y="115" type="curve" smooth="yes"/>
      <point x="173" y="115"/>
      <point x="123" y="138"/>
      <point x="123" y="229" type="curve" smooth="yes"/>
    </contour>
  </outline>
</glyph>
<glyph name="i" format="1">
  <advance width="270"/>
  <unicode hex="0069"/>
  <outline>
    <contour>
      <point x="25" y="277"/>
      <point x="32" y="269"/>
      <point x="37" y="269" type="curve" smooth="yes"/>
      <point x="42" y="269"/>
      <point x="93" y="328"/>
      <point x="119" y="328" type="curve" smooth="yes"/>
      <point x="129" y="328"/>
      <point x="131" y="320"/>
      <point x="131" y="310" type="curve" smooth="yes"/>
      <point x="131" y="249"/>
      <point x="60" y="63"/>
      <point x="60" y="12" type="curve" smooth="yes"/>
      <point x="60" y="-3"/>
      <point x="74" y="-6"/>
      <point x="84" y="-6" type="curve" smooth="yes"/>
      <point x="115" y="-6"/>
      <point x="235" y="93"/>
      <point x="235" y="107" type="curve" smooth="yes"/>
      <point x="235" y="110"/>
      <point x="227" y="119"/>
      <point x="223" y="119" type="curve" smooth="yes"/>
      <point x="220" y="119"/>
      <point x="163" y="55"/>
      <point x="144" y="55" type="curve" smooth="yes"/>
      <point x="131" y="55"/>
      <point x="131" y="65"/>
      <point x="131" y="75" type="curve" smooth="yes"/>
      <point x="131" y="103"/>
      <point x="196" y="314"/>
      <point x="196" y="361" type="curve" smooth="yes"/>
      <point x="196" y="378"/>
      <point x="186" y="383"/>
      <point x="176" y="383" type="curve" smooth="yes"/>
      <point x="139" y="383"/>
      <point x="25" y="288"/>
      <point x="25" y="282" type="curve" smooth="yes"/>
    </contour>
    <contour>
      <point x="128" y="528"/>
      <point x="143" y="501"/>
      <point x="172" y="501" type="curve" smooth="yes"/>
      <point x="196" y="501"/>
      <point x="213" y="521"/>
      <point x="213" y="547" type="curve" smooth="yes"/>
      <point x="213" y="568"/>
      <point x="198" y="595"/>
      <point x="169" y="595" type="curve" smooth="yes"/>
      <point x="143" y="595"/>
      <point x="128" y="575"/>
      <point x="128" y="549" type="curve" smooth="yes"/>
    </contour>
  </outline>
</glyph>
<glyph name="j" format="1">
  <advance width="297"/>
  <unicode hex="006A"/>
  <outline>
    <contour>
      <point x="-69" y="-236"/>
      <point x="-48" y="-255"/>
      <point x="-14" y="-255" type="curve" smooth="yes"/>
      <point x="16" y="-255"/>
      <point x="51" y="-233"/>
      <point x="73" y="-217" type="curve" smooth="yes"/>
      <point x="142" y="-165"/>
      <point x="159" y="-63"/>
      <point x="169" y="-3" type="curve" smooth="yes"/>
      <point x="173" y="27"/>
      <point x="224" y="312"/>
      <point x="224" y="359" type="curve" smooth="yes"/>
      <point x="224" y="376"/>
      <point x="213" y="383"/>
      <point x="203" y="383" type="curve" smooth="yes"/>
      <point x="148" y="383"/>
      <point x="35" y="256"/>
      <point x="35" y="250" type="curve" smooth="yes"/>
      <point x="35" y="245"/>
      <point x="42" y="239"/>
      <point x="47" y="239" type="curve" smooth="yes"/>
      <point x="52" y="239"/>
      <point x="120" y="328"/>
      <point x="146" y="328" type="curve" smooth="yes"/>
      <point x="156" y="328"/>
      <point x="158" y="320"/>
      <point x="158" y="310" type="curve" smooth="yes"/>
      <point x="158" y="283"/>
      <point x="117" y="26"/>
      <point x="91" y="-102" type="curve" smooth="yes"/>
      <point x="79" y="-159"/>
      <point x="69" y="-210"/>
      <point x="41" y="-210" type="curve" smooth="yes"/>
      <point x="7" y="-210"/>
      <point x="2" y="-185"/>
      <point x="-34" y="-185" type="curve" smooth="yes"/>
      <point x="-54" y="-185"/>
      <point x="-69" y="-201"/>
      <point x="-69" y="-221" type="curve" smooth="yes"/>
    </contour>
    <contour>
      <point x="157" y="558"/>
      <point x="172" y="531"/>
      <point x="201" y="531" type="curve" smooth="yes"/>
      <point x="225" y="531"/>
      <point x="242" y="551"/>
      <point x="242" y="577" type="curve" smooth="yes"/>
      <point x="242" y="598"/>
      <point x="227" y="625"/>
      <point x="198" y="625" type="curve" smooth="yes"/>
      <point x="172" y="625"/>
      <point x="157" y="605"/>
      <point x="157" y="579" type="curve" smooth="yes"/>
    </contour>
  </outline>
</glyph>
<glyph name="l" format="1">
  <advance width="272"/>
  <unicode hex="006C"/>
  <outline>
    <contour>
      <point x="55" y="0"/>
      <point x="69" y="-10"/>
      <point x="84" y="-10" type="curve" smooth="yes"/>
      <point x="152" y="-10"/>
      <point x="257" y="113"/>
      <point x="257" y="118" type="curve" smooth="yes"/>
      <point x="257" y="120"/>
      <point x="245" y="131"/>
      <point x="241" y="131" type="curve" smooth="yes"/>
      <point x="237" y="131"/>
      <point x="169" y="47"/>
      <point x="141" y="47" type="curve" smooth="yes"/>
      <point x="136" y="47"/>
      <point x="127" y="50"/>
      <point x="127" y="68" type="curve" smooth="yes"/>
      <point x="127" y="77"/>
      <point x="227" y="649"/>
      <point x="227" y="670" type="curve" smooth="yes"/>
      <point x="227" y="675"/>
      <point x="224" y="679"/>
      <point x="217" y="679" type="curve" smooth="yes"/>
      <point x="212" y="679"/>
      <point x="159" y="662"/>
      <point x="69" y="642" type="curve"/>
      <point x="62" y="640"/>
      <point x="60" y="640"/>
      <point x="59" y="629" type="curve" smooth="yes"/>
      <point x="57" y="612"/>
      <point x="58" y="609"/>
      <point x="62" y="609" type="curve" smooth="yes"/>
      <point x="66" y="609"/>
      <point x="114" y="621"/>
      <point x="136" y="627" type="curve" smooth="yes"/>
      <point x="150" y="631"/>
      <point x="152" y="625"/>
      <point x="150" y="612" type="curve" smooth="yes"/>
      <point x="125" y="402"/>
      <point x="55" y="46"/>
      <point x="55" y="28" type="curve" smooth="yes"/>
    </contour>
  </outline>
</glyph>
<glyph name="m" format="1">
  <advance width="739"/>
  <unicode hex="006D"/>
  <outline>
    <contour>
      <point x="15" y="240"/>
      <point x="24" y="238"/>
      <point x="27" y="238" type="curve" smooth="yes"/>
      <point x="32" y="238"/>
      <point x="95" y="313"/>
      <point x="121" y="313" type="curve" smooth="yes"/>
      <point x="131" y="313"/>
      <point x="135" y="306"/>
      <point x="135" y="296" type="curve" smooth="yes"/>
      <point x="135" y="229"/>
      <point x="103" y="53"/>
      <point x="90" y="-1" type="curve"/>
      <point x="89" y="-6"/>
      <point x="91" y="-11"/>
      <point x="95" y="-11" type="curve" smooth="yes"/>
      <point x="102" y="-11"/>
      <point x="126" y="-4"/>
      <point x="144" y="3" type="curve" smooth="yes"/>
      <point x="151" y="6"/>
      <point x="153" y="16"/>
      <point x="155" y="23" type="curve" smooth="yes"/>
      <point x="161" y="44"/>
      <point x="178" y="105"/>
      <point x="196" y="141" type="curve" smooth="yes"/>
      <point x="239" y="229"/>
      <point x="273" y="271"/>
      <point x="304" y="308" type="curve"/>
      <point x="311" y="317"/>
      <point x="327" y="333"/>
      <point x="341" y="333" type="curve" smooth="yes"/>
      <point x="355" y="333"/>
      <point x="362" y="318"/>
      <point x="362" y="296" type="curve" smooth="yes"/>
      <point x="362" y="181"/>
      <point x="304" y="30"/>
      <point x="304" y="7" type="curve" smooth="yes"/>
      <point x="304" y="2"/>
      <point x="307" y="0"/>
      <point x="312" y="0" type="curve" smooth="yes"/>
      <point x="324" y="0"/>
      <point x="338" y="1"/>
      <point x="354" y="3" type="curve" smooth="yes"/>
      <point x="361" y="4"/>
      <point x="366" y="7"/>
      <point x="368" y="15" type="curve"/>
      <point x="390" y="91"/>
      <point x="417" y="140"/>
      <point x="458" y="203" type="curve" smooth="yes"/>
      <point x="502" y="271"/>
      <point x="554" y="336"/>
      <point x="583" y="336" type="curve" smooth="yes"/>
      <point x="597" y="336"/>
      <point x="604" y="324"/>
      <point x="604" y="314" type="curve" smooth="yes"/>
      <point x="604" y="253"/>
      <point x="526" y="65"/>
      <point x="526" y="25" type="curve" smooth="yes"/>
      <point x="526" y="9"/>
      <point x="541" y="-4"/>
      <point x="561" y="-4" type="curve" smooth="yes"/>
      <point x="616" y="-4"/>
      <point x="724" y="113"/>
      <point x="724" y="119" type="curve" smooth="yes"/>
      <point x="724" y="122"/>
      <point x="716" y="131"/>
      <point x="712" y="131" type="curve" smooth="yes"/>
      <point x="708" y="131"/>
      <point x="639" y="49"/>
      <point x="619" y="49" type="curve" smooth="yes"/>
      <point x="604" y="49"/>
      <point x="601" y="65"/>
      <point x="601" y="73" type="curve" smooth="yes"/>
      <point x="601" y="112"/>
      <point x="674" y="293"/>
      <point x="674" y="345" type="curve" smooth="yes"/>
      <point x="674" y="362"/>
      <point x="668" y="379"/>
      <point x="623" y="379" type="curve" smooth="yes"/>
      <point x="517" y="379"/>
      <point x="409" y="152"/>
      <point x="370" y="81" type="curve"/>
      <point x="370" y="81"/>
      <point x="427" y="249"/>
      <point x="427" y="332" type="curve" smooth="yes"/>
      <point x="427" y="355"/>
      <point x="416" y="379"/>
      <point x="393" y="379" type="curve" smooth="yes"/>
      <point x="312" y="379"/>
      <point x="234" y="269"/>
      <point x="168" y="117" type="curve"/>
      <point x="182" y="201"/>
      <point x="203" y="293"/>
      <point x="203" y="354" type="curve" smooth="yes"/>
      <point x="203" y="371"/>
      <point x="195" y="373"/>
      <point x="185" y="373" type="curve" smooth="yes"/>
      <point x="136" y="373"/>
      <point x="15" y="265"/>
      <point x="15" y="255" type="curve" smooth="yes"/>
    </contour>
  </outline>
</glyph>
<glyph name="o" format="1">
  <advance width="419"/>
  <unicode hex="006F"/>
  <outline>
    <contour>
      <point x="25" y="62"/>
      <point x="71" y="-8"/>
      <point x="165" y="-8" type="curve" smooth="yes"/>
      <point x="291" y="-8"/>
      <point x="394" y="115"/>
      <point x="394" y="238" type="curve" smooth="yes"/>
      <point x="394" y="300"/>
      <point x="362" y="397"/>
      <point x="256" y="397" type="curve" smooth="yes"/>
      <point x="123" y="397"/>
      <point x="25" y="284"/>
      <point x="25" y="138" type="curve" smooth="yes"/>
    </contour>
    <contour>
      <point x="87" y="234"/>
      <point x="165" y="374"/>
      <point x="245" y="374" type="curve" smooth="yes"/>
      <point x="318" y="374"/>
      <point x="331" y="312"/>
      <point x="331" y="278" type="curve" smooth="yes"/>
      <point x="331" y="188"/>
      <point x="265" y="16"/>
      <point x="167" y="16" type="curve" smooth="yes"/>
      <point x="89" y="16"/>
      <point x="87" y="104"/>
      <point x="87" y="146" type="curve" smooth="yes"/>
    </contour>
  </outline>
</glyph>
<glyph name="q" format="1">
  <advance width="455"/>
  <unicode hex="0071"/>
  <outline>
    <contour>
      <point x="25" y="0"/>
      <point x="93" y="-7"/>
      <point x="109" y="-7" type="curve" smooth="yes"/>
      <point x="161" y="-7"/>
      <point x="209" y="45"/>
      <point x="247" y="98" type="curve" smooth="yes"/>
      <point x="298" y="168"/>
      <point x="329" y="237"/>
      <point x="329" y="237" type="curve"/>
      <point x="261" y="-136"/>
      <point x="258" y="-125"/>
      <point x="236" y="-229" type="curve" smooth="yes"/>
      <point x="231" y="-253"/>
      <point x="229" y="-251"/>
      <point x="204" y="-255" type="curve" smooth="yes"/>
      <point x="188" y="-258"/>
      <point x="184" y="-258"/>
      <point x="183" y="-276" type="curve" smooth="yes"/>
      <point x="182" y="-288"/>
      <point x="189" y="-288"/>
      <point x="196" y="-288" type="curve" smooth="yes"/>
      <point x="201" y="-288"/>
      <point x="252" y="-281"/>
      <point x="283" y="-281" type="curve" smooth="yes"/>
      <point x="326" y="-281"/>
      <point x="363" y="-284"/>
      <point x="368" y="-284" type="curve" smooth="yes"/>
      <point x="385" y="-284"/>
      <point x="384" y="-278"/>
      <point x="384" y="-265" type="curve" smooth="yes"/>
      <point x="384" y="-256"/>
      <point x="383" y="-250"/>
      <point x="372" y="-249" type="curve" smooth="yes"/>
      <point x="353" y="-247"/>
      <point x="339" y="-247"/>
      <point x="320" y="-247" type="curve" smooth="yes"/>
      <point x="312" y="-247"/>
      <point x="306" y="-245"/>
      <point x="306" y="-236" type="curve" smooth="yes"/>
      <point x="306" y="-223"/>
      <point x="360" y="73"/>
      <point x="396" y="279" type="curve"/>
      <point x="397" y="287"/>
      <point x="400" y="297"/>
      <point x="403" y="304" type="curve" smooth="yes"/>
      <point x="417" y="334"/>
      <point x="430" y="359"/>
      <point x="430" y="365" type="curve" smooth="yes"/>
      <point x="430" y="372"/>
      <point x="425" y="376"/>
      <point x="420" y="375" type="curve" smooth="yes"/>
      <point x="408" y="373"/>
      <point x="395" y="364"/>
      <point x="390" y="362" type="curve"/>
      <point x="380" y="356"/>
      <point x="377" y="355"/>
      <point x="374" y="355" type="curve" smooth="yes"/>
      <point x="371" y="355"/>
      <point x="369" y="357"/>
      <point x="360" y="361" type="curve" smooth="yes"/>
      <point x="342" y="369"/>
      <point x="310" y="381"/>
      <point x="274" y="381" type="curve" smooth="yes"/>
      <point x="118" y="381"/>
      <point x="25" y="166"/>
      <point x="25" y="74" type="curve" smooth="yes"/>
    </contour>
    <contour>
      <point x="89" y="173"/>
      <point x="185" y="361"/>
      <point x="274" y="361" type="curve" smooth="yes"/>
      <point x="319" y="361"/>
      <point x="342" y="330"/>
      <point x="342" y="318" type="curve" smooth="yes"/>
      <point x="342" y="288"/>
      <point x="299" y="218"/>
      <point x="278" y="186" type="curve" smooth="yes"/>
      <point x="231" y="118"/>
      <point x="172" y="40"/>
      <point x="136" y="40" type="curve" smooth="yes"/>
      <point x="112" y="40"/>
      <point x="89" y="62"/>
      <point x="89" y="99" type="curve" smooth="yes"/>
    </contour>
  </outline>
</glyph>
<glyph name="v" format="1">
  <advance width="443"/>
  <unicode hex="0076"/>
  <outline>
    <contour>
      <point x="10" y="295"/>
      <point x="20" y="286"/>
      <point x="27" y="286" type="curve" smooth="yes"/>
      <point x="31" y="286"/>
      <point x="72" y="350"/>
      <point x="106" y="350" type="curve" smooth="yes"/>
      <point x="110" y="350"/>
      <point x="123" y="346"/>
      <point x="130" y="342" type="curve"/>
      <point x="139" y="336"/>
      <point x="140" y="329"/>
      <point x="140" y="319" type="curve" smooth="yes"/>
      <point x="140" y="256"/>
      <point x="120" y="137"/>
      <point x="120" y="97" type="curve" smooth="yes"/>
      <point x="120" y="50"/>
      <point x="131" y="38"/>
      <point x="159" y="16" type="curve" smooth="yes"/>
      <point x="169" y="8"/>
      <point x="188" y="-5"/>
      <point x="200" y="-5" type="curve" smooth="yes"/>
      <point x="211" y="-5"/>
      <point x="216" y="1"/>
      <point x="224" y="14" type="curve" smooth="yes"/>
      <point x="230" y="24"/>
      <point x="240" y="39"/>
      <point x="247" y="48" type="curve" smooth="yes"/>
      <point x="326" y="149"/>
      <point x="418" y="260"/>
      <point x="418" y="361" type="curve" smooth="yes"/>
      <point x="418" y="396"/>
      <point x="400" y="401"/>
      <point x="378" y="401" type="curve" smooth="yes"/>
      <point x="350" y="401"/>
      <point x="280" y="384"/>
      <point x="280" y="378" type="curve" smooth="yes"/>
      <point x="280" y="367"/>
      <point x="285" y="362"/>
      <point x="286" y="362" type="curve" smooth="yes"/>
      <point x="289" y="362"/>
      <point x="321" y="371"/>
      <point x="345" y="371" type="curve" smooth="yes"/>
      <point x="360" y="371"/>
      <point x="370" y="363"/>
      <point x="370" y="331" type="curve" smooth="yes"/>
      <point x="370" y="253"/>
      <point x="311" y="174"/>
      <point x="268" y="116" type="curve" smooth="yes"/>
      <point x="256" y="100"/>
      <point x="244" y="83"/>
      <point x="237" y="75" type="curve"/>
      <point x="229" y="65"/>
      <point x="219" y="64"/>
      <point x="214" y="64" type="curve" smooth="yes"/>
      <point x="209" y="64"/>
      <point x="180" y="82"/>
      <point x="180" y="100" type="curve" smooth="yes"/>
      <point x="180" y="138"/>
      <point x="205" y="268"/>
      <point x="205" y="337" type="curve" smooth="yes"/>
      <point x="205" y="359"/>
      <point x="196" y="365"/>
      <point x="166" y="382" type="curve" smooth="yes"/>
      <point x="156" y="388"/>
      <point x="135" y="392"/>
      <point x="124" y="392" type="curve" smooth="yes"/>
      <point x="88" y="392"/>
      <point x="10" y="310"/>
      <point x="10" y="299" type="curve" smooth="yes"/>
    </contour>
  </outline>
</glyph>
<glyph name="x" format="1">
  <advance width="458"/>
  <unicode hex="0078"/>
  <outline>
    <contour>
      <point x="15" y="5"/>
      <point x="31" y="-3"/>
      <point x="49" y="-3" type="curve" smooth="yes"/>
      <point x="113" y="-3"/>
      <point x="180" y="109"/>
      <point x="220" y="155" type="curve" smooth="yes"/>
      <point x="226" y="162"/>
      <point x="227" y="168"/>
      <point x="231" y="157" type="curve" smooth="yes"/>
      <point x="261" y="71"/>
      <point x="278" y="-3"/>
      <point x="331" y="-3" type="curve" smooth="yes"/>
      <point x="381" y="-3"/>
      <point x="443" y="91"/>
      <point x="443" y="110" type="curve" smooth="yes"/>
      <point x="443" y="114"/>
      <point x="430" y="118"/>
      <point x="426" y="118" type="curve" smooth="yes"/>
      <point x="423" y="118"/>
      <point x="393" y="52"/>
      <point x="365" y="52" type="curve" smooth="yes"/>
      <point x="331" y="52"/>
      <point x="292" y="160"/>
      <point x="277" y="204" type="curve"/>
      <point x="274" y="214"/>
      <point x="274" y="217"/>
      <point x="279" y="224" type="curve" smooth="yes"/>
      <point x="311" y="272"/>
      <point x="371" y="357"/>
      <point x="400" y="357" type="curve" smooth="yes"/>
      <point x="410" y="357"/>
      <point x="417" y="350"/>
      <point x="417" y="332" type="curve" smooth="yes"/>
      <point x="417" y="322"/>
      <point x="416" y="311"/>
      <point x="416" y="300" type="curve" smooth="yes"/>
      <point x="416" y="297"/>
      <point x="432" y="295"/>
      <point x="433" y="300" type="curve"/>
      <point x="435" y="314"/>
      <point x="441" y="336"/>
      <point x="441" y="356" type="curve" smooth="yes"/>
      <point x="441" y="377"/>
      <point x="432" y="396"/>
      <point x="416" y="396" type="curve" smooth="yes"/>
      <point x="357" y="396"/>
      <point x="308" y="303"/>
      <point x="274" y="250" type="curve" smooth="yes"/>
      <point x="268" y="240"/>
      <point x="266" y="235"/>
      <point x="261" y="248" type="curve" smooth="yes"/>
      <point x="227" y="338"/>
      <point x="214" y="388"/>
      <point x="148" y="388" type="curve" smooth="yes"/>
      <point x="83" y="388"/>
      <point x="29" y="309"/>
      <point x="29" y="304" type="curve" smooth="yes"/>
      <point x="29" y="299"/>
      <point x="35" y="291"/>
      <point x="40" y="291" type="curve" smooth="yes"/>
      <point x="48" y="291"/>
      <point x="83" y="348"/>
      <point x="115" y="348" type="curve" smooth="yes"/>
      <point x="157" y="348"/>
      <point x="190" y="270"/>
      <point x="215" y="200" type="curve" smooth="yes"/>
      <point x="219" y="188"/>
      <point x="219" y="188"/>
      <point x="213" y="179" type="curve"/>
      <point x="188" y="145"/>
      <point x="107" y="43"/>
      <point x="74" y="43" type="curve" smooth="yes"/>
      <point x="63" y="43"/>
      <point x="53" y="50"/>
      <point x="53" y="65" type="curve" smooth="yes"/>
      <point x="53" y="86"/>
      <point x="63" y="107"/>
      <point x="63" y="111" type="curve" smooth="yes"/>
      <point x="63" y="116"/>
      <point x="51" y="119"/>
      <point x="49" y="119" type="curve" smooth="yes"/>
      <point x="45" y="119"/>
      <point x="43" y="117"/>
      <point x="41" y="114" type="curve"/>
      <point x="27" y="83"/>
      <point x="15" y="46"/>
      <point x="15" y="23" type="curve" smooth="yes"/>
    </contour>
  </outline>
</glyph>
<glyph name="braceleft" format="1">
  <advance width="307"/>
  <unicode hex="007B"/>
  <outline>
    <contour>
      <point x="40" y="245"/>
      <point x="117" y="297"/>
      <point x="117" y="132" type="curve" smooth="yes"/>
      <point x="117" y="52" type="line" smooth="yes"/>
      <point x="117" y="-81"/>
      <point x="118" y="-141"/>
      <point x="255" y="-141" type="curve" smooth="yes"/>
      <point x="265" y="-141"/>
      <point x="267" y="-140"/>
      <point x="267" y="-128" type="curve" smooth="yes"/>
      <point x="267" y="-115"/>
      <point x="263" y="-115"/>
      <point x="253" y="-115" type="curve" smooth="yes"/>
      <point x="201" y="-115"/>
      <point x="169" y="-100"/>
      <point x="169" y="-23" type="curve" smooth="yes"/>
      <point x="169" y="126" type="line" smooth="yes"/>
      <point x="169" y="213"/>
      <point x="166" y="249"/>
      <point x="111" y="267" type="curve"/>
      <point x="101" y="271"/>
      <point x="96" y="271"/>
      <point x="96" y="274" type="curve" smooth="yes"/>
      <point x="96" y="277"/>
      <point x="101" y="277"/>
      <point x="111" y="281" type="curve"/>
      <point x="166" y="299"/>
      <point x="169" y="335"/>
      <point x="169" y="422" type="curve" smooth="yes"/>
      <point x="169" y="571" type="line" smooth="yes"/>
      <point x="169" y="648"/>
      <point x="201" y="663"/>
      <point x="253" y="663" type="curve" smooth="yes"/>
      <point x="263" y="663"/>
      <point x="267" y="663"/>
      <point x="267" y="676" type="curve" smooth="yes"/>
      <point x="267" y="688"/>
      <point x="265" y="689"/>
      <point x="255" y="689" type="curve" smooth="yes"/>
      <point x="118" y="689"/>
      <point x="117" y="629"/>
      <point x="117" y="496" type="curve" smooth="yes"/>
      <point x="117" y="416" type="line" smooth="yes"/>
      <point x="117" y="251"/>
      <point x="40" y="303"/>
      <point x="40" y="274" type="curve" smooth="yes"/>
    </contour>
  </outline>
</glyph>
<glyph name="braceright" format="1">
  <advance width="307"/>
  <unicode hex="007D"/>
  <outline>
    <contour>
      <point x="40" y="-140"/>
      <point x="42" y="-141"/>
      <point x="52" y="-141" type="curve" smooth="yes"/>
      <point x="189" y="-141"/>
      <point x="190" y="-81"/>
      <point x="190" y="52" type="curve" smooth="yes"/>
      <point x="190" y="132" type="line" smooth="yes"/>
      <point x="190" y="297"/>
      <point x="267" y="245"/>
      <point x="267" y="274" type="curve" smooth="yes"/>
      <point x="267" y="303"/>
      <point x="190" y="251"/>
      <point x="190" y="416" type="curve" smooth="yes"/>
      <point x="190" y="496" type="line" smooth="yes"/>
      <point x="190" y="629"/>
      <point x="189" y="689"/>
      <point x="52" y="689" type="curve" smooth="yes"/>
      <point x="42" y="689"/>
      <point x="40" y="688"/>
      <point x="40" y="676" type="curve" smooth="yes"/>
      <point x="40" y="663"/>
      <point x="44" y="663"/>
      <point x="54" y="663" type="curve" smooth="yes"/>
      <point x="106" y="663"/>
      <point x="138" y="648"/>
      <point x="138" y="571" type="curve" smooth="yes"/>
      <point x="138" y="422" type="line" smooth="yes"/>
      <point x="138" y="335"/>
      <point x="141" y="299"/>
      <point x="196" y="281" type="curve"/>
      <point x="206" y="277"/>
      <point x="211" y="277"/>
      <point x="211" y="274" type="curve" smooth="yes"/>
      <point x="211" y="271"/>
      <point x="206" y="271"/>
      <point x="196" y="267" type="curve"/>
      <point x="141" y="249"/>
      <point x="138" y="213"/>
      <point x="138" y="126" type="curve" smooth="yes"/>
      <point x="138" y="-23" type="line" smooth="yes"/>
      <point x="138" y="-100"/>
      <point x="106" y="-115"/>
      <point x="54" y="-115" type="curve" smooth="yes"/>
      <point x="44" y="-115"/>
      <point x="40" y="-115"/>
      <point x="40" y="-128" type="curve" smooth="yes"/>
    </contour>
  </outline>
</glyph>
<glyph name="asciitilde" format="1">
  <advance width="793"/>
  <unicode hex="007E"/>
  <outline>
    <contour>
      <point x="45" y="111"/>
      <point x="47" y="112"/>
      <point x="55" y="110" type="curve" smooth="yes"/>
      <point x="59" y="109"/>
      <point x="63" y="108"/>
      <point x="65" y="108" type="curve" smooth="yes"/>
      <point x="69" y="108"/>
      <point x="69" y="112"/>
      <point x="72" y="122" type="curve"/>
      <point x="80" y="157"/>
      <point x="108" y="248"/>
      <point x="184" y="248" type="curve" smooth="yes"/>
      <point x="304" y="248"/>
      <point x="414" y="110"/>
      <point x="562" y="110" type="curve" smooth="yes"/>
      <point x="676" y="110"/>
      <point x="726" y="217"/>
      <point x="742" y="281" type="curve"/>
      <point x="743" y="284"/>
      <point x="743" y="286"/>
      <point x="743" y="287" type="curve" smooth="yes"/>
      <point x="743" y="292"/>
      <point x="740" y="292"/>
      <point x="732" y="294" type="curve"/>
      <point x="721" y="296"/>
      <point x="720" y="298"/>
      <point x="717" y="287" type="curve" smooth="yes"/>
      <point x="708" y="257"/>
      <point x="672" y="152"/>
      <point x="597" y="152" type="curve" smooth="yes"/>
      <point x="481" y="152"/>
      <point x="371" y="296"/>
      <point x="228" y="296" type="curve" smooth="yes"/>
      <point x="107" y="296"/>
      <point x="62" y="181"/>
      <point x="49" y="134" type="curve"/>
      <point x="47" y="128"/>
      <point x="45" y="119"/>
      <point x="45" y="117" type="curve" smooth="yes"/>
    </contour>
  </outline>
</glyph>
<glyph name="exclamdown" format="1">
  <advance width="220"/>
  <unicode hex="00A1"/>
  <outline>
    <contour>
      <point x="5" y="-2"/>
      <point x="11" y="-8"/>
      <point x="30" y="-8" type="curve" smooth="yes"/>
      <point x="35" y="-8" type="line" smooth="yes"/>
      <point x="48" y="-8"/>
      <point x="63" y="-4"/>
      <point x="64" y="14" type="curve" smooth="yes"/>
      <point x="69" y="75"/>
      <point x="76" y="141"/>
      <point x="98" y="316" type="curve" smooth="yes"/>
      <point x="110" y="412"/>
      <point x="118" y="495"/>
      <point x="118" y="499" type="curve" smooth="yes"/>
      <point x="118" y="503"/>
      <point x="113" y="503"/>
      <point x="105" y="503" type="curve" smooth="yes"/>
      <point x="101" y="503"/>
      <point x="94" y="503"/>
      <point x="93" y="498" type="curve"/>
      <point x="47" y="211"/>
      <point x="16" y="61"/>
      <point x="7" y="21" type="curve" smooth="yes"/>
      <point x="6" y="16"/>
      <point x="5" y="13"/>
      <point x="5" y="9" type="curve" smooth="yes"/>
    </contour>
    <contour>
      <point x="65" y="586"/>
      <point x="91" y="559"/>
      <point x="109" y="559" type="curve" smooth="yes"/>
      <point x="128" y="559"/>
      <point x="155" y="585"/>
      <point x="155" y="611" type="curve" smooth="yes"/>
      <point x="155" y="626"/>
      <point x="133" y="657"/>
      <point x="105" y="657" type="curve" smooth="yes"/>
      <point x="95" y="657"/>
      <point x="65" y="641"/>
      <point x="65" y="606" type="curve" smooth="yes"/>
    </contour>
  </outline>
</glyph>
<glyph name="cent" format="1">
  <advance width="407"/>
  <unicode hex="00A2"/>
  <outline>
    <contour>
      <point x="42" y="68"/>
      <point x="86" y="9"/>
      <point x="162" y="-6" type="curve" smooth="yes"/>
      <point x="172" y="-8"/>
      <point x="173" y="-6"/>
      <point x="172" y="-18" type="curve"/>
      <point x="162" y="-81"/>
      <point x="154" y="-125"/>
      <point x="154" y="-128" type="curve" smooth="yes"/>
      <point x="154" y="-130"/>
      <point x="167" y="-130"/>
      <point x="170" y="-130" type="curve" smooth="yes"/>
      <point x="171" y="-130"/>
      <point x="179" y="-85"/>
      <point x="190" y="-18" type="curve"/>
      <point x="192" y="-11"/>
      <point x="193" y="-10"/>
      <point x="198" y="-10" type="curve" smooth="yes"/>
      <point x="202" y="-10" type="line" smooth="yes"/>
      <point x="294" y="-10"/>
      <point x="354" y="50"/>
      <point x="355" y="56" type="curve" smooth="yes"/>
      <point x="356" y="62"/>
      <point x="353" y="64"/>
      <point x="349" y="64" type="curve" smooth="yes"/>
      <point x="342" y="64"/>
      <point x="298" y="34"/>
      <point x="234" y="34" type="curve" smooth="yes"/>
      <point x="225" y="34"/>
      <point x="215" y="35"/>
      <point x="207" y="37" type="curve"/>
      <point x="201" y="38"/>
      <point x="202" y="41"/>
      <point x="203" y="48" type="curve" smooth="yes"/>
      <point x="254" y="360" type="line"/>
      <point x="256" y="367"/>
      <point x="257" y="371"/>
      <point x="262" y="371" type="curve" smooth="yes"/>
      <point x="263" y="371"/>
      <point x="264" y="371"/>
      <point x="266" y="370" type="curve"/>
      <point x="304" y="360"/>
      <point x="304" y="320"/>
      <point x="314" y="281" type="curve" smooth="yes"/>
      <point x="316" y="272"/>
      <point x="322" y="270"/>
      <point x="329" y="270" type="curve" smooth="yes"/>
      <point x="337" y="270"/>
      <point x="349" y="276"/>
      <point x="358" y="283" type="curve" smooth="yes"/>
      <point x="367" y="290"/>
      <point x="369" y="296"/>
      <point x="369" y="308" type="curve" smooth="yes"/>
      <point x="369" y="352"/>
      <point x="323" y="389"/>
      <point x="272" y="398" type="curve"/>
      <point x="263" y="400"/>
      <point x="261" y="399"/>
      <point x="262" y="405" type="curve"/>
      <point x="262" y="411" type="line"/>
      <point x="276" y="490" type="line"/>
      <point x="276" y="493"/>
      <point x="259" y="493"/>
      <point x="257" y="493" type="curve" smooth="yes"/>
      <point x="256" y="493"/>
      <point x="255" y="491"/>
      <point x="255" y="487" type="curve"/>
      <point x="253" y="476"/>
      <point x="249" y="448"/>
      <point x="243" y="411" type="curve" smooth="yes"/>
      <point x="241" y="400"/>
      <point x="241" y="398"/>
      <point x="231" y="397" type="curve" smooth="yes"/>
      <point x="142" y="385"/>
      <point x="42" y="302"/>
      <point x="42" y="153" type="curve" smooth="yes"/>
    </contour>
    <contour>
      <point x="104" y="265"/>
      <point x="152" y="354"/>
      <point x="224" y="370" type="curve" smooth="yes"/>
      <point x="228" y="371"/>
      <point x="230" y="371"/>
      <point x="232" y="371" type="curve" smooth="yes"/>
      <point x="235" y="371"/>
      <point x="234" y="369"/>
      <point x="234" y="366" type="curve" smooth="yes"/>
      <point x="234" y="360" type="line"/>
      <point x="183" y="52" type="line" smooth="yes"/>
      <point x="182" y="46"/>
      <point x="182" y="45"/>
      <point x="180" y="45" type="curve" smooth="yes"/>
      <point x="178" y="45"/>
      <point x="177" y="46"/>
      <point x="173" y="48" type="curve" smooth="yes"/>
      <point x="127" y="73"/>
      <point x="104" y="126"/>
      <point x="104" y="182" type="curve" smooth="yes"/>
    </contour>
  </outline>
</glyph>
<glyph name="sterling" format="1">
  <advance width="489"/>
  <unicode hex="00A3"/>
  <outline>
    <contour>
      <point x="20" y="-30"/>
      <point x="29" y="-34"/>
      <point x="36" y="-34" type="curve" smooth="yes"/>
      <point x="63" y="-34"/>
      <point x="92" y="14"/>
      <point x="110" y="14" type="curve" smooth="yes"/>
      <point x="129" y="14"/>
      <point x="287" y="-14"/>
      <point x="342" y="-14" type="curve" smooth="yes"/>
      <point x="399" y="-14"/>
      <point x="464" y="13"/>
      <point x="464" y="78" type="curve" smooth="yes"/>
      <point x="464" y="100"/>
      <point x="454" y="126"/>
      <point x="434" y="126" type="curve" smooth="yes"/>
      <point x="428" y="126"/>
      <point x="422" y="126"/>
      <point x="418" y="124" type="curve"/>
      <point x="405" y="119"/>
      <point x="404" y="116"/>
      <point x="412" y="106" type="curve" smooth="yes"/>
      <point x="421" y="95"/>
      <point x="438" y="80"/>
      <point x="438" y="63" type="curve" smooth="yes"/>
      <point x="438" y="31"/>
      <point x="408" y="26"/>
      <point x="381" y="26" type="curve" smooth="yes"/>
      <point x="350" y="26"/>
      <point x="248" y="49"/>
      <point x="196" y="49" type="curve" smooth="yes"/>
      <point x="185" y="49"/>
      <point x="158" y="47"/>
      <point x="142" y="40" type="curve"/>
      <point x="134" y="37"/>
      <point x="118" y="30"/>
      <point x="118" y="34" type="curve" smooth="yes"/>
      <point x="118" y="36"/>
      <point x="126" y="52"/>
      <point x="127" y="55" type="curve"/>
      <point x="141" y="83"/>
      <point x="170" y="144"/>
      <point x="188" y="232" type="curve"/>
      <point x="192" y="248"/>
      <point x="188" y="248"/>
      <point x="204" y="248" type="curve" smooth="yes"/>
      <point x="311" y="248" type="line" smooth="yes"/>
      <point x="319" y="248"/>
      <point x="322" y="250"/>
      <point x="322" y="260" type="curve" smooth="yes"/>
      <point x="322" y="271"/>
      <point x="322" y="272"/>
      <point x="315" y="272" type="curve" smooth="yes"/>
      <point x="208" y="272" type="line" smooth="yes"/>
      <point x="194" y="272"/>
      <point x="194" y="270"/>
      <point x="195" y="282" type="curve" smooth="yes"/>
      <point x="202" y="353"/>
      <point x="210" y="444"/>
      <point x="230" y="519" type="curve" smooth="yes"/>
      <point x="245" y="575"/>
      <point x="276" y="629"/>
      <point x="346" y="629" type="curve" smooth="yes"/>
      <point x="388" y="629"/>
      <point x="420" y="600"/>
      <point x="420" y="579" type="curve" smooth="yes"/>
      <point x="420" y="559"/>
      <point x="413" y="540"/>
      <point x="413" y="522" type="curve" smooth="yes"/>
      <point x="413" y="505"/>
      <point x="420" y="484"/>
      <point x="438" y="484" type="curve" smooth="yes"/>
      <point x="462" y="484"/>
      <point x="463" y="522"/>
      <point x="463" y="546" type="curve" smooth="yes"/>
      <point x="463" y="621"/>
      <point x="411" y="653"/>
      <point x="355" y="653" type="curve" smooth="yes"/>
      <point x="327" y="653"/>
      <point x="298" y="646"/>
      <point x="275" y="635" type="curve" smooth="yes"/>
      <point x="203" y="599"/>
      <point x="163" y="514"/>
      <point x="150" y="422" type="curve" smooth="yes"/>
      <point x="138" y="339"/>
      <point x="137" y="289"/>
      <point x="136" y="281" type="curve" smooth="yes"/>
      <point x="135" y="273"/>
      <point x="138" y="272"/>
      <point x="124" y="272" type="curve" smooth="yes"/>
      <point x="53" y="272" type="line" smooth="yes"/>
      <point x="47" y="272"/>
      <point x="46" y="271"/>
      <point x="45" y="261" type="curve" smooth="yes"/>
      <point x="44" y="249"/>
      <point x="46" y="248"/>
      <point x="51" y="248" type="curve" smooth="yes"/>
      <point x="117" y="248" type="line" smooth="yes"/>
      <point x="132" y="248"/>
      <point x="132" y="248"/>
      <point x="132" y="232" type="curve" smooth="yes"/>
      <point x="131" y="196"/>
      <point x="125" y="153"/>
      <point x="119" y="112" type="curve" smooth="yes"/>
      <point x="114" y="80"/>
      <point x="103" y="23"/>
      <point x="81" y="19" type="curve" smooth="yes"/>
      <point x="62" y="16"/>
      <point x="20" y="12"/>
      <point x="20" y="-16" type="curve" smooth="yes"/>
    </contour>
  </outline>
</glyph>
<glyph name="yen" format="1">
  <advance width="613"/>
  <unicode hex="00A5"/>
  <outline>
    <contour>
      <point x="20" y="639"/>
      <point x="26" y="639"/>
      <point x="38" y="639" type="curve" smooth="yes"/>
      <point x="85" y="639" type="line"/>
      <point x="203" y="369" type="line"/>
      <point x="93" y="369" type="line" smooth="yes"/>
      <point x="89" y="369"/>
      <point x="90" y="345"/>
      <point x="93" y="345" type="curve" smooth="yes"/>
      <point x="213" y="345" type="line"/>
      <point x="224" y="319"/>
      <point x="231" y="302"/>
      <point x="231" y="301" type="curve" smooth="yes"/>
      <point x="231" y="296"/>
      <point x="231" y="287"/>
      <point x="226" y="260" type="curve" smooth="yes"/>
      <point x="224" y="247" type="line"/>
      <point x="73" y="247" type="line" smooth="yes"/>
      <point x="69" y="247"/>
      <point x="70" y="223"/>
      <point x="73" y="223" type="curve" smooth="yes"/>
      <point x="220" y="223" type="line"/>
      <point x="193" y="66"/>
      <point x="188" y="27"/>
      <point x="181" y="27" type="curve" smooth="yes"/>
      <point x="139" y="27" type="line" smooth="yes"/>
      <point x="123" y="27"/>
      <point x="121" y="25"/>
      <point x="121" y="13" type="curve" smooth="yes"/>
      <point x="121" y="0"/>
      <point x="122" y="-3"/>
      <point x="135" y="-3" type="curve" smooth="yes"/>
      <point x="158" y="-3"/>
      <point x="199" y="0"/>
      <point x="229" y="0" type="curve" smooth="yes"/>
      <point x="259" y="0"/>
      <point x="311" y="-3"/>
      <point x="334" y="-3" type="curve" smooth="yes"/>
      <point x="344" y="-3"/>
      <point x="345" y="-1"/>
      <point x="345" y="14" type="curve" smooth="yes"/>
      <point x="345" y="26"/>
      <point x="345" y="27"/>
      <point x="334" y="27" type="curve" smooth="yes"/>
      <point x="271" y="27" type="line" smooth="yes"/>
      <point x="265" y="27"/>
      <point x="266" y="32"/>
      <point x="266" y="40" type="curve" smooth="yes"/>
      <point x="266" y="44"/>
      <point x="279" y="128"/>
      <point x="295" y="223" type="curve"/>
      <point x="456" y="223" type="line" smooth="yes"/>
      <point x="460" y="223"/>
      <point x="460" y="247"/>
      <point x="456" y="247" type="curve" smooth="yes"/>
      <point x="299" y="247" type="line"/>
      <point x="310" y="310" type="line"/>
      <point x="312" y="319"/>
      <point x="314" y="325"/>
      <point x="318" y="332" type="curve"/>
      <point x="327" y="345" type="line"/>
      <point x="476" y="345" type="line" smooth="yes"/>
      <point x="480" y="345"/>
      <point x="480" y="369"/>
      <point x="476" y="369" type="curve" smooth="yes"/>
      <point x="343" y="369" type="line"/>
      <point x="412" y="469"/>
      <point x="537" y="639"/>
      <point x="541" y="639" type="curve" smooth="yes"/>
      <point x="577" y="639" type="line" smooth="yes"/>
      <point x="589" y="639"/>
      <point x="593" y="639"/>
      <point x="593" y="654" type="curve" smooth="yes"/>
      <point x="593" y="669"/>
      <point x="590" y="669"/>
      <point x="577" y="669" type="curve" smooth="yes"/>
      <point x="561" y="669"/>
      <point x="533" y="666"/>
      <point x="503" y="666" type="curve" smooth="yes"/>
      <point x="473" y="666"/>
      <point x="448" y="669"/>
      <point x="425" y="669" type="curve" smooth="yes"/>
      <point x="412" y="669"/>
      <point x="411" y="668"/>
      <point x="411" y="651" type="curve" smooth="yes"/>
      <point x="411" y="639"/>
      <point x="413" y="639"/>
      <point x="429" y="639" type="curve" smooth="yes"/>
      <point x="482" y="639" type="line" smooth="yes"/>
      <point x="483" y="639"/>
      <point x="482" y="638"/>
      <point x="482" y="636" type="curve" smooth="yes"/>
      <point x="482" y="612"/>
      <point x="358" y="436"/>
      <point x="311" y="365" type="curve"/>
      <point x="305" y="355"/>
      <point x="299" y="347"/>
      <point x="295" y="347" type="curve" smooth="yes"/>
      <point x="292" y="347"/>
      <point x="291" y="351"/>
      <point x="287" y="359" type="curve"/>
      <point x="259" y="428"/>
      <point x="200" y="571"/>
      <point x="184" y="624" type="curve" smooth="yes"/>
      <point x="180" y="639"/>
      <point x="177" y="639"/>
      <point x="192" y="639" type="curve" smooth="yes"/>
      <point x="223" y="639" type="line" smooth="yes"/>
      <point x="239" y="639"/>
      <point x="241" y="639"/>
      <point x="241" y="651" type="curve" smooth="yes"/>
      <point x="241" y="668"/>
      <point x="240" y="669"/>
      <point x="227" y="669" type="curve" smooth="yes"/>
      <point x="204" y="669"/>
      <point x="169" y="666"/>
      <point x="139" y="666" type="curve" smooth="yes"/>
      <point x="109" y="666"/>
      <point x="54" y="669"/>
      <point x="38" y="669" type="curve" smooth="yes"/>
      <point x="25" y="669"/>
      <point x="20" y="669"/>
      <point x="20" y="654" type="curve" smooth="yes"/>
    </contour>
  </outline>
</glyph>
<glyph name="dieresis" format="1">
  <advance width="400"/>
  <unicode hex="00A8"/>
  <outline>
    <contour>
      <point x="89" y="514"/>
      <point x="104" y="487"/>
      <point x="133" y="487" type="curve" smooth="yes"/>
      <point x="157" y="487"/>
      <point x="174" y="507"/>
      <point x="174" y="533" type="curve" smooth="yes"/>
      <point x="174" y="554"/>
      <point x="159" y="581"/>
      <point x="130" y="581" type="curve" smooth="yes"/>
      <point x="104" y="581"/>
      <point x="89" y="561"/>
      <point x="89" y="535" type="curve" smooth="yes"/>
    </contour>
    <contour>
      <point x="229" y="514"/>
      <point x="244" y="487"/>
      <point x="273" y="487" type="curve" smooth="yes"/>
      <point x="297" y="487"/>
      <point x="314" y="507"/>
      <point x="314" y="533" type="curve" smooth="yes"/>
      <point x="314" y="554"/>
      <point x="299" y="581"/>
      <point x="270" y="581" type="curve" smooth="yes"/>
      <point x="244" y="581"/>
      <point x="229" y="561"/>
      <point x="229" y="535" type="curve" smooth="yes"/>
    </contour>
  </outline>
</glyph>
<glyph name="guillemotleft" format="1">
  <advance width="408"/>
  <unicode hex="00AB"/>
  <outline>
    <contour>
      <point x="50" y="188"/>
      <point x="76" y="165"/>
      <point x="105" y="138" type="curve" smooth="yes"/>
      <point x="143" y="103"/>
      <point x="183" y="62"/>
      <point x="184" y="62" type="curve" smooth="yes"/>
      <point x="186" y="62"/>
      <point x="198" y="72"/>
      <point x="198" y="74" type="curve" smooth="yes"/>
      <point x="198" y="82"/>
      <point x="136" y="181"/>
      <point x="136" y="193" type="curve" smooth="yes"/>
      <point x="136" y="205"/>
      <point x="198" y="304"/>
      <point x="198" y="312" type="curve" smooth="yes"/>
      <point x="198" y="314"/>
      <point x="186" y="324"/>
      <point x="184" y="324" type="curve" smooth="yes"/>
      <point x="183" y="324"/>
      <point x="143" y="283"/>
      <point x="105" y="248" type="curve" smooth="yes"/>
      <point x="76" y="221"/>
      <point x="50" y="198"/>
      <point x="50" y="193" type="curve" smooth="yes"/>
    </contour>
    <contour>
      <point x="200" y="188"/>
      <point x="226" y="165"/>
      <point x="255" y="138" type="curve" smooth="yes"/>
      <point x="293" y="103"/>
      <point x="333" y="62"/>
      <point x="334" y="62" type="curve" smooth="yes"/>
      <point x="336" y="62"/>
      <point x="348" y="72"/>
      <point x="348" y="74" type="curve" smooth="yes"/>
      <point x="348" y="82"/>
      <point x="286" y="181"/>
      <point x="286" y="193" type="curve" smooth="yes"/>
      <point x="286" y="205"/>
      <point x="348" y="304"/>
      <point x="348" y="312" type="curve" smooth="yes"/>
      <point x="348" y="314"/>
      <point x="336" y="324"/>
      <point x="334" y="324" type="curve" smooth="yes"/>
      <point x="333" y="324"/>
      <point x="293" y="283"/>
      <point x="255" y="248" type="curve" smooth="yes"/>
      <point x="226" y="221"/>
      <point x="200" y="198"/>
      <point x="200" y="193" type="curve" smooth="yes"/>
    </contour>
  </outline>
</glyph>
<glyph name="registered" format="1">
  <advance width="536"/>
  <unicode hex="00AE"/>
  <outline>
    <contour>
      <point x="25" y="332"/>
      <point x="130" y="223"/>
      <point x="268" y="223" type="curve" smooth="yes"/>
      <point x="406" y="223"/>
      <point x="511" y="332"/>
      <point x="511" y="470" type="curve" smooth="yes"/>
      <point x="511" y="609"/>
      <point x="406" y="717"/>
      <point x="268" y="717" type="curve" smooth="yes"/>
      <point x="130" y="717"/>
      <point x="25" y="608"/>
      <point x="25" y="470" type="curve" smooth="yes"/>
    </contour>
    <contour>
      <point x="50" y="594"/>
      <point x="144" y="694"/>
      <point x="268" y="694" type="curve" smooth="yes"/>
      <point x="392" y="694"/>
      <point x="486" y="594"/>
      <point x="486" y="470" type="curve" smooth="yes"/>
      <point x="486" y="346"/>
      <point x="392" y="246"/>
      <point x="268" y="246" type="curve" smooth="yes"/>
      <point x="144" y="246"/>
      <point x="50" y="346"/>
      <point x="50" y="470" type="curve" smooth="yes"/>
    </contour>
    <contour>
      <point x="142" y="619"/>
      <point x="147" y="618"/>
      <point x="153" y="618" type="curve"/>
      <point x="177" y="619" type="line"/>
      <point x="181" y="608"/>
      <point x="182" y="526"/>
      <point x="182" y="464" type="curve" smooth="yes"/>
      <point x="182" y="404" type="line" smooth="yes"/>
      <point x="182" y="377"/>
      <point x="181" y="354"/>
      <point x="180" y="346" type="curve"/>
      <point x="161" y="346" type="line" smooth="yes"/>
      <point x="153" y="346"/>
      <point x="150" y="346"/>
      <point x="150" y="339" type="curve" smooth="yes"/>
      <point x="150" y="330"/>
      <point x="152" y="328"/>
      <point x="159" y="328" type="curve" smooth="yes"/>
      <point x="164" y="328"/>
      <point x="190" y="329"/>
      <point x="203" y="329" type="curve" smooth="yes"/>
      <point x="216" y="329"/>
      <point x="243" y="328"/>
      <point x="253" y="328" type="curve" smooth="yes"/>
      <point x="259" y="328"/>
      <point x="260" y="332"/>
      <point x="260" y="339" type="curve" smooth="yes"/>
      <point x="260" y="345"/>
      <point x="259" y="346"/>
      <point x="253" y="346" type="curve" smooth="yes"/>
      <point x="226" y="346" type="line"/>
      <point x="224" y="358"/>
      <point x="222" y="443"/>
      <point x="222" y="469" type="curve" smooth="yes"/>
      <point x="222" y="472"/>
      <point x="223" y="472"/>
      <point x="227" y="472" type="curve" smooth="yes"/>
      <point x="245" y="472"/>
      <point x="264" y="472"/>
      <point x="279" y="470" type="curve" smooth="yes"/>
      <point x="339" y="463"/>
      <point x="343" y="414"/>
      <point x="343" y="363" type="curve" smooth="yes"/>
      <point x="343" y="336" type="line" smooth="yes"/>
      <point x="343" y="331"/>
      <point x="346" y="329"/>
      <point x="350" y="329" type="curve"/>
      <point x="350" y="329"/>
      <point x="395" y="328"/>
      <point x="410" y="328" type="curve" smooth="yes"/>
      <point x="416" y="328"/>
      <point x="420" y="329"/>
      <point x="420" y="334" type="curve" smooth="yes"/>
      <point x="420" y="344"/>
      <point x="418" y="346"/>
      <point x="412" y="346" type="curve" smooth="yes"/>
      <point x="392" y="346" type="line" smooth="yes"/>
      <point x="390" y="346"/>
      <point x="389" y="346"/>
      <point x="388" y="374" type="curve" smooth="yes"/>
      <point x="385" y="451"/>
      <point x="338" y="472"/>
      <point x="308" y="481" type="curve"/>
      <point x="328" y="490"/>
      <point x="372" y="514"/>
      <point x="372" y="559" type="curve" smooth="yes"/>
      <point x="372" y="625"/>
      <point x="317" y="639"/>
      <point x="271" y="639" type="curve" smooth="yes"/>
      <point x="261" y="639"/>
      <point x="217" y="636"/>
      <point x="204" y="636" type="curve" smooth="yes"/>
      <point x="191" y="636"/>
      <point x="161" y="637"/>
      <point x="153" y="637" type="curve" smooth="yes"/>
      <point x="147" y="637"/>
      <point x="142" y="637"/>
      <point x="142" y="628" type="curve" smooth="yes"/>
    </contour>
    <contour>
      <point x="222" y="599" type="line" smooth="yes"/>
      <point x="222" y="609"/>
      <point x="223" y="618"/>
      <point x="224" y="622" type="curve"/>
      <point x="232" y="622"/>
      <point x="239" y="623"/>
      <point x="247" y="623" type="curve" smooth="yes"/>
      <point x="289" y="623"/>
      <point x="329" y="597"/>
      <point x="329" y="553" type="curve" smooth="yes"/>
      <point x="329" y="516"/>
      <point x="311" y="496"/>
      <point x="290" y="486" type="curve"/>
      <point x="273" y="486"/>
      <point x="249" y="487"/>
      <point x="227" y="487" type="curve" smooth="yes"/>
      <point x="222" y="487"/>
      <point x="222" y="487"/>
      <point x="222" y="489" type="curve" smooth="yes"/>
    </contour>
  </outline>
</glyph>
<glyph name="macron" format="1">
  <advance width="400"/>
  <unicode hex="00AF"/>
  <outline>
    <contour>
      <point x="100" y="518" type="line" smooth="yes"/>
      <point x="99" y="509"/>
      <point x="100" y="509"/>
      <point x="109" y="509" type="curve" smooth="yes"/>
      <point x="290" y="509" type="line" smooth="yes"/>
      <point x="298" y="509"/>
      <point x="297" y="509"/>
      <point x="298" y="517" type="curve"/>
      <point x="300" y="540" type="line"/>
      <point x="300" y="547"/>
      <point x="299" y="547"/>
      <point x="292" y="547" type="curve" smooth="yes"/>
      <point x="111" y="547" type="line" smooth="yes"/>
      <point x="103" y="547"/>
      <point x="103" y="547"/>
      <point x="102" y="539" type="curve" smooth="yes"/>
    </contour>
  </outline>
</glyph>
<glyph name="plusminus" format="1">
  <advance width="527"/>
  <unicode hex="00B1"/>
  <outline>
    <contour>
      <point x="31" y="75"/>
      <point x="37" y="73"/>
      <point x="48" y="73" type="curve" smooth="yes"/>
      <point x="475" y="73" type="line" smooth="yes"/>
      <point x="495" y="73"/>
      <point x="496" y="82"/>
      <point x="496" y="97" type="curve" smooth="yes"/>
      <point x="496" y="112"/>
      <point x="493" y="117"/>
      <point x="478" y="117" type="curve" smooth="yes"/>
      <point x="49" y="117" type="line" smooth="yes"/>
      <point x="31" y="117"/>
      <point x="31" y="108"/>
      <point x="31" y="90" type="curve" smooth="yes"/>
    </contour>
    <contour>
      <point x="31" y="309"/>
      <point x="31" y="301"/>
      <point x="48" y="301" type="curve" smooth="yes"/>
      <point x="225" y="301" type="line" smooth="yes"/>
      <point x="240" y="301"/>
      <point x="241" y="297"/>
      <point x="241" y="284" type="curve" smooth="yes"/>
      <point x="241" y="152" type="line" smooth="yes"/>
      <point x="241" y="139"/>
      <point x="248" y="138"/>
      <point x="269" y="138" type="curve" smooth="yes"/>
      <point x="279" y="138"/>
      <point x="285" y="139"/>
      <point x="285" y="152" type="curve" smooth="yes"/>
      <point x="285" y="284" type="line" smooth="yes"/>
      <point x="285" y="294"/>
      <point x="287" y="301"/>
      <point x="297" y="301" type="curve" smooth="yes"/>
      <point x="475" y="301" type="line" smooth="yes"/>
      <point x="496" y="301"/>
      <point x="496" y="311"/>
      <point x="496" y="331" type="curve" smooth="yes"/>
      <point x="496" y="344"/>
      <point x="489" y="346"/>
      <point x="480" y="346" type="curve" smooth="yes"/>
      <point x="297" y="346" type="line" smooth="yes"/>
      <point x="287" y="346"/>
      <point x="285" y="351"/>
      <point x="285" y="357" type="curve" smooth="yes"/>
      <point x="285" y="365" type="line"/>
      <point x="285" y="493" type="line" smooth="yes"/>
      <point x="285" y="507"/>
      <point x="281" y="510"/>
      <point x="257" y="510" type="curve" smooth="yes"/>
      <point x="248" y="510"/>
      <point x="241" y="506"/>
      <point x="241" y="495" type="curve" smooth="yes"/>
      <point x="241" y="365" type="line"/>
      <point x="241" y="356" type="line" smooth="yes"/>
      <point x="241" y="350"/>
      <point x="239" y="346"/>
      <point x="230" y="346" type="curve" smooth="yes"/>
      <point x="49" y="346" type="line" smooth="yes"/>
      <point x="34" y="346"/>
      <point x="31" y="336"/>
      <point x="31" y="324" type="curve" smooth="yes"/>
    </contour>
  </outline>
</glyph>
<glyph name="acute" format="1">
  <advance width="400"/>
  <unicode hex="00B4"/>
  <outline>
    <contour>
      <point x="172" y="450"/>
      <point x="173" y="449"/>
      <point x="176" y="449" type="curve" smooth="yes"/>
      <point x="191" y="449" type="line" smooth="yes"/>
      <point x="194" y="449"/>
      <point x="196" y="451"/>
      <point x="199" y="455" type="curve"/>
      <point x="290" y="558" type="line" smooth="yes"/>
      <point x="297" y="566"/>
      <point x="299" y="573"/>
      <point x="299" y="583" type="curve" smooth="yes"/>
      <point x="299" y="595"/>
      <point x="287" y="604"/>
      <point x="268" y="604" type="curve" smooth="yes"/>
      <point x="255" y="604"/>
      <point x="244" y="595"/>
      <point x="236" y="580" type="curve" smooth="yes"/>
      <point x="175" y="457" type="line" smooth="yes"/>
      <point x="174" y="455"/>
      <point x="172" y="452"/>
      <point x="172" y="451" type="curve" smooth="yes"/>
    </contour>
  </outline>
</glyph>
<glyph name="periodcentered" format="1">
  <advance width="125"/>
  <unicode hex="00B7"/>
  <outline>
    <contour>
      <point x="25" y="319"/>
      <point x="40" y="292"/>
      <point x="69" y="292" type="curve" smooth="yes"/>
      <point x="93" y="292"/>
      <point x="110" y="312"/>
      <point x="110" y="338" type="curve" smooth="yes"/>
      <point x="110" y="359"/>
      <point x="95" y="386"/>
      <point x="66" y="386" type="curve" smooth="yes"/>
      <point x="40" y="386"/>
      <point x="25" y="366"/>
      <point x="25" y="340" type="curve" smooth="yes"/>
    </contour>
  </outline>
</glyph>
<glyph name="cedilla" format="1">
  <advance width="400"/>
  <unicode hex="00B8"/>
  <outline>
    <contour>
      <point x="109" y="-194"/>
      <point x="136" y="-217"/>
      <point x="184" y="-217" type="curve" smooth="yes"/>
      <point x="247" y="-217"/>
      <point x="296" y="-181"/>
      <point x="296" y="-131" type="curve" smooth="yes"/>
      <point x="296" y="-98"/>
      <point x="267" y="-67"/>
      <point x="219" y="-67" type="curve" smooth="yes"/>
      <point x="209" y="-67"/>
      <point x="199" y="-68"/>
      <point x="195" y="-69" type="curve"/>
      <point x="193" y="-69"/>
      <point x="190" y="-70"/>
      <point x="190" y="-67" type="curve" smooth="yes"/>
      <point x="190" y="-65"/>
      <point x="218" y="-16"/>
      <point x="227" y="0" type="curve"/>
      <point x="208" y="0" type="line"/>
      <point x="196" y="-24"/>
      <point x="152" y="-100"/>
      <point x="152" y="-102" type="curve" smooth="yes"/>
      <point x="152" y="-104"/>
      <point x="157" y="-106"/>
      <point x="159" y="-106" type="curve" smooth="yes"/>
      <point x="162" y="-106"/>
      <point x="177" y="-100"/>
      <point x="195" y="-100" type="curve" smooth="yes"/>
      <point x="231" y="-100"/>
      <point x="242" y="-125"/>
      <point x="242" y="-145" type="curve" smooth="yes"/>
      <point x="242" y="-179"/>
      <point x="218" y="-194"/>
      <point x="173" y="-194" type="curve" smooth="yes"/>
      <point x="142" y="-194"/>
      <point x="120" y="-180"/>
      <point x="117" y="-180" type="curve" smooth="yes"/>
      <point x="109" y="-180"/>
      <point x="109" y="-187"/>
      <point x="109" y="-190" type="curve" smooth="yes"/>
    </contour>
  </outline>
</glyph>
<glyph name="ordmasculine" format="1">
  <advance width="377"/>
  <unicode hex="00BA"/>
  <outline>
    <contour>
      <point x="30" y="401"/>
      <point x="69" y="342"/>
      <point x="147" y="342" type="curve" smooth="yes"/>
      <point x="252" y="342"/>
      <point x="337" y="445"/>
      <point x="337" y="547" type="curve" smooth="yes"/>
      <point x="337" y="598"/>
      <point x="310" y="679"/>
      <point x="222" y="679" type="curve" smooth="yes"/>
      <point x="111" y="679"/>
      <point x="30" y="586"/>
      <point x="30" y="464" type="curve" smooth="yes"/>
    </contour>
    <contour>
      <point x="83" y="544"/>
      <point x="148" y="658"/>
      <point x="213" y="658" type="curve" smooth="yes"/>
      <point x="272" y="658"/>
      <point x="283" y="608"/>
      <point x="283" y="580" type="curve" smooth="yes"/>
      <point x="283" y="505"/>
      <point x="228" y="364"/>
      <point x="148" y="364" type="curve" smooth="yes"/>
      <point x="84" y="364"/>
      <point x="83" y="436"/>
      <point x="83" y="471" type="curve" smooth="yes"/>
    </contour>
  </outline>
</glyph>
<glyph name="guillemotright" format="1">
  <advance width="408"/>
  <unicode hex="00BB"/>
  <outline>
    <contour>
      <point x="60" y="72"/>
      <point x="72" y="62"/>
      <point x="74" y="62" type="curve" smooth="yes"/>
      <point x="75" y="62"/>
      <point x="115" y="103"/>
      <point x="153" y="138" type="curve" smooth="yes"/>
      <point x="182" y="165"/>
      <point x="208" y="188"/>
      <point x="208" y="193" type="curve" smooth="yes"/>
      <point x="208" y="198"/>
      <point x="182" y="221"/>
      <point x="153" y="248" type="curve" smooth="yes"/>
      <point x="115" y="283"/>
      <point x="75" y="324"/>
      <point x="74" y="324" type="curve" smooth="yes"/>
      <point x="72" y="324"/>
      <point x="60" y="314"/>
      <point x="60" y="312" type="curve" smooth="yes"/>
      <point x="60" y="304"/>
      <point x="122" y="205"/>
      <point x="122" y="193" type="curve" smooth="yes"/>
      <point x="122" y="181"/>
      <point x="60" y="82"/>
      <point x="60" y="74" type="curve" smooth="yes"/>
    </contour>
    <contour>
      <point x="210" y="72"/>
      <point x="222" y="62"/>
      <point x="224" y="62" type="curve" smooth="yes"/>
      <point x="225" y="62"/>
      <point x="265" y="103"/>
      <point x="303" y="138" type="curve" smooth="yes"/>
      <point x="332" y="165"/>
      <point x="358" y="188"/>
      <point x="358" y="193" type="curve" smooth="yes"/>
      <point x="358" y="198"/>
      <point x="332" y="221"/>
      <point x="303" y="248" type="curve" smooth="yes"/>
      <point x="265" y="283"/>
      <point x="225" y="324"/>
      <point x="224" y="324" type="curve" smooth="yes"/>
      <point x="222" y="324"/>
      <point x="210" y="314"/>
      <point x="210" y="312" type="curve" smooth="yes"/>
      <point x="210" y="304"/>
      <point x="272" y="205"/>
      <point x="272" y="193" type="curve" smooth="yes"/>
      <point x="272" y="181"/>
      <point x="210" y="82"/>
      <point x="210" y="74" type="curve" smooth="yes"/>
    </contour>
  </outline>
</glyph>
<glyph name="onequarter" format="1">
  <advance width="794"/>
  <unicode hex="00BC"/>
  <outline>
    <contour>
      <point x="458" y="135"/>
      <point x="466" y="135"/>
      <point x="471" y="135" type="curve" smooth="yes"/>
      <point x="610" y="135" type="line" smooth="yes"/>
      <point x="620" y="135"/>
      <point x="622" y="134"/>
      <point x="620" y="125" type="curve"/>
      <point x="597" y="-1" type="line" smooth="yes"/>
      <point x="596" y="-6"/>
      <point x="597" y="-11"/>
      <point x="601" y="-11" type="curve" smooth="yes"/>
      <point x="611" y="-11"/>
      <point x="638" y="-8"/>
      <point x="642" y="-7" type="curve"/>
      <point x="643" y="-6"/>
      <point x="650" y="-6"/>
      <point x="650" y="0" type="curve" smooth="yes"/>
      <point x="650" y="3"/>
      <point x="662" y="86"/>
      <point x="668" y="126" type="curve"/>
      <point x="669" y="135"/>
      <point x="671" y="135"/>
      <point x="676" y="135" type="curve" smooth="yes"/>
      <point x="722" y="135" type="line" smooth="yes"/>
      <point x="730" y="135"/>
      <point x="731" y="135"/>
      <point x="731" y="142" type="curve" smooth="yes"/>
      <point x="731" y="165" type="line" smooth="yes"/>
      <point x="731" y="172"/>
      <point x="729" y="173"/>
      <point x="725" y="173" type="curve" smooth="yes"/>
      <point x="688" y="173" type="line" smooth="yes"/>
      <point x="679" y="173"/>
      <point x="677" y="173"/>
      <point x="679" y="184" type="curve"/>
      <point x="679" y="184"/>
      <point x="709" y="390"/>
      <point x="709" y="400" type="curve" smooth="yes"/>
      <point x="709" y="406"/>
      <point x="708" y="414"/>
      <point x="702" y="414" type="curve" smooth="yes"/>
      <point x="696" y="414"/>
      <point x="676" y="393"/>
      <point x="662" y="379" type="curve" smooth="yes"/>
      <point x="655" y="372"/>
      <point x="646" y="370"/>
      <point x="636" y="358" type="curve" smooth="yes"/>
      <point x="587" y="299"/>
      <point x="509" y="225"/>
      <point x="475" y="179" type="curve" smooth="yes"/>
      <point x="463" y="163"/>
      <point x="458" y="148"/>
      <point x="458" y="141" type="curve" smooth="yes"/>
    </contour>
    <contour>
      <point x="498" y="177"/>
      <point x="505" y="185"/>
      <point x="509" y="189" type="curve"/>
      <point x="553" y="239"/>
      <point x="643" y="337"/>
      <point x="652" y="344" type="curve"/>
      <point x="652" y="318"/>
      <point x="634" y="204"/>
      <point x="631" y="186" type="curve"/>
      <point x="628" y="173"/>
      <point x="629" y="173"/>
      <point x="620" y="173" type="curve" smooth="yes"/>
      <point x="512" y="173" type="line" smooth="yes"/>
      <point x="501" y="173"/>
      <point x="498" y="173"/>
      <point x="498" y="175" type="curve" smooth="yes"/>
    </contour>
    <contour>
      <point x="210" y="-11"/>
      <point x="214" y="-13"/>
      <point x="228" y="-13" type="curve" smooth="yes"/>
      <point x="244" y="-13"/>
      <point x="245" y="-10"/>
      <point x="251" y="-1" type="curve" smooth="yes"/>
      <point x="661" y="658" type="line"/>
      <point x="662" y="660"/>
      <point x="662" y="661"/>
      <point x="662" y="662" type="curve" smooth="yes"/>
      <point x="662" y="666"/>
      <point x="657" y="668"/>
      <point x="645" y="668" type="curve" smooth="yes"/>
      <point x="627" y="668"/>
      <point x="627" y="665"/>
      <point x="622" y="658" type="curve"/>
      <point x="214" y="1" type="line"/>
      <point x="212" y="-3"/>
      <point x="210" y="-6"/>
      <point x="210" y="-8" type="curve" smooth="yes"/>
    </contour>
    <contour>
      <point x="78" y="249"/>
      <point x="78" y="248"/>
      <point x="88" y="248" type="curve" smooth="yes"/>
      <point x="103" y="248"/>
      <point x="159" y="250"/>
      <point x="179" y="250" type="curve" smooth="yes"/>
      <point x="199" y="250"/>
      <point x="250" y="248"/>
      <point x="261" y="248" type="curve" smooth="yes"/>
      <point x="269" y="248"/>
      <point x="269" y="249"/>
      <point x="269" y="259" type="curve" smooth="yes"/>
      <point x="269" y="267"/>
      <point x="269" y="275"/>
      <point x="261" y="275" type="curve" smooth="yes"/>
      <point x="203" y="275" type="line"/>
      <point x="238" y="512" type="line" smooth="yes"/>
      <point x="247" y="570"/>
      <point x="260" y="645"/>
      <point x="260" y="652" type="curve" smooth="yes"/>
      <point x="260" y="656"/>
      <point x="259" y="660"/>
      <point x="253" y="660" type="curve" smooth="yes"/>
      <point x="249" y="660"/>
      <point x="160" y="644"/>
      <point x="133" y="641" type="curve"/>
      <point x="127" y="640"/>
      <point x="125" y="637"/>
      <point x="125" y="632" type="curve" smooth="yes"/>
      <point x="125" y="624" type="line" smooth="yes"/>
      <point x="125" y="622"/>
      <point x="126" y="615"/>
      <point x="132" y="615" type="curve" smooth="yes"/>
      <point x="135" y="615"/>
      <point x="183" y="625"/>
      <point x="192" y="626" type="curve"/>
      <point x="192" y="603"/>
      <point x="153" y="315"/>
      <point x="147" y="275" type="curve"/>
      <point x="91" y="275" type="line" smooth="yes"/>
      <point x="79" y="275"/>
      <point x="78" y="268"/>
      <point x="78" y="260" type="curve" smooth="yes"/>
    </contour>
  </outline>
</glyph>
<glyph name="onehalf" format="1">
  <advance width="844"/>
  <unicode hex="00BD"/>
  <outline>
    <contour>
      <point x="525" y="3"/>
      <point x="528" y="0"/>
      <point x="536" y="0" type="curve" smooth="yes"/>
      <point x="764" y="0" type="line" smooth="yes"/>
      <point x="769" y="0"/>
      <point x="772" y="0"/>
      <point x="773" y="5" type="curve"/>
      <point x="781" y="36"/>
      <point x="803" y="96"/>
      <point x="803" y="102" type="curve" smooth="yes"/>
      <point x="803" y="106"/>
      <point x="788" y="107"/>
      <point x="785" y="107" type="curve" smooth="yes"/>
      <point x="781" y="107"/>
      <point x="763" y="52"/>
      <point x="761" y="47" type="curve"/>
      <point x="579" y="47" type="line" smooth="yes"/>
      <point x="579" y="47"/>
      <point x="607" y="82"/>
      <point x="617" y="90" type="curve" smooth="yes"/>
      <point x="639" y="108"/>
      <point x="694" y="143"/>
      <point x="741" y="194" type="curve" smooth="yes"/>
      <point x="769" y="225"/>
      <point x="792" y="262"/>
      <point x="792" y="302" type="curve" smooth="yes"/>
      <point x="792" y="363"/>
      <point x="749" y="410"/>
      <point x="683" y="410" type="curve" smooth="yes"/>
      <point x="605" y="410"/>
      <point x="539" y="326"/>
      <point x="539" y="315" type="curve" smooth="yes"/>
      <point x="539" y="309"/>
      <point x="550" y="302"/>
      <point x="554" y="302" type="curve" smooth="yes"/>
      <point x="560" y="302"/>
      <point x="594" y="367"/>
      <point x="663" y="367" type="curve" smooth="yes"/>
      <point x="713" y="367"/>
      <point x="737" y="334"/>
      <point x="737" y="296" type="curve" smooth="yes"/>
      <point x="737" y="221"/>
      <point x="593" y="99"/>
      <point x="583" y="90" type="curve"/>
      <point x="579" y="87"/>
      <point x="525" y="16"/>
      <point x="525" y="7" type="curve" smooth="yes"/>
    </contour>
    <contour>
      <point x="210" y="-11"/>
      <point x="214" y="-13"/>
      <point x="228" y="-13" type="curve" smooth="yes"/>
      <point x="244" y="-13"/>
      <point x="245" y="-10"/>
      <point x="251" y="-1" type="curve" smooth="yes"/>
      <point x="661" y="658" type="line"/>
      <point x="662" y="660"/>
      <point x="662" y="661"/>
      <point x="662" y="662" type="curve" smooth="yes"/>
      <point x="662" y="666"/>
      <point x="657" y="668"/>
      <point x="645" y="668" type="curve" smooth="yes"/>
      <point x="627" y="668"/>
      <point x="627" y="665"/>
      <point x="622" y="658" type="curve"/>
      <point x="214" y="1" type="line"/>
      <point x="212" y="-3"/>
      <point x="210" y="-6"/>
      <point x="210" y="-8" type="curve" smooth="yes"/>
    </contour>
    <contour>
      <point x="78" y="249"/>
      <point x="78" y="248"/>
      <point x="88" y="248" type="curve" smooth="yes"/>
      <point x="103" y="248"/>
      <point x="159" y="250"/>
      <point x="179" y="250" type="curve" smooth="yes"/>
      <point x="199" y="250"/>
      <point x="250" y="248"/>
      <point x="261" y="248" type="curve" smooth="yes"/>
      <point x="269" y="248"/>
      <point x="269" y="249"/>
      <point x="269" y="259" type="curve" smooth="yes"/>
      <point x="269" y="267"/>
      <point x="269" y="275"/>
      <point x="261" y="275" type="curve" smooth="yes"/>
      <point x="203" y="275" type="line"/>
      <point x="238" y="512" type="line" smooth="yes"/>
      <point x="247" y="570"/>
      <point x="260" y="645"/>
      <point x="260" y="652" type="curve" smooth="yes"/>
      <point x="260" y="656"/>
      <point x="259" y="660"/>
      <point x="253" y="660" type="curve" smooth="yes"/>
      <point x="249" y="660"/>
      <point x="160" y="644"/>
      <point x="133" y="641" type="curve"/>
      <point x="127" y="640"/>
      <point x="125" y="637"/>
      <point x="125" y="632" type="curve" smooth="yes"/>
      <point x="125" y="624" type="line" smooth="yes"/>
      <point x="125" y="622"/>
      <point x="126" y="615"/>
      <point x="132" y="615" type="curve" smooth="yes"/>
      <point x="135" y="615"/>
      <point x="183" y="625"/>
      <point x="192" y="626" type="curve"/>
      <point x="192" y="603"/>
      <point x="153" y="315"/>
      <point x="147" y="275" type="curve"/>
      <point x="91" y="275" type="line" smooth="yes"/>
      <point x="79" y="275"/>
      <point x="78" y="268"/>
      <point x="78" y="260" type="curve" smooth="yes"/>
    </contour>
  </outline>
</glyph>
<glyph name="threequarters" format="1">
  <advance width="794"/>
  <unicode hex="00BE"/>
  <outline>
    <contour>
      <point x="458" y="135"/>
      <point x="466" y="135"/>
      <point x="471" y="135" type="curve" smooth="yes"/>
      <point x="610" y="135" type="line" smooth="yes"/>
      <point x="620" y="135"/>
      <point x="622" y="134"/>
      <point x="620" y="125" type="curve"/>
      <point x="597" y="-1" type="line" smooth="yes"/>
      <point x="596" y="-6"/>
      <point x="597" y="-11"/>
      <point x="601" y="-11" type="curve" smooth="yes"/>
      <point x="611" y="-11"/>
      <point x="638" y="-8"/>
      <point x="642" y="-7" type="curve"/>
      <point x="643" y="-6"/>
      <point x="650" y="-6"/>
      <point x="650" y="0" type="curve" smooth="yes"/>
      <point x="650" y="3"/>
      <point x="662" y="86"/>
      <point x="668" y="126" type="curve"/>
      <point x="669" y="135"/>
      <point x="671" y="135"/>
      <point x="676" y="135" type="curve" smooth="yes"/>
      <point x="722" y="135" type="line" smooth="yes"/>
      <point x="730" y="135"/>
      <point x="731" y="135"/>
      <point x="731" y="142" type="curve" smooth="yes"/>
      <point x="731" y="165" type="line" smooth="yes"/>
      <point x="731" y="172"/>
      <point x="729" y="173"/>
      <point x="725" y="173" type="curve" smooth="yes"/>
      <point x="688" y="173" type="line" smooth="yes"/>
      <point x="679" y="173"/>
      <point x="677" y="173"/>
      <point x="679" y="184" type="curve"/>
      <point x="679" y="184"/>
      <point x="709" y="390"/>
      <point x="709" y="400" type="curve" smooth="yes"/>
      <point x="709" y="406"/>
      <point x="708" y="414"/>
      <point x="702" y="414" type="curve" smooth="yes"/>
      <point x="696" y="414"/>
      <point x="676" y="393"/>
      <point x="662" y="379" type="curve" smooth="yes"/>
      <point x="655" y="372"/>
      <point x="646" y="370"/>
      <point x="636" y="358" type="curve" smooth="yes"/>
      <point x="587" y="299"/>
      <point x="509" y="225"/>
      <point x="475" y="179" type="curve" smooth="yes"/>
      <point x="463" y="163"/>
      <point x="458" y="148"/>
      <point x="458" y="141" type="curve" smooth="yes"/>
    </contour>
    <contour>
      <point x="498" y="177"/>
      <point x="505" y="185"/>
      <point x="509" y="189" type="curve"/>
      <point x="553" y="239"/>
      <point x="643" y="337"/>
      <point x="652" y="344" type="curve"/>
      <point x="652" y="318"/>
      <point x="634" y="204"/>
      <point x="631" y="186" type="curve"/>
      <point x="628" y="173"/>
      <point x="629" y="173"/>
      <point x="620" y="173" type="curve" smooth="yes"/>
      <point x="512" y="173" type="line" smooth="yes"/>
      <point x="501" y="173"/>
      <point x="498" y="173"/>
      <point x="498" y="175" type="curve" smooth="yes"/>
    </contour>
    <contour>
      <point x="210" y="-11"/>
      <point x="214" y="-13"/>
      <point x="228" y="-13" type="curve" smooth="yes"/>
      <point x="244" y="-13"/>
      <point x="245" y="-10"/>
      <point x="251" y="-1" type="curve" smooth="yes"/>
      <point x="661" y="658" type="line"/>
      <point x="662" y="660"/>
      <point x="662" y="661"/>
      <point x="662" y="662" type="curve" smooth="yes"/>
      <point x="662" y="666"/>
      <point x="657" y="668"/>
      <point x="645" y="668" type="curve" smooth="yes"/>
      <point x="627" y="668"/>
      <point x="627" y="665"/>
      <point x="622" y="658" type="curve"/>
      <point x="214" y="1" type="line"/>
      <point x="212" y="-3"/>
      <point x="210" y="-6"/>
      <point x="210" y="-8" type="curve" smooth="yes"/>
    </contour>
    <contour>
      <point x="49" y="264"/>
      <point x="108" y="241"/>
      <point x="141" y="241" type="curve" smooth="yes"/>
      <point x="213" y="241"/>
      <point x="292" y="281"/>
      <point x="292" y="362" type="curve" smooth="yes"/>
      <point x="292" y="444"/>
      <point x="191" y="455"/>
      <point x="177" y="459" type="curve"/>
      <point x="190" y="465"/>
      <point x="291" y="493"/>
      <point x="291" y="572" type="curve" smooth="yes"/>
      <point x="291" y="614"/>
      <point x="257" y="660"/>
      <point x="188" y="660" type="curve" smooth="yes"/>
      <point x="134" y="660"/>
      <point x="88" y="616"/>
      <point x="87" y="608" type="curve"/>
      <point x="86" y="602"/>
      <point x="95" y="596"/>
      <point x="99" y="596" type="curve" smooth="yes"/>
      <point x="105" y="596"/>
      <point x="133" y="630"/>
      <point x="178" y="630" type="curve" smooth="yes"/>
      <point x="210" y="630"/>
      <point x="236" y="606"/>
      <point x="236" y="565" type="curve" smooth="yes"/>
      <point x="236" y="512"/>
      <point x="207" y="487"/>
      <point x="166" y="471" type="curve" smooth="yes"/>
      <point x="151" y="465"/>
      <point x="130" y="462"/>
      <point x="113" y="460" type="curve"/>
      <point x="108" y="460"/>
      <point x="109" y="449"/>
      <point x="109" y="445" type="curve" smooth="yes"/>
      <point x="109" y="438"/>
      <point x="111" y="432"/>
      <point x="116" y="432" type="curve" smooth="yes"/>
      <point x="126" y="432"/>
      <point x="141" y="434"/>
      <point x="151" y="434" type="curve" smooth="yes"/>
      <point x="205" y="434"/>
      <point x="237" y="410"/>
      <point x="237" y="358" type="curve" smooth="yes"/>
      <point x="237" y="304"/>
      <point x="201" y="264"/>
      <point x="149" y="264" type="curve" smooth="yes"/>
      <point x="119" y="264"/>
      <point x="109" y="295"/>
      <point x="79" y="295" type="curve" smooth="yes"/>
      <point x="68" y="295"/>
      <point x="49" y="286"/>
      <point x="49" y="277" type="curve" smooth="yes"/>
    </contour>
  </outline>
</glyph>
<glyph name="questiondown" format="1">
  <advance width="374"/>
  <unicode hex="00BF"/>
  <outline>
    <contour>
      <point x="35" y="96"/>
      <point x="63" y="40"/>
      <point x="107" y="11" type="curve" smooth="yes"/>
      <point x="121" y="2"/>
      <point x="142" y="-8"/>
      <point x="197" y="-8" type="curve" smooth="yes"/>
      <point x="214" y="-8"/>
      <point x="243" y="-6"/>
      <point x="261" y="-3" type="curve" smooth="yes"/>
      <point x="275" y="-1"/>
      <point x="280" y="1"/>
      <point x="279" y="13" type="curve" smooth="yes"/>
      <point x="278" y="32"/>
      <point x="280" y="52"/>
      <point x="267" y="52" type="curve" smooth="yes"/>
      <point x="258" y="52"/>
      <point x="209" y="49"/>
      <point x="187" y="49" type="curve" smooth="yes"/>
      <point x="151" y="49"/>
      <point x="120" y="49"/>
      <point x="98" y="63" type="curve" smooth="yes"/>
      <point x="79" y="75"/>
      <point x="61" y="105"/>
      <point x="61" y="134" type="curve" smooth="yes"/>
      <point x="61" y="189"/>
      <point x="157" y="266"/>
      <point x="225" y="334" type="curve" smooth="yes"/>
      <point x="262" y="371"/>
      <point x="290" y="405"/>
      <point x="290" y="443" type="curve" smooth="yes"/>
      <point x="290" y="483"/>
      <point x="247" y="523"/>
      <point x="242" y="523" type="curve" smooth="yes"/>
      <point x="237" y="523"/>
      <point x="228" y="513"/>
      <point x="228" y="510" type="curve" smooth="yes"/>
      <point x="228" y="506"/>
      <point x="256" y="483"/>
      <point x="256" y="457" type="curve" smooth="yes"/>
      <point x="256" y="429"/>
      <point x="208" y="390"/>
      <point x="189" y="371" type="curve" smooth="yes"/>
      <point x="153" y="335"/>
      <point x="125" y="310"/>
      <point x="84" y="264" type="curve" smooth="yes"/>
      <point x="54" y="230"/>
      <point x="35" y="214"/>
      <point x="35" y="148" type="curve" smooth="yes"/>
    </contour>
    <contour>
      <point x="204" y="586"/>
      <point x="230" y="559"/>
      <point x="248" y="559" type="curve" smooth="yes"/>
      <point x="267" y="559"/>
      <point x="294" y="585"/>
      <point x="294" y="611" type="curve" smooth="yes"/>
      <point x="294" y="626"/>
      <point x="272" y="657"/>
      <point x="244" y="657" type="curve" smooth="yes"/>
      <point x="234" y="657"/>
      <point x="204" y="641"/>
      <point x="204" y="606" type="curve" smooth="yes"/>
    </contour>
  </outline>
</glyph>
